  0
SECTION
  2
HEADER
  9
$ANGBASE
  50
0.0
  9
$ANGDIR
  70
1
  9
$MEASUREMENT
  70
1
  0
ENDSEC
  0
SECTION
  2
TABLES
  0
TABLE
  2
LTYPE
  70
4
  0
LTYPE
  5
40F
  2
CONTINUOUS
  70
0
  3
Solid line
  72
65
  73
0
  40
0.0
  0
LTYPE
  5
410
  2
DASHDOT
 70
0
  3
Dash Dot ____ _ ____ _
 72
65
 73
4
 40
2.0
 49
1.25
 49
-0.25
 49
0.25
 49
-0.25
  0
LTYPE
  5
411
  2
DASHED
 70
0
  3
Dashed __ __ __ __ __
 72
65
 73
2
 40
0.75
 49
0.5
 49
-0.25
  0
LTYPE
  5
43B
  2
DOTTED
 70
0
  3
Dotted .  .  .  .
 72
65
 73
2
 40
0.2
 49
0.0
 49
-0.2
  0
ENDTAB
  0
TABLE
  2
STYLE
  70
4
  0
STYLE
  2
KICAD
  70
0
  40
0
  41
1
  42
1
  50
0
  71
0
  3
isocp.shx
  0
STYLE
  2
KICADB
  70
0
  40
0
  41
1
  42
1
  50
0
  71
0
  3
isocp.shx
  0
STYLE
  2
KICADI
  70
0
  40
0
  41
1
  42
1
  50
15
  71
0
  3
isocp.shx
  0
STYLE
  2
KICADBI
  70
0
  40
0
  41
1
  42
1
  50
15
  71
0
  3
isocp.shx
  0
ENDTAB
  0
TABLE
  2
LAYER
  70
1
  0
LAYER
  2
BLACK
  70
0
  62
7
  6
CONTINUOUS
  0
ENDTAB
  0
ENDSEC
  0
SECTION
  2
ENTITIES
0
LINE
8
BLACK
6
CONTINUOUS
10
424.264
20
-151.996
11
427.263
21
-151.996
0
LINE
8
BLACK
6
CONTINUOUS
10
145.888
20
-156.996
11
142.888
21
-156.996
0
ARC
8
BLACK
10
143.388
20
-98.8329
40
1.00004
50
-269.998
51
-179.998
0
ARC
8
BLACK
10
427.263
20
-151.496
40
0.499976
50
-90.0028
51
0.00126057
0
LINE
8
BLACK
6
CONTINUOUS
10
142.888
20
-151.996
11
145.89
21
-151.996
0
CIRCLE
8
BLACK
10
167.776
20
-125.896
40
2.5
0
ARC
8
BLACK
10
142.888
20
-157.496
40
0.500039
50
90.0045
51
179.999
0
LINE
8
BLACK
6
CONTINUOUS
10
426.763
20
-97.8329
11
143.388
21
-97.8329
0
ARC
8
BLACK
10
427.263
20
-157.496
40
0.500011
50
0.00126057
51
90.0028
0
ARC
8
BLACK
10
426.763
20
-98.8329
40
0.999961
50
-0.00223459
51
90.0014
0
ARC
8
BLACK
10
145.888
20
-154.496
40
2.50001
50
-90.0006
51
89.9529
0
CIRCLE
8
BLACK
10
402.625
20
-125.896
40
2.5
0
LINE
8
BLACK
6
CONTINUOUS
10
143.388
20
-192.76
11
426.763
21
-192.76
0
ARC
8
BLACK
10
143.388
20
-191.76
40
0.999976
50
-180.001
51
-90.0022
0
ARC
8
BLACK
10
424.263
20
-154.496
40
2.49999
50
-270.001
51
-89.9994
0
LINE
8
BLACK
6
CONTINUOUS
10
427.763
20
-191.76
11
427.763
21
-157.496
0
LINE
8
BLACK
6
CONTINUOUS
10
142.388
20
-157.496
11
142.388
21
-191.76
0
ARC
8
BLACK
10
426.763
20
-191.76
40
0.999976
50
-90.0014
51
0.00137513
0
LINE
8
BLACK
6
CONTINUOUS
10
427.263
20
-156.996
11
424.264
21
-156.996
0
ARC
8
BLACK
10
142.888
20
-151.496
40
0.499989
50
-180.001
51
-90.0045
0
LINE
8
BLACK
6
CONTINUOUS
10
142.388
20
-98.8329
11
142.388
21
-151.496
0
LINE
8
BLACK
6
CONTINUOUS
10
427.763
20
-151.496
11
427.763
21
-98.8329
0
LINE
8
BLACK
6
CONTINUOUS
10
335.175
20
-157.295
11
349.275
21
-157.295
0
LINE
8
BLACK
6
CONTINUOUS
10
335.175
20
-171.395
11
335.175
21
-157.295
0
LINE
8
BLACK
6
CONTINUOUS
10
349.275
20
-157.295
11
349.275
21
-171.395
0
LINE
8
BLACK
6
CONTINUOUS
10
349.275
20
-171.395
11
335.175
21
-171.395
0
LINE
8
BLACK
6
CONTINUOUS
10
330.225
20
-157.295
11
330.225
21
-171.395
0
LINE
8
BLACK
6
CONTINUOUS
10
330.225
20
-171.395
11
316.125
21
-171.395
0
LINE
8
BLACK
6
CONTINUOUS
10
316.125
20
-157.295
11
330.225
21
-157.295
0
LINE
8
BLACK
6
CONTINUOUS
10
316.125
20
-171.395
11
316.125
21
-157.295
0
LINE
8
BLACK
6
CONTINUOUS
10
163.725
20
-114.245
11
163.725
21
-100.145
0
LINE
8
BLACK
6
CONTINUOUS
10
177.825
20
-100.145
11
177.825
21
-114.245
0
LINE
8
BLACK
6
CONTINUOUS
10
163.725
20
-100.145
11
177.825
21
-100.145
0
LINE
8
BLACK
6
CONTINUOUS
10
177.825
20
-114.245
11
163.725
21
-114.245
0
LINE
8
BLACK
6
CONTINUOUS
10
196.875
20
-100.145
11
196.875
21
-114.245
0
LINE
8
BLACK
6
CONTINUOUS
10
196.875
20
-114.245
11
182.775
21
-114.245
0
LINE
8
BLACK
6
CONTINUOUS
10
182.775
20
-114.245
11
182.775
21
-100.145
0
LINE
8
BLACK
6
CONTINUOUS
10
182.775
20
-100.145
11
196.875
21
-100.145
0
LINE
8
BLACK
6
CONTINUOUS
10
201.825
20
-114.245
11
201.825
21
-100.145
0
LINE
8
BLACK
6
CONTINUOUS
10
201.825
20
-100.145
11
215.925
21
-100.145
0
LINE
8
BLACK
6
CONTINUOUS
10
215.925
20
-114.245
11
201.825
21
-114.245
0
LINE
8
BLACK
6
CONTINUOUS
10
215.925
20
-100.145
11
215.925
21
-114.245
0
LINE
8
BLACK
6
CONTINUOUS
10
220.875
20
-100.145
11
234.975
21
-100.145
0
LINE
8
BLACK
6
CONTINUOUS
10
234.975
20
-100.145
11
234.975
21
-114.245
0
LINE
8
BLACK
6
CONTINUOUS
10
220.875
20
-114.245
11
220.875
21
-100.145
0
LINE
8
BLACK
6
CONTINUOUS
10
234.975
20
-114.245
11
220.875
21
-114.245
0
LINE
8
BLACK
6
CONTINUOUS
10
239.925
20
-100.145
11
254.025
21
-100.145
0
LINE
8
BLACK
6
CONTINUOUS
10
254.025
20
-114.245
11
239.925
21
-114.245
0
LINE
8
BLACK
6
CONTINUOUS
10
254.025
20
-100.145
11
254.025
21
-114.245
0
LINE
8
BLACK
6
CONTINUOUS
10
239.925
20
-114.245
11
239.925
21
-100.145
0
LINE
8
BLACK
6
CONTINUOUS
10
258.975
20
-100.145
11
273.075
21
-100.145
0
LINE
8
BLACK
6
CONTINUOUS
10
273.075
20
-114.245
11
258.975
21
-114.245
0
LINE
8
BLACK
6
CONTINUOUS
10
273.075
20
-100.145
11
273.075
21
-114.245
0
LINE
8
BLACK
6
CONTINUOUS
10
258.975
20
-114.245
11
258.975
21
-100.145
0
LINE
8
BLACK
6
CONTINUOUS
10
278.025
20
-114.245
11
278.025
21
-100.145
0
LINE
8
BLACK
6
CONTINUOUS
10
292.125
20
-114.245
11
278.025
21
-114.245
0
LINE
8
BLACK
6
CONTINUOUS
10
292.125
20
-100.145
11
292.125
21
-114.245
0
LINE
8
BLACK
6
CONTINUOUS
10
278.025
20
-100.145
11
292.125
21
-100.145
0
LINE
8
BLACK
6
CONTINUOUS
10
311.175
20
-100.145
11
311.175
21
-114.245
0
LINE
8
BLACK
6
CONTINUOUS
10
297.075
20
-114.245
11
297.075
21
-100.145
0
LINE
8
BLACK
6
CONTINUOUS
10
311.175
20
-114.245
11
297.075
21
-114.245
0
LINE
8
BLACK
6
CONTINUOUS
10
297.075
20
-100.145
11
311.175
21
-100.145
0
LINE
8
BLACK
6
CONTINUOUS
10
330.225
20
-114.245
11
316.125
21
-114.245
0
LINE
8
BLACK
6
CONTINUOUS
10
330.225
20
-100.145
11
330.225
21
-114.245
0
LINE
8
BLACK
6
CONTINUOUS
10
316.125
20
-114.245
11
316.125
21
-100.145
0
LINE
8
BLACK
6
CONTINUOUS
10
316.125
20
-100.145
11
330.225
21
-100.145
0
LINE
8
BLACK
6
CONTINUOUS
10
335.175
20
-100.145
11
349.275
21
-100.145
0
LINE
8
BLACK
6
CONTINUOUS
10
349.275
20
-114.245
11
335.175
21
-114.245
0
LINE
8
BLACK
6
CONTINUOUS
10
349.275
20
-100.145
11
349.275
21
-114.245
0
LINE
8
BLACK
6
CONTINUOUS
10
335.175
20
-114.245
11
335.175
21
-100.145
0
LINE
8
BLACK
6
CONTINUOUS
10
382.613
20
-152.345
11
368.513
21
-152.345
0
LINE
8
BLACK
6
CONTINUOUS
10
382.613
20
-138.245
11
382.613
21
-152.345
0
LINE
8
BLACK
6
CONTINUOUS
10
368.513
20
-138.245
11
382.613
21
-138.245
0
LINE
8
BLACK
6
CONTINUOUS
10
368.513
20
-152.345
11
368.513
21
-138.245
0
LINE
8
BLACK
6
CONTINUOUS
10
354.225
20
-100.145
11
368.325
21
-100.145
0
LINE
8
BLACK
6
CONTINUOUS
10
368.325
20
-100.145
11
368.325
21
-114.245
0
LINE
8
BLACK
6
CONTINUOUS
10
354.225
20
-114.245
11
354.225
21
-100.145
0
LINE
8
BLACK
6
CONTINUOUS
10
368.325
20
-114.245
11
354.225
21
-114.245
0
LINE
8
BLACK
6
CONTINUOUS
10
354.225
20
-157.295
11
368.325
21
-157.295
0
LINE
8
BLACK
6
CONTINUOUS
10
368.325
20
-157.295
11
368.325
21
-171.395
0
LINE
8
BLACK
6
CONTINUOUS
10
354.225
20
-171.395
11
354.225
21
-157.295
0
LINE
8
BLACK
6
CONTINUOUS
10
368.325
20
-171.395
11
354.225
21
-171.395
0
LINE
8
BLACK
6
CONTINUOUS
10
363.563
20
-152.345
11
349.463
21
-152.345
0
LINE
8
BLACK
6
CONTINUOUS
10
349.463
20
-138.245
11
363.563
21
-138.245
0
LINE
8
BLACK
6
CONTINUOUS
10
363.563
20
-138.245
11
363.563
21
-152.345
0
LINE
8
BLACK
6
CONTINUOUS
10
349.463
20
-152.345
11
349.463
21
-138.245
0
LINE
8
BLACK
6
CONTINUOUS
10
363.75
20
-119.195
11
377.85
21
-119.195
0
LINE
8
BLACK
6
CONTINUOUS
10
363.75
20
-133.295
11
363.75
21
-119.195
0
LINE
8
BLACK
6
CONTINUOUS
10
377.85
20
-133.295
11
363.75
21
-133.295
0
LINE
8
BLACK
6
CONTINUOUS
10
377.85
20
-119.195
11
377.85
21
-133.295
0
LINE
8
BLACK
6
CONTINUOUS
10
387.563
20
-152.345
11
387.563
21
-138.245
0
LINE
8
BLACK
6
CONTINUOUS
10
387.563
20
-138.245
11
401.663
21
-138.245
0
LINE
8
BLACK
6
CONTINUOUS
10
401.663
20
-152.345
11
387.563
21
-152.345
0
LINE
8
BLACK
6
CONTINUOUS
10
401.663
20
-138.245
11
401.663
21
-152.345
0
LINE
8
BLACK
6
CONTINUOUS
10
382.8
20
-119.195
11
396.9
21
-119.195
0
LINE
8
BLACK
6
CONTINUOUS
10
382.8
20
-133.295
11
382.8
21
-119.195
0
LINE
8
BLACK
6
CONTINUOUS
10
396.9
20
-133.295
11
382.8
21
-133.295
0
LINE
8
BLACK
6
CONTINUOUS
10
396.9
20
-119.195
11
396.9
21
-133.295
0
LINE
8
BLACK
6
CONTINUOUS
10
178.013
20
-152.345
11
178.013
21
-138.245
0
LINE
8
BLACK
6
CONTINUOUS
10
192.113
20
-152.345
11
178.013
21
-152.345
0
LINE
8
BLACK
6
CONTINUOUS
10
178.013
20
-138.245
11
192.113
21
-138.245
0
LINE
8
BLACK
6
CONTINUOUS
10
192.113
20
-138.245
11
192.113
21
-152.345
0
LINE
8
BLACK
6
CONTINUOUS
10
273.075
20
-157.295
11
273.075
21
-171.395
0
LINE
8
BLACK
6
CONTINUOUS
10
258.975
20
-171.395
11
258.975
21
-157.295
0
LINE
8
BLACK
6
CONTINUOUS
10
273.075
20
-171.395
11
258.975
21
-171.395
0
LINE
8
BLACK
6
CONTINUOUS
10
258.975
20
-157.295
11
273.075
21
-157.295
0
LINE
8
BLACK
6
CONTINUOUS
10
392.325
20
-100.145
11
406.425
21
-100.145
0
LINE
8
BLACK
6
CONTINUOUS
10
392.325
20
-114.245
11
392.325
21
-100.145
0
LINE
8
BLACK
6
CONTINUOUS
10
406.425
20
-114.245
11
392.325
21
-114.245
0
LINE
8
BLACK
6
CONTINUOUS
10
406.425
20
-100.145
11
406.425
21
-114.245
0
LINE
8
BLACK
6
CONTINUOUS
10
234.975
20
-171.395
11
220.875
21
-171.395
0
LINE
8
BLACK
6
CONTINUOUS
10
220.875
20
-157.295
11
234.975
21
-157.295
0
LINE
8
BLACK
6
CONTINUOUS
10
234.975
20
-157.295
11
234.975
21
-171.395
0
LINE
8
BLACK
6
CONTINUOUS
10
220.875
20
-171.395
11
220.875
21
-157.295
0
LINE
8
BLACK
6
CONTINUOUS
10
216.113
20
-138.245
11
230.213
21
-138.245
0
LINE
8
BLACK
6
CONTINUOUS
10
230.213
20
-152.345
11
216.113
21
-152.345
0
LINE
8
BLACK
6
CONTINUOUS
10
230.213
20
-138.245
11
230.213
21
-152.345
0
LINE
8
BLACK
6
CONTINUOUS
10
216.113
20
-152.345
11
216.113
21
-138.245
0
LINE
8
BLACK
6
CONTINUOUS
10
225.45
20
-119.195
11
225.45
21
-133.295
0
LINE
8
BLACK
6
CONTINUOUS
10
211.35
20
-119.195
11
225.45
21
-119.195
0
LINE
8
BLACK
6
CONTINUOUS
10
211.35
20
-133.295
11
211.35
21
-119.195
0
LINE
8
BLACK
6
CONTINUOUS
10
225.45
20
-133.295
11
211.35
21
-133.295
0
LINE
8
BLACK
6
CONTINUOUS
10
423.094
20
-142.82
11
408.994
21
-142.82
0
LINE
8
BLACK
6
CONTINUOUS
10
423.094
20
-128.72
11
423.094
21
-142.82
0
LINE
8
BLACK
6
CONTINUOUS
10
422.044
20
-151.17
11
422.044
21
-144.17
0
LINE
8
BLACK
6
CONTINUOUS
10
407.244
20
-151.17
11
422.044
21
-151.17
0
LINE
8
BLACK
6
CONTINUOUS
10
422.044
20
-120.37
11
422.044
21
-127.37
0
LINE
8
BLACK
6
CONTINUOUS
10
407.244
20
-127.37
11
407.244
21
-120.37
0
LINE
8
BLACK
6
CONTINUOUS
10
408.994
20
-128.72
11
423.094
21
-128.72
0
LINE
8
BLACK
6
CONTINUOUS
10
407.244
20
-144.17
11
407.244
21
-151.17
0
LINE
8
BLACK
6
CONTINUOUS
10
407.244
20
-120.37
11
422.044
21
-120.37
0
LINE
8
BLACK
6
CONTINUOUS
10
422.044
20
-144.17
11
407.244
21
-144.17
0
LINE
8
BLACK
6
CONTINUOUS
10
422.044
20
-127.37
11
407.244
21
-127.37
0
LINE
8
BLACK
6
CONTINUOUS
10
408.994
20
-142.82
11
408.994
21
-128.72
0
LINE
8
BLACK
6
CONTINUOUS
10
235.163
20
-138.245
11
249.263
21
-138.245
0
LINE
8
BLACK
6
CONTINUOUS
10
249.263
20
-138.245
11
249.263
21
-152.345
0
LINE
8
BLACK
6
CONTINUOUS
10
235.163
20
-152.345
11
235.163
21
-138.245
0
LINE
8
BLACK
6
CONTINUOUS
10
249.263
20
-152.345
11
235.163
21
-152.345
0
LINE
8
BLACK
6
CONTINUOUS
10
268.313
20
-138.245
11
268.313
21
-152.345
0
LINE
8
BLACK
6
CONTINUOUS
10
254.213
20
-152.345
11
254.213
21
-138.245
0
LINE
8
BLACK
6
CONTINUOUS
10
254.213
20
-138.245
11
268.313
21
-138.245
0
LINE
8
BLACK
6
CONTINUOUS
10
268.313
20
-152.345
11
254.213
21
-152.345
0
LINE
8
BLACK
6
CONTINUOUS
10
158.775
20
-114.245
11
144.675
21
-114.245
0
LINE
8
BLACK
6
CONTINUOUS
10
144.675
20
-114.245
11
144.675
21
-100.145
0
LINE
8
BLACK
6
CONTINUOUS
10
158.775
20
-100.145
11
158.775
21
-114.245
0
LINE
8
BLACK
6
CONTINUOUS
10
144.675
20
-100.145
11
158.775
21
-100.145
0
LINE
8
BLACK
6
CONTINUOUS
10
287.363
20
-138.245
11
287.363
21
-152.345
0
LINE
8
BLACK
6
CONTINUOUS
10
273.263
20
-152.345
11
273.263
21
-138.245
0
LINE
8
BLACK
6
CONTINUOUS
10
273.263
20
-138.245
11
287.363
21
-138.245
0
LINE
8
BLACK
6
CONTINUOUS
10
287.363
20
-152.345
11
273.263
21
-152.345
0
LINE
8
BLACK
6
CONTINUOUS
10
320.7
20
-133.295
11
306.6
21
-133.295
0
LINE
8
BLACK
6
CONTINUOUS
10
320.7
20
-119.195
11
320.7
21
-133.295
0
LINE
8
BLACK
6
CONTINUOUS
10
306.6
20
-119.195
11
320.7
21
-119.195
0
LINE
8
BLACK
6
CONTINUOUS
10
306.6
20
-133.295
11
306.6
21
-119.195
0
LINE
8
BLACK
6
CONTINUOUS
10
306.413
20
-138.245
11
306.413
21
-152.345
0
LINE
8
BLACK
6
CONTINUOUS
10
292.313
20
-138.245
11
306.413
21
-138.245
0
LINE
8
BLACK
6
CONTINUOUS
10
306.413
20
-152.345
11
292.313
21
-152.345
0
LINE
8
BLACK
6
CONTINUOUS
10
292.313
20
-152.345
11
292.313
21
-138.245
0
LINE
8
BLACK
6
CONTINUOUS
10
325.463
20
-152.345
11
311.363
21
-152.345
0
LINE
8
BLACK
6
CONTINUOUS
10
311.363
20
-138.245
11
325.463
21
-138.245
0
LINE
8
BLACK
6
CONTINUOUS
10
311.363
20
-152.345
11
311.363
21
-138.245
0
LINE
8
BLACK
6
CONTINUOUS
10
325.463
20
-138.245
11
325.463
21
-152.345
0
LINE
8
BLACK
6
CONTINUOUS
10
330.413
20
-138.245
11
344.513
21
-138.245
0
LINE
8
BLACK
6
CONTINUOUS
10
344.513
20
-152.345
11
330.413
21
-152.345
0
LINE
8
BLACK
6
CONTINUOUS
10
344.513
20
-138.245
11
344.513
21
-152.345
0
LINE
8
BLACK
6
CONTINUOUS
10
330.413
20
-152.345
11
330.413
21
-138.245
0
LINE
8
BLACK
6
CONTINUOUS
10
220.688
20
-190.445
11
206.588
21
-190.445
0
LINE
8
BLACK
6
CONTINUOUS
10
206.588
20
-190.445
11
206.588
21
-176.345
0
LINE
8
BLACK
6
CONTINUOUS
10
206.588
20
-176.345
11
220.688
21
-176.345
0
LINE
8
BLACK
6
CONTINUOUS
10
220.688
20
-176.345
11
220.688
21
-190.445
0
LINE
8
BLACK
6
CONTINUOUS
10
158.775
20
-176.345
11
158.775
21
-190.445
0
LINE
8
BLACK
6
CONTINUOUS
10
144.675
20
-176.345
11
158.775
21
-176.345
0
LINE
8
BLACK
6
CONTINUOUS
10
158.775
20
-190.445
11
144.675
21
-190.445
0
LINE
8
BLACK
6
CONTINUOUS
10
144.675
20
-190.445
11
144.675
21
-176.345
0
LINE
8
BLACK
6
CONTINUOUS
10
145.85
20
-158.345
11
152.85
21
-158.345
0
LINE
8
BLACK
6
CONTINUOUS
10
176.65
20
-173.145
11
176.65
21
-158.345
0
LINE
8
BLACK
6
CONTINUOUS
10
145.85
20
-173.145
11
145.85
21
-158.345
0
LINE
8
BLACK
6
CONTINUOUS
10
169.65
20
-173.145
11
176.65
21
-173.145
0
LINE
8
BLACK
6
CONTINUOUS
10
154.2
20
-157.295
11
168.3
21
-157.295
0
LINE
8
BLACK
6
CONTINUOUS
10
152.85
20
-158.345
11
152.85
21
-173.145
0
LINE
8
BLACK
6
CONTINUOUS
10
168.3
20
-171.395
11
154.2
21
-171.395
0
LINE
8
BLACK
6
CONTINUOUS
10
152.85
20
-173.145
11
145.85
21
-173.145
0
LINE
8
BLACK
6
CONTINUOUS
10
168.3
20
-157.295
11
168.3
21
-171.395
0
LINE
8
BLACK
6
CONTINUOUS
10
176.65
20
-158.345
11
169.65
21
-158.345
0
LINE
8
BLACK
6
CONTINUOUS
10
154.2
20
-171.395
11
154.2
21
-157.295
0
LINE
8
BLACK
6
CONTINUOUS
10
169.65
20
-158.345
11
169.65
21
-173.145
0
LINE
8
BLACK
6
CONTINUOUS
10
297.075
20
-157.295
11
311.175
21
-157.295
0
LINE
8
BLACK
6
CONTINUOUS
10
311.175
20
-157.295
11
311.175
21
-171.395
0
LINE
8
BLACK
6
CONTINUOUS
10
311.175
20
-171.395
11
297.075
21
-171.395
0
LINE
8
BLACK
6
CONTINUOUS
10
297.075
20
-171.395
11
297.075
21
-157.295
0
LINE
8
BLACK
6
CONTINUOUS
10
278.025
20
-171.395
11
278.025
21
-157.295
0
LINE
8
BLACK
6
CONTINUOUS
10
278.025
20
-157.295
11
292.125
21
-157.295
0
LINE
8
BLACK
6
CONTINUOUS
10
292.125
20
-171.395
11
278.025
21
-171.395
0
LINE
8
BLACK
6
CONTINUOUS
10
292.125
20
-157.295
11
292.125
21
-171.395
0
LINE
8
BLACK
6
CONTINUOUS
10
339.75
20
-133.295
11
325.65
21
-133.295
0
LINE
8
BLACK
6
CONTINUOUS
10
325.65
20
-119.195
11
339.75
21
-119.195
0
LINE
8
BLACK
6
CONTINUOUS
10
325.65
20
-133.295
11
325.65
21
-119.195
0
LINE
8
BLACK
6
CONTINUOUS
10
339.75
20
-119.195
11
339.75
21
-133.295
0
LINE
8
BLACK
6
CONTINUOUS
10
358.8
20
-119.195
11
358.8
21
-133.295
0
LINE
8
BLACK
6
CONTINUOUS
10
344.7
20
-133.295
11
344.7
21
-119.195
0
LINE
8
BLACK
6
CONTINUOUS
10
344.7
20
-119.195
11
358.8
21
-119.195
0
LINE
8
BLACK
6
CONTINUOUS
10
358.8
20
-133.295
11
344.7
21
-133.295
0
LINE
8
BLACK
6
CONTINUOUS
10
230.4
20
-119.195
11
244.5
21
-119.195
0
LINE
8
BLACK
6
CONTINUOUS
10
244.5
20
-119.195
11
244.5
21
-133.295
0
LINE
8
BLACK
6
CONTINUOUS
10
230.4
20
-133.295
11
230.4
21
-119.195
0
LINE
8
BLACK
6
CONTINUOUS
10
244.5
20
-133.295
11
230.4
21
-133.295
0
LINE
8
BLACK
6
CONTINUOUS
10
387.375
20
-190.445
11
373.275
21
-190.445
0
LINE
8
BLACK
6
CONTINUOUS
10
373.275
20
-176.345
11
387.375
21
-176.345
0
LINE
8
BLACK
6
CONTINUOUS
10
373.275
20
-190.445
11
373.275
21
-176.345
0
LINE
8
BLACK
6
CONTINUOUS
10
387.375
20
-176.345
11
387.375
21
-190.445
0
LINE
8
BLACK
6
CONTINUOUS
10
411.375
20
-190.445
11
411.375
21
-176.345
0
LINE
8
BLACK
6
CONTINUOUS
10
425.475
20
-190.445
11
411.375
21
-190.445
0
LINE
8
BLACK
6
CONTINUOUS
10
425.475
20
-176.345
11
425.475
21
-190.445
0
LINE
8
BLACK
6
CONTINUOUS
10
411.375
20
-176.345
11
425.475
21
-176.345
0
LINE
8
BLACK
6
CONTINUOUS
10
425.475
20
-171.395
11
411.375
21
-171.395
0
LINE
8
BLACK
6
CONTINUOUS
10
411.375
20
-157.295
11
425.475
21
-157.295
0
LINE
8
BLACK
6
CONTINUOUS
10
425.475
20
-157.295
11
425.475
21
-171.395
0
LINE
8
BLACK
6
CONTINUOUS
10
411.375
20
-171.395
11
411.375
21
-157.295
0
LINE
8
BLACK
6
CONTINUOUS
10
197.063
20
-138.245
11
211.163
21
-138.245
0
LINE
8
BLACK
6
CONTINUOUS
10
211.163
20
-138.245
11
211.163
21
-152.345
0
LINE
8
BLACK
6
CONTINUOUS
10
197.063
20
-152.345
11
197.063
21
-138.245
0
LINE
8
BLACK
6
CONTINUOUS
10
211.163
20
-152.345
11
197.063
21
-152.345
0
LINE
8
BLACK
6
CONTINUOUS
10
263.55
20
-119.195
11
263.55
21
-133.295
0
LINE
8
BLACK
6
CONTINUOUS
10
249.45
20
-133.295
11
249.45
21
-119.195
0
LINE
8
BLACK
6
CONTINUOUS
10
249.45
20
-119.195
11
263.55
21
-119.195
0
LINE
8
BLACK
6
CONTINUOUS
10
263.55
20
-133.295
11
249.45
21
-133.295
0
LINE
8
BLACK
6
CONTINUOUS
10
163.538
20
-133.295
11
149.438
21
-133.295
0
LINE
8
BLACK
6
CONTINUOUS
10
163.538
20
-119.195
11
163.538
21
-133.295
0
LINE
8
BLACK
6
CONTINUOUS
10
149.438
20
-133.295
11
149.438
21
-119.195
0
LINE
8
BLACK
6
CONTINUOUS
10
149.438
20
-119.195
11
163.538
21
-119.195
0
LINE
8
BLACK
6
CONTINUOUS
10
287.55
20
-119.195
11
301.65
21
-119.195
0
LINE
8
BLACK
6
CONTINUOUS
10
301.65
20
-119.195
11
301.65
21
-133.295
0
LINE
8
BLACK
6
CONTINUOUS
10
301.65
20
-133.295
11
287.55
21
-133.295
0
LINE
8
BLACK
6
CONTINUOUS
10
287.55
20
-133.295
11
287.55
21
-119.195
0
LINE
8
BLACK
6
CONTINUOUS
10
239.925
20
-171.395
11
239.925
21
-157.295
0
LINE
8
BLACK
6
CONTINUOUS
10
254.025
20
-171.395
11
239.925
21
-171.395
0
LINE
8
BLACK
6
CONTINUOUS
10
239.925
20
-157.295
11
254.025
21
-157.295
0
LINE
8
BLACK
6
CONTINUOUS
10
254.025
20
-157.295
11
254.025
21
-171.395
0
LINE
8
BLACK
6
CONTINUOUS
10
201.825
20
-157.295
11
215.925
21
-157.295
0
LINE
8
BLACK
6
CONTINUOUS
10
201.825
20
-171.395
11
201.825
21
-157.295
0
LINE
8
BLACK
6
CONTINUOUS
10
215.925
20
-157.295
11
215.925
21
-171.395
0
LINE
8
BLACK
6
CONTINUOUS
10
215.925
20
-171.395
11
201.825
21
-171.395
0
LINE
8
BLACK
6
CONTINUOUS
10
282.6
20
-119.195
11
282.6
21
-133.295
0
LINE
8
BLACK
6
CONTINUOUS
10
282.6
20
-133.295
11
268.5
21
-133.295
0
LINE
8
BLACK
6
CONTINUOUS
10
268.5
20
-119.195
11
282.6
21
-119.195
0
LINE
8
BLACK
6
CONTINUOUS
10
268.5
20
-133.295
11
268.5
21
-119.195
0
LINE
8
BLACK
6
CONTINUOUS
10
182.775
20
-157.295
11
196.875
21
-157.295
0
LINE
8
BLACK
6
CONTINUOUS
10
196.875
20
-157.295
11
196.875
21
-171.395
0
LINE
8
BLACK
6
CONTINUOUS
10
182.775
20
-171.395
11
182.775
21
-157.295
0
LINE
8
BLACK
6
CONTINUOUS
10
196.875
20
-171.395
11
182.775
21
-171.395
0
LINE
8
BLACK
6
CONTINUOUS
10
392.325
20
-176.345
11
406.425
21
-176.345
0
LINE
8
BLACK
6
CONTINUOUS
10
392.325
20
-190.445
11
392.325
21
-176.345
0
LINE
8
BLACK
6
CONTINUOUS
10
406.425
20
-190.445
11
392.325
21
-190.445
0
LINE
8
BLACK
6
CONTINUOUS
10
406.425
20
-176.345
11
406.425
21
-190.445
0
LINE
8
BLACK
6
CONTINUOUS
10
373.275
20
-171.395
11
373.275
21
-157.295
0
LINE
8
BLACK
6
CONTINUOUS
10
387.375
20
-171.395
11
373.275
21
-171.395
0
LINE
8
BLACK
6
CONTINUOUS
10
387.375
20
-157.295
11
387.375
21
-171.395
0
LINE
8
BLACK
6
CONTINUOUS
10
373.275
20
-157.295
11
387.375
21
-157.295
0
LINE
8
BLACK
6
CONTINUOUS
10
411.375
20
-114.245
11
411.375
21
-100.145
0
LINE
8
BLACK
6
CONTINUOUS
10
411.375
20
-100.145
11
425.475
21
-100.145
0
LINE
8
BLACK
6
CONTINUOUS
10
425.475
20
-114.245
11
411.375
21
-114.245
0
LINE
8
BLACK
6
CONTINUOUS
10
425.475
20
-100.145
11
425.475
21
-114.245
0
LINE
8
BLACK
6
CONTINUOUS
10
192.3
20
-133.295
11
192.3
21
-119.195
0
LINE
8
BLACK
6
CONTINUOUS
10
192.3
20
-119.195
11
206.4
21
-119.195
0
LINE
8
BLACK
6
CONTINUOUS
10
206.4
20
-119.195
11
206.4
21
-133.295
0
LINE
8
BLACK
6
CONTINUOUS
10
206.4
20
-133.295
11
192.3
21
-133.295
0
LINE
8
BLACK
6
CONTINUOUS
10
173.25
20
-133.295
11
173.25
21
-119.195
0
LINE
8
BLACK
6
CONTINUOUS
10
187.35
20
-119.195
11
187.35
21
-133.295
0
LINE
8
BLACK
6
CONTINUOUS
10
173.25
20
-119.195
11
187.35
21
-119.195
0
LINE
8
BLACK
6
CONTINUOUS
10
187.35
20
-133.295
11
173.25
21
-133.295
0
LINE
8
BLACK
6
CONTINUOUS
10
165.919
20
-138.245
11
165.919
21
-152.345
0
LINE
8
BLACK
6
CONTINUOUS
10
151.819
20
-138.245
11
165.919
21
-138.245
0
LINE
8
BLACK
6
CONTINUOUS
10
165.919
20
-152.345
11
151.819
21
-152.345
0
LINE
8
BLACK
6
CONTINUOUS
10
151.819
20
-152.345
11
151.819
21
-138.245
0
LINE
8
BLACK
6
CONTINUOUS
10
225.638
20
-190.445
11
225.638
21
-176.345
0
LINE
8
BLACK
6
CONTINUOUS
10
239.738
20
-176.345
11
239.738
21
-190.445
0
LINE
8
BLACK
6
CONTINUOUS
10
225.638
20
-176.345
11
239.738
21
-176.345
0
LINE
8
BLACK
6
CONTINUOUS
10
239.738
20
-190.445
11
225.638
21
-190.445
0
LINE
8
BLACK
6
CONTINUOUS
10
373.275
20
-100.145
11
387.375
21
-100.145
0
LINE
8
BLACK
6
CONTINUOUS
10
373.275
20
-114.245
11
373.275
21
-100.145
0
LINE
8
BLACK
6
CONTINUOUS
10
387.375
20
-100.145
11
387.375
21
-114.245
0
LINE
8
BLACK
6
CONTINUOUS
10
387.375
20
-114.245
11
373.275
21
-114.245
0
LINE
8
BLACK
6
CONTINUOUS
10
292.313
20
-190.445
11
292.313
21
-176.345
0
LINE
8
BLACK
6
CONTINUOUS
10
306.413
20
-176.345
11
306.413
21
-190.445
0
LINE
8
BLACK
6
CONTINUOUS
10
292.313
20
-176.345
11
306.413
21
-176.345
0
LINE
8
BLACK
6
CONTINUOUS
10
306.413
20
-190.445
11
292.313
21
-190.445
0
LINE
8
BLACK
6
CONTINUOUS
10
325.463
20
-176.345
11
325.463
21
-190.445
0
LINE
8
BLACK
6
CONTINUOUS
10
311.363
20
-190.445
11
311.363
21
-176.345
0
LINE
8
BLACK
6
CONTINUOUS
10
311.363
20
-176.345
11
325.463
21
-176.345
0
LINE
8
BLACK
6
CONTINUOUS
10
325.463
20
-190.445
11
311.363
21
-190.445
0
LINE
8
BLACK
6
CONTINUOUS
10
406.425
20
-157.295
11
406.425
21
-171.395
0
LINE
8
BLACK
6
CONTINUOUS
10
406.425
20
-171.395
11
392.325
21
-171.395
0
LINE
8
BLACK
6
CONTINUOUS
10
392.325
20
-171.395
11
392.325
21
-157.295
0
LINE
8
BLACK
6
CONTINUOUS
10
392.325
20
-157.295
11
406.425
21
-157.295
0
LINE
8
BLACK
6
CONTINUOUS
10
284.981
20
-190.445
11
270.881
21
-190.445
0
LINE
8
BLACK
6
CONTINUOUS
10
270.881
20
-190.445
11
270.881
21
-176.345
0
LINE
8
BLACK
6
CONTINUOUS
10
270.881
20
-176.345
11
284.981
21
-176.345
0
LINE
8
BLACK
6
CONTINUOUS
10
284.981
20
-176.345
11
284.981
21
-190.445
0
LINE
8
BLACK
6
CONTINUOUS
10
261.169
20
-176.345
11
261.169
21
-190.445
0
LINE
8
BLACK
6
CONTINUOUS
10
261.169
20
-190.445
11
247.069
21
-190.445
0
LINE
8
BLACK
6
CONTINUOUS
10
247.069
20
-190.445
11
247.069
21
-176.345
0
LINE
8
BLACK
6
CONTINUOUS
10
247.069
20
-176.345
11
261.169
21
-176.345
  0
ENDSEC
  0
EOF
