  0
SECTION
  2
HEADER
  9
$ANGBASE
  50
0.0
  9
$ANGDIR
  70
1
  9
$MEASUREMENT
  70
1
  0
ENDSEC
  0
SECTION
  2
TABLES
  0
TABLE
  2
LTYPE
  70
4
  0
LTYPE
  5
40F
  2
CONTINUOUS
  70
0
  3
Solid line
  72
65
  73
0
  40
0.0
  0
LTYPE
  5
410
  2
DASHDOT
 70
0
  3
Dash Dot ____ _ ____ _
 72
65
 73
4
 40
2.0
 49
1.25
 49
-0.25
 49
0.25
 49
-0.25
  0
LTYPE
  5
411
  2
DASHED
 70
0
  3
Dashed __ __ __ __ __
 72
65
 73
2
 40
0.75
 49
0.5
 49
-0.25
  0
LTYPE
  5
43B
  2
DOTTED
 70
0
  3
Dotted .  .  .  .
 72
65
 73
2
 40
0.2
 49
0.0
 49
-0.2
  0
ENDTAB
  0
TABLE
  2
STYLE
  70
4
  0
STYLE
  2
KICAD
  70
0
  40
0
  41
1
  42
1
  50
0
  71
0
  3
isocp.shx
  0
STYLE
  2
KICADB
  70
0
  40
0
  41
1
  42
1
  50
0
  71
0
  3
isocp.shx
  0
STYLE
  2
KICADI
  70
0
  40
0
  41
1
  42
1
  50
15
  71
0
  3
isocp.shx
  0
STYLE
  2
KICADBI
  70
0
  40
0
  41
1
  42
1
  50
15
  71
0
  3
isocp.shx
  0
ENDTAB
  0
TABLE
  2
LAYER
  70
1
  0
LAYER
  2
BLACK
  70
0
  62
7
  6
CONTINUOUS
  0
ENDTAB
  0
ENDSEC
  0
SECTION
  2
ENTITIES
0
LINE
8
BLACK
6
CONTINUOUS
10
424.832
20
-309.09
11
424.832
21
-307.59
0
ARC
8
BLACK
10
174.575
20
-208
40
2.00004
50
0.00108859
51
89.9987
0
ARC
8
BLACK
10
410.175
20
-305.59
40
0.999954
50
89.9974
51
179.999
0
ARC
8
BLACK
10
369.968
20
-309.09
40
1.00002
50
-179.999
51
-90.0019
0
LINE
8
BLACK
6
CONTINUOUS
10
231.225
20
-208
11
181.125
21
-208
0
ARC
8
BLACK
10
333.525
20
-207
40
0.999954
50
89.9974
51
179.998
0
LINE
8
BLACK
6
CONTINUOUS
10
308.425
20
-207
11
308.425
21
-207
0
LINE
8
BLACK
6
CONTINUOUS
10
181.125
20
-206
11
195.232
21
-206
0
LINE
8
BLACK
6
CONTINUOUS
10
236.225
20
-304.59
11
236.225
21
-304.59
0
ARC
8
BLACK
10
322.618
20
-201.5
40
0.999962
50
-135.576
51
-90.0014
0
LINE
8
BLACK
6
CONTINUOUS
10
156.475
20
-305.59
11
156.475
21
-305.59
0
LINE
8
BLACK
6
CONTINUOUS
10
235.775
20
-208
11
235.775
21
-208
0
LINE
8
BLACK
6
CONTINUOUS
10
216.568
20
-307.59
11
216.568
21
-309.09
0
ARC
8
BLACK
10
394.533
20
-201.5
40
0.999986
50
-89.999
51
-44.4248
0
LINE
8
BLACK
6
CONTINUOUS
10
256.775
20
-305.59
11
256.775
21
-305.59
0
LINE
8
BLACK
6
CONTINUOUS
10
161.025
20
-303.59
11
176.025
21
-303.59
0
ARC
8
BLACK
10
369.968
20
-205
40
0.999962
50
-180.002
51
-90.0019
0
ARC
8
BLACK
10
141.368
20
-203.5
40
1.00003
50
90.0019
51
179.998
0
ARC
8
BLACK
10
314.425
20
-304.59
40
2.00002
50
-180
51
-89.9987
0
ARC
8
BLACK
10
252.225
20
-304.59
40
1.00001
50
0.000630225
51
89.9974
0
LINE
8
BLACK
6
CONTINUOUS
10
388.625
20
-304.59
11
388.625
21
-304.59
0
ARC
8
BLACK
10
307.425
20
-207
40
1.00004
50
0.00217714
51
89.9974
0
LINE
8
BLACK
6
CONTINUOUS
10
253.225
20
-304.59
11
253.225
21
-304.59
0
LINE
8
BLACK
6
CONTINUOUS
10
232.675
20
-305.59
11
232.675
21
-305.59
0
ARC
8
BLACK
10
231.225
20
-207
40
1.00005
50
-89.9974
51
0.000630225
0
ARC
8
BLACK
10
217.568
20
-309.09
40
1.00002
50
-179.999
51
-90.0019
0
ARC
8
BLACK
10
423.832
20
-205
40
1.00002
50
-89.9986
51
0.00217719
0
LINE
8
BLACK
6
CONTINUOUS
10
312.425
20
-304.59
11
312.425
21
-304.59
0
LINE
8
BLACK
6
CONTINUOUS
10
332.975
20
-305.59
11
332.975
21
-305.59
0
ARC
8
BLACK
10
409.725
20
-207
40
0.999954
50
89.9974
51
179.998
0
ARC
8
BLACK
10
160.575
20
-208
40
0.999989
50
-180.001
51
-89.9974
0
LINE
8
BLACK
6
CONTINUOUS
10
399.267
20
-310.09
11
423.832
21
-310.09
0
LINE
8
BLACK
6
CONTINUOUS
10
177.025
20
-304.59
11
177.025
21
-304.59
0
ARC
8
BLACK
10
162.025
20
-304.59
40
2.00002
50
-180
51
-89.9987
0
CIRCLE
8
BLACK
10
397.125
20
-308.99
40
1.05
0
ARC
8
BLACK
10
327.425
20
-304.59
40
2.00005
50
-89.9987
51
-0.000458356
0
LINE
8
BLACK
6
CONTINUOUS
10
271.432
20
-306.59
11
257.775
21
-306.59
0
LINE
8
BLACK
6
CONTINUOUS
10
368.968
20
-203.5
11
368.968
21
-205
0
LINE
8
BLACK
6
CONTINUOUS
10
251.225
20
-306.59
11
238.225
21
-306.59
0
ARC
8
BLACK
10
307.425
20
-207
40
1.00005
50
-89.9974
51
0.000630225
0
LINE
8
BLACK
6
CONTINUOUS
10
347.632
20
-306.59
11
333.975
21
-306.59
0
LINE
8
BLACK
6
CONTINUOUS
10
333.975
20
-304.59
11
384.075
21
-304.59
0
ARC
8
BLACK
10
175.025
20
-304.59
40
2.00005
50
-89.9987
51
-0.000458356
0
LINE
8
BLACK
6
CONTINUOUS
10
196.232
20
-205
11
196.232
21
-203.5
0
ARC
8
BLACK
10
141.5
20
-302.59
40
1.99999
50
-180
51
-89.9987
0
LINE
8
BLACK
6
CONTINUOUS
10
155.475
20
-306.59
11
141.368
21
-306.59
0
ARC
8
BLACK
10
242.133
20
-201.5
40
0.999986
50
-89.999
51
-44.4248
0
LINE
8
BLACK
6
CONTINUOUS
10
390.175
20
-206
11
403.175
21
-206
0
ARC
8
BLACK
10
318.333
20
-201.5
40
0.999986
50
-89.999
51
-44.4248
0
ARC
8
BLACK
10
293.768
20
-205
40
0.999962
50
-180.002
51
-90.0019
0
LINE
8
BLACK
6
CONTINUOUS
10
388.175
20
-208
11
388.175
21
-208
0
ARC
8
BLACK
10
246.867
20
-311.09
40
1.00001
50
90.0014
51
135.575
0
ARC
8
BLACK
10
271.432
20
-307.59
40
0.999984
50
-0.00091671
51
89.9986
0
ARC
8
BLACK
10
195.232
20
-203.5
40
1.00004
50
0.00217719
51
89.9986
0
LINE
8
BLACK
6
CONTINUOUS
10
217.568
20
-310.09
11
242.583
21
-310.09
0
ARC
8
BLACK
10
170.667
20
-311.09
40
1.00001
50
90.0014
51
135.575
0
ARC
8
BLACK
10
389.175
20
-208
40
0.999989
50
-180.001
51
-89.9974
0
ARC
8
BLACK
10
161.025
20
-304.59
40
0.999954
50
89.9974
51
179.999
0
LINE
8
BLACK
6
CONTINUOUS
10
394.533
20
-202.5
11
369.968
21
-202.5
0
LINE
8
BLACK
6
CONTINUOUS
10
384.625
20
-207
11
384.625
21
-207
0
LINE
8
BLACK
6
CONTINUOUS
10
318.333
20
-202.5
11
293.768
21
-202.5
0
LINE
8
BLACK
6
CONTINUOUS
10
141.368
20
-310.09
11
166.383
21
-310.09
0
LINE
8
BLACK
6
CONTINUOUS
10
384.075
20
-306.59
11
369.968
21
-306.59
0
ARC
8
BLACK
10
390.625
20
-304.59
40
2.00002
50
-180
51
-89.9987
0
LINE
8
BLACK
6
CONTINUOUS
10
403.625
20
-306.59
11
390.625
21
-306.59
0
ARC
8
BLACK
10
347.632
20
-307.59
40
0.999984
50
-0.00091671
51
89.9986
0
LINE
8
BLACK
6
CONTINUOUS
10
425.25
20
-302.59
11
425.25
21
-210
0
ARC
8
BLACK
10
313.425
20
-304.59
40
0.999954
50
89.9974
51
179.999
0
ARC
8
BLACK
10
318.783
20
-311.09
40
0.999984
50
44.4257
51
89.999
0
LINE
8
BLACK
6
CONTINUOUS
10
140.368
20
-307.59
11
140.368
21
-309.09
0
ARC
8
BLACK
10
217.568
20
-307.59
40
1.00003
50
-269.998
51
-179.999
0
ARC
8
BLACK
10
257.775
20
-305.59
40
1.00002
50
-179.999
51
-89.9974
0
LINE
8
BLACK
6
CONTINUOUS
10
246.867
20
-310.09
11
271.432
21
-310.09
0
ARC
8
BLACK
10
238.225
20
-304.59
40
2.00002
50
-180
51
-89.9987
0
LINE
8
BLACK
6
CONTINUOUS
10
348.632
20
-205
11
348.632
21
-203.5
0
ARC
8
BLACK
10
176.025
20
-304.59
40
1.00001
50
0.000630225
51
89.9974
0
ARC
8
BLACK
10
423.832
20
-309.09
40
1.00002
50
-89.9986
51
-0.00091671
0
ARC
8
BLACK
10
217.568
20
-205
40
0.999962
50
-180.002
51
-90.0019
0
LINE
8
BLACK
6
CONTINUOUS
10
308.875
20
-305.59
11
308.875
21
-305.59
0
LINE
8
BLACK
6
CONTINUOUS
10
252.775
20
-208
11
252.775
21
-208
0
LINE
8
BLACK
6
CONTINUOUS
10
307.425
20
-208
11
257.325
21
-208
0
ARC
8
BLACK
10
423.25
20
-210
40
2.00001
50
0.00031512
51
89.9987
0
ARC
8
BLACK
10
170.218
20
-201.5
40
0.999962
50
-135.576
51
-90.0014
0
LINE
8
BLACK
6
CONTINUOUS
10
272.432
20
-205
11
272.432
21
-203.5
0
ARC
8
BLACK
10
155.025
20
-207
40
1.00005
50
-89.9974
51
0.000630225
0
LINE
8
BLACK
6
CONTINUOUS
10
389.625
20
-303.59
11
404.625
21
-303.59
0
ARC
8
BLACK
10
409.725
20
-207
40
0.999989
50
-180.001
51
-89.9974
0
LINE
8
BLACK
6
CONTINUOUS
10
257.325
20
-206
11
271.432
21
-206
0
LINE
8
BLACK
6
CONTINUOUS
10
141.368
20
-206
11
155.025
21
-206
0
LINE
8
BLACK
6
CONTINUOUS
10
313.975
20
-206
11
326.975
21
-206
0
LINE
8
BLACK
6
CONTINUOUS
10
256.325
20
-207
11
256.325
21
-207
0
ARC
8
BLACK
10
141.5
20
-210
40
1.99995
50
89.9987
51
180
0
ARC
8
BLACK
10
236.775
20
-208
40
0.999989
50
-180.001
51
-89.9974
0
LINE
8
BLACK
6
CONTINUOUS
10
237.775
20
-206
11
250.775
21
-206
0
ARC
8
BLACK
10
323.067
20
-311.09
40
1.00001
50
90.0014
51
135.575
0
ARC
8
BLACK
10
155.475
20
-305.59
40
1.00001
50
0.000630225
51
89.9974
0
ARC
8
BLACK
10
347.632
20
-205
40
1.00002
50
-89.9986
51
0.00217719
0
ARC
8
BLACK
10
293.768
20
-309.09
40
1.00002
50
-179.999
51
-90.0019
0
LINE
8
BLACK
6
CONTINUOUS
10
195.232
20
-202.5
11
170.217
21
-202.5
0
ARC
8
BLACK
10
307.875
20
-305.59
40
1.00005
50
-89.9972
51
-0.000916688
0
ARC
8
BLACK
10
242.583
20
-311.09
40
0.999984
50
44.4257
51
89.999
0
LINE
8
BLACK
6
CONTINUOUS
10
293.768
20
-310.09
11
318.783
21
-310.09
0
ARC
8
BLACK
10
327.975
20
-208
40
1.00005
50
-89.9974
51
0.000630225
0
ARC
8
BLACK
10
399.267
20
-311.09
40
1.00001
50
90.0014
51
135.575
0
LINE
8
BLACK
6
CONTINUOUS
10
327.975
20
-209
11
312.975
21
-209
0
ARC
8
BLACK
10
251.775
20
-208
40
1.00005
50
-89.9974
51
0.000630225
0
ARC
8
BLACK
10
195.232
20
-205
40
1.00002
50
-89.9986
51
0.00217719
0
LINE
8
BLACK
6
CONTINUOUS
10
175.025
20
-306.59
11
162.025
21
-306.59
0
ARC
8
BLACK
10
333.975
20
-305.59
40
0.999954
50
89.9974
51
179.999
0
ARC
8
BLACK
10
403.175
20
-208
40
2.00004
50
0.00108859
51
89.9987
0
ARC
8
BLACK
10
161.575
20
-208
40
1.99995
50
89.9987
51
179.999
0
LINE
8
BLACK
6
CONTINUOUS
10
175.575
20
-209
11
160.575
21
-209
0
ARC
8
BLACK
10
326.975
20
-208
40
2.00004
50
0.00108859
51
89.9987
0
ARC
8
BLACK
10
390.175
20
-208
40
1.99995
50
89.9987
51
179.999
0
LINE
8
BLACK
6
CONTINUOUS
10
332.525
20
-207
11
332.525
21
-207
0
ARC
8
BLACK
10
320.475
20
-203.6
40
2
50
44.427
51
135.573
0
LINE
8
BLACK
6
CONTINUOUS
10
409.725
20
-206
11
423.832
21
-206
0
LINE
8
BLACK
6
CONTINUOUS
10
313.425
20
-303.59
11
328.425
21
-303.59
0
ARC
8
BLACK
10
423.832
20
-307.59
40
0.999984
50
-0.00091671
51
89.9986
0
LINE
8
BLACK
6
CONTINUOUS
10
409.175
20
-305.59
11
409.175
21
-305.59
0
LINE
8
BLACK
6
CONTINUOUS
10
170.667
20
-310.09
11
195.232
21
-310.09
0
CIRCLE
8
BLACK
10
320.475
20
-203.6
40
1.05
0
LINE
8
BLACK
6
CONTINUOUS
10
383.625
20
-208
11
333.525
21
-208
0
ARC
8
BLACK
10
328.425
20
-304.59
40
1.00001
50
0.000630225
51
89.9974
0
ARC
8
BLACK
10
244.725
20
-308.99
40
2
50
-135.573
51
-44.427
0
LINE
8
BLACK
6
CONTINUOUS
10
195.232
20
-306.59
11
181.575
21
-306.59
0
LINE
8
BLACK
6
CONTINUOUS
10
176.575
20
-208
11
176.575
21
-208
0
ARC
8
BLACK
10
257.325
20
-207
40
0.999989
50
-180.001
51
-89.9975
0
ARC
8
BLACK
10
244.275
20
-203.6
40
2
50
44.427
51
135.573
0
ARC
8
BLACK
10
383.625
20
-207
40
1.00004
50
0.00217714
51
89.9974
0
ARC
8
BLACK
10
312.975
20
-208
40
0.999989
50
-180.001
51
-89.9974
0
ARC
8
BLACK
10
195.232
20
-309.09
40
1.00002
50
-89.9986
51
-0.00091671
0
LINE
8
BLACK
6
CONTINUOUS
10
196.232
20
-309.09
11
196.232
21
-307.59
0
LINE
8
BLACK
6
CONTINUOUS
10
180.575
20
-305.59
11
180.575
21
-305.59
0
ARC
8
BLACK
10
384.075
20
-305.59
40
1.00005
50
-89.9974
51
-0.00091669
0
ARC
8
BLACK
10
383.625
20
-207
40
1.00005
50
-89.9974
51
0.000630225
0
ARC
8
BLACK
10
141.368
20
-307.59
40
1.00003
50
-269.998
51
-179.999
0
ARC
8
BLACK
10
217.568
20
-203.5
40
1.00003
50
90.0019
51
179.998
0
LINE
8
BLACK
6
CONTINUOUS
10
424.832
20
-205
11
424.832
21
-203.5
0
LINE
8
BLACK
6
CONTINUOUS
10
311.975
20
-208
11
311.975
21
-208
0
LINE
8
BLACK
6
CONTINUOUS
10
423.832
20
-306.59
11
410.175
21
-306.59
0
ARC
8
BLACK
10
320.925
20
-308.99
40
2
50
-135.573
51
-44.427
0
LINE
8
BLACK
6
CONTINUOUS
10
181.575
20
-304.59
11
231.675
21
-304.59
0
ARC
8
BLACK
10
423.25
20
-302.59
40
2.00005
50
-89.9987
51
0.00031512
0
ARC
8
BLACK
10
257.775
20
-305.59
40
0.999954
50
89.9974
51
179.999
0
ARC
8
BLACK
10
155.025
20
-207
40
1.00004
50
0.00217714
51
89.9974
0
LINE
8
BLACK
6
CONTINUOUS
10
328.975
20
-208
11
328.975
21
-208
0
ARC
8
BLACK
10
333.975
20
-305.59
40
1.00002
50
-179.999
51
-89.9974
0
ARC
8
BLACK
10
271.432
20
-203.5
40
1.00004
50
0.00217719
51
89.9986
0
LINE
8
BLACK
6
CONTINUOUS
10
180.125
20
-207
11
180.125
21
-207
0
ARC
8
BLACK
10
181.575
20
-305.59
40
1.00002
50
-179.999
51
-89.9974
0
ARC
8
BLACK
10
313.975
20
-208
40
1.99995
50
89.9987
51
179.999
0
LINE
8
BLACK
6
CONTINUOUS
10
257.775
20
-304.59
11
307.875
21
-304.59
0
ARC
8
BLACK
10
293.768
20
-307.59
40
1.00003
50
-269.998
51
-179.999
0
LINE
8
BLACK
6
CONTINUOUS
10
368.968
20
-307.59
11
368.968
21
-309.09
0
ARC
8
BLACK
10
398.817
20
-201.5
40
0.999962
50
-135.576
51
-90.0014
0
ARC
8
BLACK
10
410.175
20
-305.59
40
1.00002
50
-179.999
51
-89.9974
0
ARC
8
BLACK
10
155.475
20
-305.59
40
1.00005
50
-89.9974
51
-0.00091669
0
LINE
8
BLACK
6
CONTINUOUS
10
329.425
20
-304.59
11
329.425
21
-304.59
0
ARC
8
BLACK
10
307.875
20
-305.59
40
1.00001
50
0.000630223
51
89.9972
0
LINE
8
BLACK
6
CONTINUOUS
10
216.568
20
-203.5
11
216.568
21
-205
0
ARC
8
BLACK
10
389.625
20
-304.59
40
0.999954
50
89.9974
51
179.999
0
LINE
8
BLACK
6
CONTINUOUS
10
140.368
20
-203.5
11
140.368
21
-205
0
ARC
8
BLACK
10
403.625
20
-304.59
40
2.00005
50
-89.9987
51
-0.000458356
0
LINE
8
BLACK
6
CONTINUOUS
10
369.968
20
-310.09
11
394.983
21
-310.09
0
ARC
8
BLACK
10
397.125
20
-308.99
40
2
50
-135.573
51
-44.427
0
LINE
8
BLACK
6
CONTINUOUS
10
385.075
20
-305.59
11
385.075
21
-305.59
0
ARC
8
BLACK
10
168.075
20
-203.6
40
2
50
44.427
51
135.573
0
LINE
8
BLACK
6
CONTINUOUS
10
251.775
20
-209
11
236.775
21
-209
0
ARC
8
BLACK
10
175.575
20
-208
40
1.00005
50
-89.9974
51
0.000630225
0
ARC
8
BLACK
10
141.368
20
-309.09
40
1.00002
50
-179.999
51
-90.0019
0
LINE
8
BLACK
6
CONTINUOUS
10
369.968
20
-206
11
383.625
21
-206
0
LINE
8
BLACK
6
CONTINUOUS
10
410.175
20
-304.59
11
423.25
21
-304.59
0
LINE
8
BLACK
6
CONTINUOUS
10
231.675
20
-306.59
11
217.568
21
-306.59
0
ARC
8
BLACK
10
347.632
20
-203.5
40
1.00004
50
0.00217719
51
89.9986
0
ARC
8
BLACK
10
231.675
20
-305.59
40
1.00005
50
-89.9974
51
-0.00091669
0
LINE
8
BLACK
6
CONTINUOUS
10
404.175
20
-209
11
389.175
21
-209
0
LINE
8
BLACK
6
CONTINUOUS
10
155.025
20
-208
11
141.5
21
-208
0
LINE
8
BLACK
6
CONTINUOUS
10
156.025
20
-207
11
156.025
21
-207
0
ARC
8
BLACK
10
271.432
20
-309.09
40
1.00002
50
-89.9986
51
-0.00091671
0
ARC
8
BLACK
10
231.225
20
-207
40
1.00004
50
0.00217714
51
89.9974
0
CIRCLE
8
BLACK
10
168.075
20
-203.6
40
1.05
0
ARC
8
BLACK
10
369.968
20
-307.59
40
1.00003
50
-269.998
51
-179.999
0
LINE
8
BLACK
6
CONTINUOUS
10
159.575
20
-208
11
159.575
21
-208
0
ARC
8
BLACK
10
404.625
20
-304.59
40
1.00001
50
0.000630225
51
89.9974
0
ARC
8
BLACK
10
347.632
20
-309.09
40
1.00002
50
-89.9986
51
-0.00091671
0
LINE
8
BLACK
6
CONTINUOUS
10
160.025
20
-304.59
11
160.025
21
-304.59
0
LINE
8
BLACK
6
CONTINUOUS
10
165.933
20
-202.5
11
141.368
21
-202.5
0
CIRCLE
8
BLACK
10
320.925
20
-308.99
40
1.05
0
LINE
8
BLACK
6
CONTINUOUS
10
347.632
20
-202.5
11
322.617
21
-202.5
0
CIRCLE
8
BLACK
10
244.725
20
-308.99
40
1.05
0
LINE
8
BLACK
6
CONTINUOUS
10
237.225
20
-303.59
11
252.225
21
-303.59
0
LINE
8
BLACK
6
CONTINUOUS
10
323.067
20
-310.09
11
347.632
21
-310.09
0
LINE
8
BLACK
6
CONTINUOUS
10
293.768
20
-206
11
307.425
21
-206
0
ARC
8
BLACK
10
141.368
20
-205
40
0.999962
50
-180.002
51
-90.0019
0
LINE
8
BLACK
6
CONTINUOUS
10
232.225
20
-207
11
232.225
21
-207
0
LINE
8
BLACK
6
CONTINUOUS
10
307.875
20
-306.59
11
293.768
21
-306.59
0
LINE
8
BLACK
6
CONTINUOUS
10
405.175
20
-208
11
405.175
21
-208
0
ARC
8
BLACK
10
165.933
20
-201.5
40
0.999986
50
-89.999
51
-44.4248
0
ARC
8
BLACK
10
168.525
20
-308.99
40
2
50
-135.573
51
-44.427
0
ARC
8
BLACK
10
237.775
20
-208
40
1.99995
50
89.9987
51
179.999
0
LINE
8
BLACK
6
CONTINUOUS
10
141.5
20
-304.59
11
155.475
21
-304.59
0
LINE
8
BLACK
6
CONTINUOUS
10
405.625
20
-304.59
11
405.625
21
-304.59
0
ARC
8
BLACK
10
181.125
20
-207
40
0.999989
50
-180.001
51
-89.9974
0
ARC
8
BLACK
10
369.968
20
-203.5
40
1.00003
50
90.0019
51
179.998
0
ARC
8
BLACK
10
250.775
20
-208
40
2.00004
50
0.00108859
51
89.9987
0
LINE
8
BLACK
6
CONTINUOUS
10
272.432
20
-309.09
11
272.432
21
-307.59
0
ARC
8
BLACK
10
257.325
20
-207
40
0.999957
50
89.9975
51
179.998
0
ARC
8
BLACK
10
394.983
20
-311.09
40
0.999984
50
44.4257
51
89.999
0
LINE
8
BLACK
6
CONTINUOUS
10
333.525
20
-206
11
347.632
21
-206
0
LINE
8
BLACK
6
CONTINUOUS
10
327.425
20
-306.59
11
314.425
21
-306.59
0
LINE
8
BLACK
6
CONTINUOUS
10
423.832
20
-202.5
11
398.817
21
-202.5
0
CIRCLE
8
BLACK
10
168.525
20
-308.99
40
1.05
0
ARC
8
BLACK
10
271.432
20
-205
40
1.00002
50
-89.9986
51
0.00217719
0
CIRCLE
8
BLACK
10
244.275
20
-203.6
40
1.05
0
ARC
8
BLACK
10
333.525
20
-207
40
0.999989
50
-180.001
51
-89.9974
0
ARC
8
BLACK
10
195.232
20
-307.59
40
0.999984
50
-0.00091671
51
89.9986
0
ARC
8
BLACK
10
404.175
20
-208
40
1.00005
50
-89.9974
51
0.000630225
0
LINE
8
BLACK
6
CONTINUOUS
10
408.725
20
-207
11
408.725
21
-207
0
ARC
8
BLACK
10
166.383
20
-311.09
40
0.999984
50
44.4257
51
89.999
0
LINE
8
BLACK
6
CONTINUOUS
10
348.632
20
-309.09
11
348.632
21
-307.59
0
ARC
8
BLACK
10
231.675
20
-305.59
40
1.00001
50
0.000630225
51
89.9974
0
ARC
8
BLACK
10
293.768
20
-203.5
40
1.00003
50
90.0019
51
179.998
0
LINE
8
BLACK
6
CONTINUOUS
10
161.575
20
-206
11
174.575
21
-206
0
LINE
8
BLACK
6
CONTINUOUS
10
217.568
20
-206
11
231.225
21
-206
0
ARC
8
BLACK
10
181.575
20
-305.59
40
0.999954
50
89.9974
51
179.999
0
LINE
8
BLACK
6
CONTINUOUS
10
292.768
20
-203.5
11
292.768
21
-205
0
ARC
8
BLACK
10
237.225
20
-304.59
40
0.999954
50
89.9974
51
179.999
0
ARC
8
BLACK
10
384.075
20
-305.59
40
1.00001
50
0.000630225
51
89.9974
0
LINE
8
BLACK
6
CONTINUOUS
10
292.768
20
-307.59
11
292.768
21
-309.09
0
LINE
8
BLACK
6
CONTINUOUS
10
423.25
20
-208
11
409.725
21
-208
0
ARC
8
BLACK
10
423.832
20
-203.5
40
1.00004
50
0.00217719
51
89.9986
0
ARC
8
BLACK
10
251.225
20
-304.59
40
2.00005
50
-89.9987
51
-0.000458356
0
ARC
8
BLACK
10
181.125
20
-207
40
0.999954
50
89.9974
51
179.998
0
CIRCLE
8
BLACK
10
396.675
20
-203.6
40
1.05
0
LINE
8
BLACK
6
CONTINUOUS
10
139.5
20
-210
11
139.5
21
-302.59
0
LINE
8
BLACK
6
CONTINUOUS
10
242.133
20
-202.5
11
217.568
21
-202.5
0
ARC
8
BLACK
10
246.417
20
-201.5
40
0.999962
50
-135.576
51
-90.0014
0
ARC
8
BLACK
10
396.675
20
-203.6
40
2
50
44.427
51
135.573
0
LINE
8
BLACK
6
CONTINUOUS
10
271.432
20
-202.5
11
246.417
21
-202.5
0
LINE
8
BLACK
6
CONTINUOUS
10
203.888
20
-301.445
11
203.888
21
-287.345
0
LINE
8
BLACK
6
CONTINUOUS
10
217.988
20
-287.345
11
217.988
21
-301.445
0
LINE
8
BLACK
6
CONTINUOUS
10
203.888
20
-287.345
11
217.988
21
-287.345
0
LINE
8
BLACK
6
CONTINUOUS
10
217.988
20
-301.445
11
203.888
21
-301.445
0
LINE
8
BLACK
6
CONTINUOUS
10
237.225
20
-268.295
11
251.325
21
-268.295
0
LINE
8
BLACK
6
CONTINUOUS
10
237.225
20
-282.395
11
237.225
21
-268.295
0
LINE
8
BLACK
6
CONTINUOUS
10
251.325
20
-282.395
11
237.225
21
-282.395
0
LINE
8
BLACK
6
CONTINUOUS
10
251.325
20
-268.295
11
251.325
21
-282.395
0
LINE
8
BLACK
6
CONTINUOUS
10
156.075
20
-301.445
11
141.975
21
-301.445
0
LINE
8
BLACK
6
CONTINUOUS
10
156.075
20
-287.345
11
156.075
21
-301.445
0
LINE
8
BLACK
6
CONTINUOUS
10
141.975
20
-287.345
11
156.075
21
-287.345
0
LINE
8
BLACK
6
CONTINUOUS
10
141.975
20
-301.445
11
141.975
21
-287.345
0
LINE
8
BLACK
6
CONTINUOUS
10
384.675
20
-211.145
11
384.675
21
-225.245
0
LINE
8
BLACK
6
CONTINUOUS
10
384.675
20
-225.245
11
370.575
21
-225.245
0
LINE
8
BLACK
6
CONTINUOUS
10
370.575
20
-225.245
11
370.575
21
-211.145
0
LINE
8
BLACK
6
CONTINUOUS
10
370.575
20
-211.145
11
384.675
21
-211.145
0
LINE
8
BLACK
6
CONTINUOUS
10
258.469
20
-301.445
11
244.369
21
-301.445
0
LINE
8
BLACK
6
CONTINUOUS
10
258.469
20
-287.345
11
258.469
21
-301.445
0
LINE
8
BLACK
6
CONTINUOUS
10
244.369
20
-287.345
11
258.469
21
-287.345
0
LINE
8
BLACK
6
CONTINUOUS
10
244.369
20
-301.445
11
244.369
21
-287.345
0
LINE
8
BLACK
6
CONTINUOUS
10
268.181
20
-301.445
11
268.181
21
-287.345
0
LINE
8
BLACK
6
CONTINUOUS
10
282.281
20
-287.345
11
282.281
21
-301.445
0
LINE
8
BLACK
6
CONTINUOUS
10
268.181
20
-287.345
11
282.281
21
-287.345
0
LINE
8
BLACK
6
CONTINUOUS
10
282.281
20
-301.445
11
268.181
21
-301.445
0
LINE
8
BLACK
6
CONTINUOUS
10
208.65
20
-230.195
11
222.75
21
-230.195
0
LINE
8
BLACK
6
CONTINUOUS
10
208.65
20
-244.295
11
208.65
21
-230.195
0
LINE
8
BLACK
6
CONTINUOUS
10
222.75
20
-230.195
11
222.75
21
-244.295
0
LINE
8
BLACK
6
CONTINUOUS
10
222.75
20
-244.295
11
208.65
21
-244.295
0
LINE
8
BLACK
6
CONTINUOUS
10
161.025
20
-225.245
11
161.025
21
-211.145
0
LINE
8
BLACK
6
CONTINUOUS
10
161.025
20
-211.145
11
175.125
21
-211.145
0
LINE
8
BLACK
6
CONTINUOUS
10
175.125
20
-225.245
11
161.025
21
-225.245
0
LINE
8
BLACK
6
CONTINUOUS
10
175.125
20
-211.145
11
175.125
21
-225.245
0
LINE
8
BLACK
6
CONTINUOUS
10
163.219
20
-249.245
11
163.219
21
-263.345
0
LINE
8
BLACK
6
CONTINUOUS
10
149.119
20
-249.245
11
163.219
21
-249.245
0
LINE
8
BLACK
6
CONTINUOUS
10
163.219
20
-263.345
11
149.119
21
-263.345
0
LINE
8
BLACK
6
CONTINUOUS
10
149.119
20
-263.345
11
149.119
21
-249.245
0
LINE
8
BLACK
6
CONTINUOUS
10
403.725
20
-268.295
11
403.725
21
-282.395
0
LINE
8
BLACK
6
CONTINUOUS
10
389.625
20
-282.395
11
389.625
21
-268.295
0
LINE
8
BLACK
6
CONTINUOUS
10
403.725
20
-282.395
11
389.625
21
-282.395
0
LINE
8
BLACK
6
CONTINUOUS
10
389.625
20
-268.295
11
403.725
21
-268.295
0
LINE
8
BLACK
6
CONTINUOUS
10
384.863
20
-263.345
11
384.863
21
-249.245
0
LINE
8
BLACK
6
CONTINUOUS
10
398.963
20
-249.245
11
398.963
21
-263.345
0
LINE
8
BLACK
6
CONTINUOUS
10
384.863
20
-249.245
11
398.963
21
-249.245
0
LINE
8
BLACK
6
CONTINUOUS
10
398.963
20
-263.345
11
384.863
21
-263.345
0
LINE
8
BLACK
6
CONTINUOUS
10
246.563
20
-263.345
11
232.463
21
-263.345
0
LINE
8
BLACK
6
CONTINUOUS
10
246.563
20
-249.245
11
246.563
21
-263.345
0
LINE
8
BLACK
6
CONTINUOUS
10
232.463
20
-249.245
11
246.563
21
-249.245
0
LINE
8
BLACK
6
CONTINUOUS
10
232.463
20
-263.345
11
232.463
21
-249.245
0
LINE
8
BLACK
6
CONTINUOUS
10
141.975
20
-211.145
11
156.075
21
-211.145
0
LINE
8
BLACK
6
CONTINUOUS
10
156.075
20
-225.245
11
141.975
21
-225.245
0
LINE
8
BLACK
6
CONTINUOUS
10
141.975
20
-225.245
11
141.975
21
-211.145
0
LINE
8
BLACK
6
CONTINUOUS
10
156.075
20
-211.145
11
156.075
21
-225.245
0
LINE
8
BLACK
6
CONTINUOUS
10
189.6
20
-244.295
11
189.6
21
-230.195
0
LINE
8
BLACK
6
CONTINUOUS
10
189.6
20
-230.195
11
203.7
21
-230.195
0
LINE
8
BLACK
6
CONTINUOUS
10
203.7
20
-230.195
11
203.7
21
-244.295
0
LINE
8
BLACK
6
CONTINUOUS
10
203.7
20
-244.295
11
189.6
21
-244.295
0
LINE
8
BLACK
6
CONTINUOUS
10
232.275
20
-282.395
11
218.175
21
-282.395
0
LINE
8
BLACK
6
CONTINUOUS
10
218.175
20
-268.295
11
232.275
21
-268.295
0
LINE
8
BLACK
6
CONTINUOUS
10
218.175
20
-282.395
11
218.175
21
-268.295
0
LINE
8
BLACK
6
CONTINUOUS
10
232.275
20
-268.295
11
232.275
21
-282.395
0
LINE
8
BLACK
6
CONTINUOUS
10
408.675
20
-268.295
11
422.775
21
-268.295
0
LINE
8
BLACK
6
CONTINUOUS
10
422.775
20
-282.395
11
408.675
21
-282.395
0
LINE
8
BLACK
6
CONTINUOUS
10
408.675
20
-282.395
11
408.675
21
-268.295
0
LINE
8
BLACK
6
CONTINUOUS
10
422.775
20
-268.295
11
422.775
21
-282.395
0
LINE
8
BLACK
6
CONTINUOUS
10
346.575
20
-268.295
11
346.575
21
-282.395
0
LINE
8
BLACK
6
CONTINUOUS
10
332.475
20
-268.295
11
346.575
21
-268.295
0
LINE
8
BLACK
6
CONTINUOUS
10
332.475
20
-282.395
11
332.475
21
-268.295
0
LINE
8
BLACK
6
CONTINUOUS
10
346.575
20
-282.395
11
332.475
21
-282.395
0
LINE
8
BLACK
6
CONTINUOUS
10
237.225
20
-225.245
11
237.225
21
-211.145
0
LINE
8
BLACK
6
CONTINUOUS
10
251.325
20
-211.145
11
251.325
21
-225.245
0
LINE
8
BLACK
6
CONTINUOUS
10
237.225
20
-211.145
11
251.325
21
-211.145
0
LINE
8
BLACK
6
CONTINUOUS
10
251.325
20
-225.245
11
237.225
21
-225.245
0
LINE
8
BLACK
6
CONTINUOUS
10
303.713
20
-249.245
11
303.713
21
-263.345
0
LINE
8
BLACK
6
CONTINUOUS
10
289.613
20
-263.345
11
289.613
21
-249.245
0
LINE
8
BLACK
6
CONTINUOUS
10
303.713
20
-263.345
11
289.613
21
-263.345
0
LINE
8
BLACK
6
CONTINUOUS
10
289.613
20
-249.245
11
303.713
21
-249.245
0
LINE
8
BLACK
6
CONTINUOUS
10
213.225
20
-211.145
11
213.225
21
-225.245
0
LINE
8
BLACK
6
CONTINUOUS
10
199.125
20
-225.245
11
199.125
21
-211.145
0
LINE
8
BLACK
6
CONTINUOUS
10
213.225
20
-225.245
11
199.125
21
-225.245
0
LINE
8
BLACK
6
CONTINUOUS
10
199.125
20
-211.145
11
213.225
21
-211.145
0
LINE
8
BLACK
6
CONTINUOUS
10
394.2
20
-230.195
11
394.2
21
-244.295
0
LINE
8
BLACK
6
CONTINUOUS
10
380.1
20
-244.295
11
380.1
21
-230.195
0
LINE
8
BLACK
6
CONTINUOUS
10
380.1
20
-230.195
11
394.2
21
-230.195
0
LINE
8
BLACK
6
CONTINUOUS
10
394.2
20
-244.295
11
380.1
21
-244.295
0
LINE
8
BLACK
6
CONTINUOUS
10
404.544
20
-262.17
11
419.344
21
-262.17
0
LINE
8
BLACK
6
CONTINUOUS
10
406.294
20
-239.72
11
420.394
21
-239.72
0
LINE
8
BLACK
6
CONTINUOUS
10
404.544
20
-231.37
11
419.344
21
-231.37
0
LINE
8
BLACK
6
CONTINUOUS
10
420.394
20
-253.82
11
406.294
21
-253.82
0
LINE
8
BLACK
6
CONTINUOUS
10
404.544
20
-255.17
11
404.544
21
-262.17
0
LINE
8
BLACK
6
CONTINUOUS
10
419.344
20
-231.37
11
419.344
21
-238.37
0
LINE
8
BLACK
6
CONTINUOUS
10
420.394
20
-239.72
11
420.394
21
-253.82
0
LINE
8
BLACK
6
CONTINUOUS
10
406.294
20
-253.82
11
406.294
21
-239.72
0
LINE
8
BLACK
6
CONTINUOUS
10
419.344
20
-238.37
11
404.544
21
-238.37
0
LINE
8
BLACK
6
CONTINUOUS
10
419.344
20
-255.17
11
404.544
21
-255.17
0
LINE
8
BLACK
6
CONTINUOUS
10
419.344
20
-262.17
11
419.344
21
-255.17
0
LINE
8
BLACK
6
CONTINUOUS
10
404.544
20
-238.37
11
404.544
21
-231.37
0
LINE
8
BLACK
6
CONTINUOUS
10
298.95
20
-244.295
11
284.85
21
-244.295
0
LINE
8
BLACK
6
CONTINUOUS
10
284.85
20
-230.195
11
298.95
21
-230.195
0
LINE
8
BLACK
6
CONTINUOUS
10
284.85
20
-244.295
11
284.85
21
-230.195
0
LINE
8
BLACK
6
CONTINUOUS
10
298.95
20
-230.195
11
298.95
21
-244.295
0
LINE
8
BLACK
6
CONTINUOUS
10
184.65
20
-230.195
11
184.65
21
-244.295
0
LINE
8
BLACK
6
CONTINUOUS
10
184.65
20
-244.295
11
170.55
21
-244.295
0
LINE
8
BLACK
6
CONTINUOUS
10
170.55
20
-244.295
11
170.55
21
-230.195
0
LINE
8
BLACK
6
CONTINUOUS
10
170.55
20
-230.195
11
184.65
21
-230.195
0
LINE
8
BLACK
6
CONTINUOUS
10
246.75
20
-230.195
11
260.85
21
-230.195
0
LINE
8
BLACK
6
CONTINUOUS
10
246.75
20
-244.295
11
246.75
21
-230.195
0
LINE
8
BLACK
6
CONTINUOUS
10
260.85
20
-244.295
11
246.75
21
-244.295
0
LINE
8
BLACK
6
CONTINUOUS
10
260.85
20
-230.195
11
260.85
21
-244.295
0
LINE
8
BLACK
6
CONTINUOUS
10
384.675
20
-287.345
11
384.675
21
-301.445
0
LINE
8
BLACK
6
CONTINUOUS
10
370.575
20
-287.345
11
384.675
21
-287.345
0
LINE
8
BLACK
6
CONTINUOUS
10
384.675
20
-301.445
11
370.575
21
-301.445
0
LINE
8
BLACK
6
CONTINUOUS
10
370.575
20
-301.445
11
370.575
21
-287.345
0
LINE
8
BLACK
6
CONTINUOUS
10
175.313
20
-249.245
11
189.413
21
-249.245
0
LINE
8
BLACK
6
CONTINUOUS
10
189.413
20
-249.245
11
189.413
21
-263.345
0
LINE
8
BLACK
6
CONTINUOUS
10
189.413
20
-263.345
11
175.313
21
-263.345
0
LINE
8
BLACK
6
CONTINUOUS
10
175.313
20
-263.345
11
175.313
21
-249.245
0
LINE
8
BLACK
6
CONTINUOUS
10
408.675
20
-225.245
11
408.675
21
-211.145
0
LINE
8
BLACK
6
CONTINUOUS
10
422.775
20
-225.245
11
408.675
21
-225.245
0
LINE
8
BLACK
6
CONTINUOUS
10
408.675
20
-211.145
11
422.775
21
-211.145
0
LINE
8
BLACK
6
CONTINUOUS
10
422.775
20
-211.145
11
422.775
21
-225.245
0
LINE
8
BLACK
6
CONTINUOUS
10
356.1
20
-230.195
11
356.1
21
-244.295
0
LINE
8
BLACK
6
CONTINUOUS
10
356.1
20
-244.295
11
342
21
-244.295
0
LINE
8
BLACK
6
CONTINUOUS
10
342
20
-244.295
11
342
21
-230.195
0
LINE
8
BLACK
6
CONTINUOUS
10
342
20
-230.195
11
356.1
21
-230.195
0
LINE
8
BLACK
6
CONTINUOUS
10
237.038
20
-287.345
11
237.038
21
-301.445
0
LINE
8
BLACK
6
CONTINUOUS
10
222.938
20
-301.445
11
222.938
21
-287.345
0
LINE
8
BLACK
6
CONTINUOUS
10
237.038
20
-301.445
11
222.938
21
-301.445
0
LINE
8
BLACK
6
CONTINUOUS
10
222.938
20
-287.345
11
237.038
21
-287.345
0
LINE
8
BLACK
6
CONTINUOUS
10
337.05
20
-244.295
11
322.95
21
-244.295
0
LINE
8
BLACK
6
CONTINUOUS
10
322.95
20
-244.295
11
322.95
21
-230.195
0
LINE
8
BLACK
6
CONTINUOUS
10
337.05
20
-230.195
11
337.05
21
-244.295
0
LINE
8
BLACK
6
CONTINUOUS
10
322.95
20
-230.195
11
337.05
21
-230.195
0
LINE
8
BLACK
6
CONTINUOUS
10
360.863
20
-263.345
11
346.763
21
-263.345
0
LINE
8
BLACK
6
CONTINUOUS
10
346.763
20
-249.245
11
360.863
21
-249.245
0
LINE
8
BLACK
6
CONTINUOUS
10
346.763
20
-263.345
11
346.763
21
-249.245
0
LINE
8
BLACK
6
CONTINUOUS
10
360.863
20
-249.245
11
360.863
21
-263.345
0
LINE
8
BLACK
6
CONTINUOUS
10
270.563
20
-249.245
11
284.663
21
-249.245
0
LINE
8
BLACK
6
CONTINUOUS
10
270.563
20
-263.345
11
270.563
21
-249.245
0
LINE
8
BLACK
6
CONTINUOUS
10
284.663
20
-249.245
11
284.663
21
-263.345
0
LINE
8
BLACK
6
CONTINUOUS
10
284.663
20
-263.345
11
270.563
21
-263.345
0
LINE
8
BLACK
6
CONTINUOUS
10
213.413
20
-263.345
11
213.413
21
-249.245
0
LINE
8
BLACK
6
CONTINUOUS
10
227.513
20
-263.345
11
213.413
21
-263.345
0
LINE
8
BLACK
6
CONTINUOUS
10
213.413
20
-249.245
11
227.513
21
-249.245
0
LINE
8
BLACK
6
CONTINUOUS
10
227.513
20
-249.245
11
227.513
21
-263.345
0
LINE
8
BLACK
6
CONTINUOUS
10
365.813
20
-249.245
11
379.913
21
-249.245
0
LINE
8
BLACK
6
CONTINUOUS
10
379.913
20
-249.245
11
379.913
21
-263.345
0
LINE
8
BLACK
6
CONTINUOUS
10
379.913
20
-263.345
11
365.813
21
-263.345
0
LINE
8
BLACK
6
CONTINUOUS
10
365.813
20
-263.345
11
365.813
21
-249.245
0
LINE
8
BLACK
6
CONTINUOUS
10
289.425
20
-211.145
11
289.425
21
-225.245
0
LINE
8
BLACK
6
CONTINUOUS
10
275.325
20
-225.245
11
275.325
21
-211.145
0
LINE
8
BLACK
6
CONTINUOUS
10
275.325
20
-211.145
11
289.425
21
-211.145
0
LINE
8
BLACK
6
CONTINUOUS
10
289.425
20
-225.245
11
275.325
21
-225.245
0
LINE
8
BLACK
6
CONTINUOUS
10
403.725
20
-301.445
11
389.625
21
-301.445
0
LINE
8
BLACK
6
CONTINUOUS
10
389.625
20
-301.445
11
389.625
21
-287.345
0
LINE
8
BLACK
6
CONTINUOUS
10
389.625
20
-287.345
11
403.725
21
-287.345
0
LINE
8
BLACK
6
CONTINUOUS
10
403.725
20
-287.345
11
403.725
21
-301.445
0
LINE
8
BLACK
6
CONTINUOUS
10
227.7
20
-244.295
11
227.7
21
-230.195
0
LINE
8
BLACK
6
CONTINUOUS
10
227.7
20
-230.195
11
241.8
21
-230.195
0
LINE
8
BLACK
6
CONTINUOUS
10
241.8
20
-244.295
11
227.7
21
-244.295
0
LINE
8
BLACK
6
CONTINUOUS
10
241.8
20
-230.195
11
241.8
21
-244.295
0
LINE
8
BLACK
6
CONTINUOUS
10
289.613
20
-301.445
11
289.613
21
-287.345
0
LINE
8
BLACK
6
CONTINUOUS
10
289.613
20
-287.345
11
303.713
21
-287.345
0
LINE
8
BLACK
6
CONTINUOUS
10
303.713
20
-287.345
11
303.713
21
-301.445
0
LINE
8
BLACK
6
CONTINUOUS
10
303.713
20
-301.445
11
289.613
21
-301.445
0
LINE
8
BLACK
6
CONTINUOUS
10
313.425
20
-282.395
11
313.425
21
-268.295
0
LINE
8
BLACK
6
CONTINUOUS
10
327.525
20
-268.295
11
327.525
21
-282.395
0
LINE
8
BLACK
6
CONTINUOUS
10
327.525
20
-282.395
11
313.425
21
-282.395
0
LINE
8
BLACK
6
CONTINUOUS
10
313.425
20
-268.295
11
327.525
21
-268.295
0
LINE
8
BLACK
6
CONTINUOUS
10
318
20
-244.295
11
303.9
21
-244.295
0
LINE
8
BLACK
6
CONTINUOUS
10
318
20
-230.195
11
318
21
-244.295
0
LINE
8
BLACK
6
CONTINUOUS
10
303.9
20
-230.195
11
318
21
-230.195
0
LINE
8
BLACK
6
CONTINUOUS
10
303.9
20
-244.295
11
303.9
21
-230.195
0
LINE
8
BLACK
6
CONTINUOUS
10
365.625
20
-268.295
11
365.625
21
-282.395
0
LINE
8
BLACK
6
CONTINUOUS
10
365.625
20
-282.395
11
351.525
21
-282.395
0
LINE
8
BLACK
6
CONTINUOUS
10
351.525
20
-282.395
11
351.525
21
-268.295
0
LINE
8
BLACK
6
CONTINUOUS
10
351.525
20
-268.295
11
365.625
21
-268.295
0
LINE
8
BLACK
6
CONTINUOUS
10
146.738
20
-230.195
11
160.838
21
-230.195
0
LINE
8
BLACK
6
CONTINUOUS
10
160.838
20
-230.195
11
160.838
21
-244.295
0
LINE
8
BLACK
6
CONTINUOUS
10
160.838
20
-244.295
11
146.738
21
-244.295
0
LINE
8
BLACK
6
CONTINUOUS
10
146.738
20
-244.295
11
146.738
21
-230.195
0
LINE
8
BLACK
6
CONTINUOUS
10
194.363
20
-249.245
11
208.463
21
-249.245
0
LINE
8
BLACK
6
CONTINUOUS
10
208.463
20
-249.245
11
208.463
21
-263.345
0
LINE
8
BLACK
6
CONTINUOUS
10
194.363
20
-263.345
11
194.363
21
-249.245
0
LINE
8
BLACK
6
CONTINUOUS
10
208.463
20
-263.345
11
194.363
21
-263.345
0
LINE
8
BLACK
6
CONTINUOUS
10
270.375
20
-268.295
11
270.375
21
-282.395
0
LINE
8
BLACK
6
CONTINUOUS
10
256.275
20
-282.395
11
256.275
21
-268.295
0
LINE
8
BLACK
6
CONTINUOUS
10
270.375
20
-282.395
11
256.275
21
-282.395
0
LINE
8
BLACK
6
CONTINUOUS
10
256.275
20
-268.295
11
270.375
21
-268.295
0
LINE
8
BLACK
6
CONTINUOUS
10
327.525
20
-211.145
11
327.525
21
-225.245
0
LINE
8
BLACK
6
CONTINUOUS
10
313.425
20
-225.245
11
313.425
21
-211.145
0
LINE
8
BLACK
6
CONTINUOUS
10
313.425
20
-211.145
11
327.525
21
-211.145
0
LINE
8
BLACK
6
CONTINUOUS
10
327.525
20
-225.245
11
313.425
21
-225.245
0
LINE
8
BLACK
6
CONTINUOUS
10
346.575
20
-225.245
11
332.475
21
-225.245
0
LINE
8
BLACK
6
CONTINUOUS
10
332.475
20
-225.245
11
332.475
21
-211.145
0
LINE
8
BLACK
6
CONTINUOUS
10
332.475
20
-211.145
11
346.575
21
-211.145
0
LINE
8
BLACK
6
CONTINUOUS
10
346.575
20
-211.145
11
346.575
21
-225.245
0
LINE
8
BLACK
6
CONTINUOUS
10
213.225
20
-268.295
11
213.225
21
-282.395
0
LINE
8
BLACK
6
CONTINUOUS
10
199.125
20
-268.295
11
213.225
21
-268.295
0
LINE
8
BLACK
6
CONTINUOUS
10
199.125
20
-282.395
11
199.125
21
-268.295
0
LINE
8
BLACK
6
CONTINUOUS
10
213.225
20
-282.395
11
199.125
21
-282.395
0
LINE
8
BLACK
6
CONTINUOUS
10
408.675
20
-287.345
11
422.775
21
-287.345
0
LINE
8
BLACK
6
CONTINUOUS
10
408.675
20
-301.445
11
408.675
21
-287.345
0
LINE
8
BLACK
6
CONTINUOUS
10
422.775
20
-287.345
11
422.775
21
-301.445
0
LINE
8
BLACK
6
CONTINUOUS
10
422.775
20
-301.445
11
408.675
21
-301.445
0
LINE
8
BLACK
6
CONTINUOUS
10
322.763
20
-287.345
11
322.763
21
-301.445
0
LINE
8
BLACK
6
CONTINUOUS
10
308.663
20
-287.345
11
322.763
21
-287.345
0
LINE
8
BLACK
6
CONTINUOUS
10
322.763
20
-301.445
11
308.663
21
-301.445
0
LINE
8
BLACK
6
CONTINUOUS
10
308.663
20
-301.445
11
308.663
21
-287.345
0
LINE
8
BLACK
6
CONTINUOUS
10
322.763
20
-263.345
11
308.663
21
-263.345
0
LINE
8
BLACK
6
CONTINUOUS
10
308.663
20
-249.245
11
322.763
21
-249.245
0
LINE
8
BLACK
6
CONTINUOUS
10
322.763
20
-249.245
11
322.763
21
-263.345
0
LINE
8
BLACK
6
CONTINUOUS
10
308.663
20
-263.345
11
308.663
21
-249.245
0
LINE
8
BLACK
6
CONTINUOUS
10
265.8
20
-230.195
11
279.9
21
-230.195
0
LINE
8
BLACK
6
CONTINUOUS
10
265.8
20
-244.295
11
265.8
21
-230.195
0
LINE
8
BLACK
6
CONTINUOUS
10
279.9
20
-230.195
11
279.9
21
-244.295
0
LINE
8
BLACK
6
CONTINUOUS
10
279.9
20
-244.295
11
265.8
21
-244.295
0
LINE
8
BLACK
6
CONTINUOUS
10
327.713
20
-263.345
11
327.713
21
-249.245
0
LINE
8
BLACK
6
CONTINUOUS
10
341.813
20
-263.345
11
327.713
21
-263.345
0
LINE
8
BLACK
6
CONTINUOUS
10
327.713
20
-249.245
11
341.813
21
-249.245
0
LINE
8
BLACK
6
CONTINUOUS
10
341.813
20
-249.245
11
341.813
21
-263.345
0
LINE
8
BLACK
6
CONTINUOUS
10
218.175
20
-225.245
11
218.175
21
-211.145
0
LINE
8
BLACK
6
CONTINUOUS
10
232.275
20
-211.145
11
232.275
21
-225.245
0
LINE
8
BLACK
6
CONTINUOUS
10
232.275
20
-225.245
11
218.175
21
-225.245
0
LINE
8
BLACK
6
CONTINUOUS
10
218.175
20
-211.145
11
232.275
21
-211.145
0
LINE
8
BLACK
6
CONTINUOUS
10
308.475
20
-225.245
11
294.375
21
-225.245
0
LINE
8
BLACK
6
CONTINUOUS
10
294.375
20
-225.245
11
294.375
21
-211.145
0
LINE
8
BLACK
6
CONTINUOUS
10
294.375
20
-211.145
11
308.475
21
-211.145
0
LINE
8
BLACK
6
CONTINUOUS
10
308.475
20
-211.145
11
308.475
21
-225.245
0
LINE
8
BLACK
6
CONTINUOUS
10
370.575
20
-268.295
11
384.675
21
-268.295
0
LINE
8
BLACK
6
CONTINUOUS
10
384.675
20
-282.395
11
370.575
21
-282.395
0
LINE
8
BLACK
6
CONTINUOUS
10
384.675
20
-268.295
11
384.675
21
-282.395
0
LINE
8
BLACK
6
CONTINUOUS
10
370.575
20
-282.395
11
370.575
21
-268.295
0
LINE
8
BLACK
6
CONTINUOUS
10
256.275
20
-211.145
11
270.375
21
-211.145
0
LINE
8
BLACK
6
CONTINUOUS
10
256.275
20
-225.245
11
256.275
21
-211.145
0
LINE
8
BLACK
6
CONTINUOUS
10
270.375
20
-225.245
11
256.275
21
-225.245
0
LINE
8
BLACK
6
CONTINUOUS
10
270.375
20
-211.145
11
270.375
21
-225.245
0
LINE
8
BLACK
6
CONTINUOUS
10
294.375
20
-268.295
11
308.475
21
-268.295
0
LINE
8
BLACK
6
CONTINUOUS
10
308.475
20
-282.395
11
294.375
21
-282.395
0
LINE
8
BLACK
6
CONTINUOUS
10
308.475
20
-268.295
11
308.475
21
-282.395
0
LINE
8
BLACK
6
CONTINUOUS
10
294.375
20
-282.395
11
294.375
21
-268.295
0
LINE
8
BLACK
6
CONTINUOUS
10
251.513
20
-263.345
11
251.513
21
-249.245
0
LINE
8
BLACK
6
CONTINUOUS
10
265.613
20
-249.245
11
265.613
21
-263.345
0
LINE
8
BLACK
6
CONTINUOUS
10
251.513
20
-249.245
11
265.613
21
-249.245
0
LINE
8
BLACK
6
CONTINUOUS
10
265.613
20
-263.345
11
251.513
21
-263.345
0
LINE
8
BLACK
6
CONTINUOUS
10
351.525
20
-225.245
11
351.525
21
-211.145
0
LINE
8
BLACK
6
CONTINUOUS
10
351.525
20
-211.145
11
365.625
21
-211.145
0
LINE
8
BLACK
6
CONTINUOUS
10
365.625
20
-211.145
11
365.625
21
-225.245
0
LINE
8
BLACK
6
CONTINUOUS
10
365.625
20
-225.245
11
351.525
21
-225.245
0
LINE
8
BLACK
6
CONTINUOUS
10
275.325
20
-282.395
11
275.325
21
-268.295
0
LINE
8
BLACK
6
CONTINUOUS
10
275.325
20
-268.295
11
289.425
21
-268.295
0
LINE
8
BLACK
6
CONTINUOUS
10
289.425
20
-282.395
11
275.325
21
-282.395
0
LINE
8
BLACK
6
CONTINUOUS
10
289.425
20
-268.295
11
289.425
21
-282.395
0
LINE
8
BLACK
6
CONTINUOUS
10
180.075
20
-282.395
11
180.075
21
-268.295
0
LINE
8
BLACK
6
CONTINUOUS
10
194.175
20
-268.295
11
194.175
21
-282.395
0
LINE
8
BLACK
6
CONTINUOUS
10
180.075
20
-268.295
11
194.175
21
-268.295
0
LINE
8
BLACK
6
CONTINUOUS
10
194.175
20
-282.395
11
180.075
21
-282.395
0
LINE
8
BLACK
6
CONTINUOUS
10
403.725
20
-211.145
11
403.725
21
-225.245
0
LINE
8
BLACK
6
CONTINUOUS
10
403.725
20
-225.245
11
389.625
21
-225.245
0
LINE
8
BLACK
6
CONTINUOUS
10
389.625
20
-211.145
11
403.725
21
-211.145
0
LINE
8
BLACK
6
CONTINUOUS
10
389.625
20
-225.245
11
389.625
21
-211.145
0
LINE
8
BLACK
6
CONTINUOUS
10
180.075
20
-211.145
11
194.175
21
-211.145
0
LINE
8
BLACK
6
CONTINUOUS
10
180.075
20
-225.245
11
180.075
21
-211.145
0
LINE
8
BLACK
6
CONTINUOUS
10
194.175
20
-225.245
11
180.075
21
-225.245
0
LINE
8
BLACK
6
CONTINUOUS
10
194.175
20
-211.145
11
194.175
21
-225.245
0
LINE
8
BLACK
6
CONTINUOUS
10
165.6
20
-268.295
11
165.6
21
-282.395
0
LINE
8
BLACK
6
CONTINUOUS
10
151.5
20
-268.295
11
165.6
21
-268.295
0
LINE
8
BLACK
6
CONTINUOUS
10
143.15
20
-284.145
11
143.15
21
-269.345
0
LINE
8
BLACK
6
CONTINUOUS
10
173.95
20
-284.145
11
173.95
21
-269.345
0
LINE
8
BLACK
6
CONTINUOUS
10
150.15
20
-269.345
11
150.15
21
-284.145
0
LINE
8
BLACK
6
CONTINUOUS
10
150.15
20
-284.145
11
143.15
21
-284.145
0
LINE
8
BLACK
6
CONTINUOUS
10
165.6
20
-282.395
11
151.5
21
-282.395
0
LINE
8
BLACK
6
CONTINUOUS
10
151.5
20
-282.395
11
151.5
21
-268.295
0
LINE
8
BLACK
6
CONTINUOUS
10
173.95
20
-269.345
11
166.95
21
-269.345
0
LINE
8
BLACK
6
CONTINUOUS
10
166.95
20
-284.145
11
173.95
21
-284.145
0
LINE
8
BLACK
6
CONTINUOUS
10
143.15
20
-269.345
11
150.15
21
-269.345
0
LINE
8
BLACK
6
CONTINUOUS
10
166.95
20
-269.345
11
166.95
21
-284.145
0
LINE
8
BLACK
6
CONTINUOUS
10
375.15
20
-244.295
11
361.05
21
-244.295
0
LINE
8
BLACK
6
CONTINUOUS
10
375.15
20
-230.195
11
375.15
21
-244.295
0
LINE
8
BLACK
6
CONTINUOUS
10
361.05
20
-244.295
11
361.05
21
-230.195
0
LINE
8
BLACK
6
CONTINUOUS
10
361.05
20
-230.195
11
375.15
21
-230.195
  0
ENDSEC
  0
EOF
