<?xml version="1.0" encoding="UTF-8" standalone="no"?>
<svg
   viewBox="0 0 1077.2226 401.83812"
   width="1077.2227"
   height="401.8381"
   version="1.1"
   id="svg1582"
   sodipodi:docname="tofu.svg"
   inkscape:version="1.1.2 (b8e25be833, 2022-02-05)"
   xmlns:inkscape="http://www.inkscape.org/namespaces/inkscape"
   xmlns:sodipodi="http://sodipodi.sourceforge.net/DTD/sodipodi-0.dtd"
   xmlns="http://www.w3.org/2000/svg"
   xmlns:svg="http://www.w3.org/2000/svg">
  <sodipodi:namedview
     id="namedview1584"
     pagecolor="#ffffff"
     bordercolor="#666666"
     borderopacity="1.0"
     inkscape:pageshadow="2"
     inkscape:pageopacity="0.0"
     inkscape:pagecheckerboard="0"
     showgrid="false"
     fit-margin-top="0"
     fit-margin-left="0"
     fit-margin-right="0"
     fit-margin-bottom="0"
     inkscape:zoom="0.7126824"
     inkscape:cx="509.34329"
     inkscape:cy="196.44094"
     inkscape:window-width="1920"
     inkscape:window-height="1009"
     inkscape:window-x="-8"
     inkscape:window-y="-8"
     inkscape:window-maximized="1"
     inkscape:current-layer="g1580" />
  <desc
     id="desc824">aa.dxf - scale = 1.0, origin = (0.0, 0.0), method = manual</desc>
  <defs
     id="defs838">
    <marker
       id="DistanceX"
       orient="auto"
       refX="0"
       refY="0"
       style="overflow:visible">
      <path
         d="M 3,-3 -3,3 M 0,-5 V 5"
         style="stroke:#000000;stroke-width:0.5"
         id="path826" />
    </marker>
    <pattern
       id="Hatch"
       patternUnits="userSpaceOnUse"
       width="8"
       height="8"
       x="0"
       y="0">
      <path
         d="M8 4 l-4,4"
         stroke="#000000"
         stroke-width="0.25"
         linecap="square"
         id="path829" />
      <path
         d="M6 2 l-4,4"
         stroke="#000000"
         stroke-width="0.25"
         linecap="square"
         id="path831" />
      <path
         d="M4 0 l-4,4"
         stroke="#000000"
         stroke-width="0.25"
         linecap="square"
         id="path833" />
    </pattern>
    <symbol
       id="*MODEL_SPACE" />
    <symbol
       id="*PAPER_SPACE" />
  </defs>
  <g
     inkscape:groupmode="layer"
     inkscape:label="0"
     id="g1580"
     transform="translate(5186.77,4248.2288)">
    <path
       d="m -4117.6065,-3867.632 a 7.559055,7.559055 0 0 0 7.5591,-7.5591"
       style="fill:none;stroke:#000000"
       id="path840" />
    <path
       style="fill:none;stroke:#000000"
       d="m -4110.05,-3875.19 v -344.2"
       id="path842" />
    <path
       d="m -4110.0474,-4219.3943 a 7.559055,7.559055 0 0 0 -7.5591,-7.559"
       style="fill:none;stroke:#000000"
       id="path844" />
    <path
       style="fill:none;stroke:#000000"
       d="m -4117.61,-4226.95 h -91.53"
       id="path846" />
    <path
       d="m -4211.0253,-4228.8431 a 1.889764,1.889764 0 0 0 1.8898,1.8898"
       style="fill:none;stroke:#000000"
       id="path848" />
    <path
       style="fill:none;stroke:#000000"
       d="m -4211.03,-4228.84 v -1.89"
       id="path850" />
    <path
       d="m -4209.1355,-4232.6193 a 1.889764,1.889764 0 0 0 -1.8898,1.8898"
       style="fill:none;stroke:#000000"
       id="path852" />
    <path
       style="fill:none;stroke:#000000"
       d="m -4209.14,-4232.62 h 39.69"
       id="path854" />
    <path
       d="m -4169.4505,-4232.6193 a 3.779528,3.779528 0 0 0 3.7795,-3.7795"
       style="fill:none;stroke:#000000"
       id="path856" />
    <path
       style="fill:none;stroke:#000000"
       d="m -4165.67,-4236.4 v -5.67"
       id="path858" />
    <path
       d="m -4165.671,-4242.0681 a 3.779528,3.779528 0 0 0 -3.7795,-3.7795"
       style="fill:none;stroke:#000000"
       id="path860" />
    <path
       style="fill:none;stroke:#000000"
       d="m -4169.45,-4245.85 h -68.03"
       id="path862" />
    <path
       style="fill:none;stroke:#000000"
       d="m -4237.48,-4245.85 v 18.9"
       id="path864" />
    <path
       d="m -4241.2615,-4226.95 a 1.889764,1.889764 0 0 0 3.7795,0"
       style="fill:none;stroke:#000000"
       id="path866" />
    <path
       style="fill:none;stroke:#000000"
       d="m -4241.26,-4226.95 v -13.23"
       id="path868" />
    <path
       d="m -4241.2615,-4240.1784 a 7.559055,7.559055 0 0 0 -15.1181,0"
       style="fill:none;stroke:#000000"
       id="path870" />
    <path
       style="fill:none;stroke:#000000"
       d="m -4256.38,-4240.18 v 13.23"
       id="path872" />
    <path
       d="m -4260.1592,-4226.95 a 1.8898,1.8898 0 0 0 3.7796,0"
       style="fill:none;stroke:#000000"
       id="path874" />
    <path
       style="fill:none;stroke:#000000"
       d="m -4260.16,-4226.95 v -18.9"
       id="path876" />
    <path
       style="fill:none;stroke:#000000"
       d="m -4260.16,-4245.85 h -68.03"
       id="path878" />
    <path
       d="m -4328.1907,-4245.8476 a 3.779528,3.779528 0 0 0 -3.7795,3.7795"
       style="fill:none;stroke:#000000"
       id="path880" />
    <path
       style="fill:none;stroke:#000000"
       d="m -4331.97,-4242.07 v 5.67"
       id="path882" />
    <path
       d="m -4331.9702,-4236.3988 a 3.779528,3.779528 0 0 0 3.7795,3.7795"
       style="fill:none;stroke:#000000"
       id="path884" />
    <path
       style="fill:none;stroke:#000000"
       d="m -4328.19,-4232.62 h 39.68"
       id="path886" />
    <path
       d="m -4286.6158,-4230.7295 a 1.889764,1.889764 0 0 0 -1.8898,-1.8898"
       style="fill:none;stroke:#000000"
       id="path888" />
    <path
       style="fill:none;stroke:#000000"
       d="m -4286.62,-4230.73 v 1.89"
       id="path890" />
    <path
       d="m -4288.5056,-4226.9533 a 1.889764,1.889764 0 0 0 1.8898,-1.8898"
       style="fill:none;stroke:#000000"
       id="path892" />
    <path
       style="fill:none;stroke:#000000"
       d="m -4288.51,-4226.95 h -170.2"
       id="path894" />
    <path
       d="m -4460.5988,-4228.8431 a 1.889764,1.889764 0 0 0 1.8897,1.8898"
       style="fill:none;stroke:#000000"
       id="path896" />
    <path
       style="fill:none;stroke:#000000"
       d="m -4460.6,-4228.84 v -10.42"
       id="path898" />
    <path
       d="m -4460.5988,-4239.2557 a 7.559055,7.559055 0 1 0 -15.1179,-0.06"
       style="fill:none;stroke:#000000"
       id="path900" />
    <path
       style="fill:none;stroke:#000000"
       d="m -4475.72,-4239.32 v 0"
       id="path902" />
    <path
       style="fill:none;stroke:#000000"
       d="m -4475.72,-4239.32 v 10.48"
       id="path904" />
    <path
       d="m -4477.6068,-4226.9533 a 1.889764,1.889764 0 0 0 1.8898,-1.8898"
       style="fill:none;stroke:#000000"
       id="path906" />
    <path
       style="fill:none;stroke:#000000"
       d="m -4477.61,-4226.95 h -100.43"
       id="path908" />
    <path
       d="m -4579.9299,-4228.8431 a 1.889764,1.889764 0 0 0 1.8898,1.8898"
       style="fill:none;stroke:#000000"
       id="path910" />
    <path
       style="fill:none;stroke:#000000"
       d="m -4579.93,-4228.84 v -1.89"
       id="path912" />
    <path
       d="m -4578.3989,-4232.5849 a 1.889764,1.889764 0 0 0 -1.531,1.8554"
       style="fill:none;stroke:#000000"
       id="path914" />
    <path
       d="m -4578.0401,-4232.6193 a 1.889763,1.889763 0 0 0 -0.3588,0.034"
       style="fill:none;stroke:#000000"
       id="path916" />
    <path
       style="fill:none;stroke:#000000"
       d="m -4578.04,-4232.62 h 39.68"
       id="path918" />
    <path
       d="m -4538.3551,-4232.6193 a 3.779528,3.779528 0 0 0 3.7796,-3.7795"
       style="fill:none;stroke:#000000"
       id="path920" />
    <path
       style="fill:none;stroke:#000000"
       d="m -4534.58,-4236.4 v -5.67"
       id="path922" />
    <path
       d="m -4534.5755,-4242.0681 a 3.779528,3.779528 0 0 0 -3.7796,-3.7795"
       style="fill:none;stroke:#000000"
       id="path924" />
    <path
       style="fill:none;stroke:#000000"
       d="m -4538.36,-4245.85 h -106.2"
       id="path926" />
    <path
       style="fill:none;stroke:#000000"
       d="m -4644.56,-4245.85 v 18.9"
       id="path928" />
    <path
       d="m -4648.3355,-4226.95 a 1.889764,1.889764 0 0 0 3.7795,0"
       style="fill:none;stroke:#000000"
       id="path930" />
    <path
       style="fill:none;stroke:#000000"
       d="m -4648.34,-4226.95 v -13.23"
       id="path932" />
    <path
       d="m -4648.3355,-4240.1784 a 7.5590555,7.5590555 0 0 0 -15.1181,0"
       style="fill:none;stroke:#000000"
       id="path934" />
    <path
       style="fill:none;stroke:#000000"
       d="m -4663.45,-4240.18 v 13.23"
       id="path936" />
    <path
       d="m -4667.2332,-4226.95 a 1.8898,1.8898 0 0 0 3.7796,0"
       style="fill:none;stroke:#000000"
       id="path938" />
    <path
       style="fill:none;stroke:#000000"
       d="m -4667.23,-4226.95 v -18.9"
       id="path940" />
    <path
       style="fill:none;stroke:#000000"
       d="m -4667.23,-4245.85 h -106.2"
       id="path942" />
    <path
       d="m -4773.4341,-4245.8476 a 3.779528,3.779528 0 0 0 -3.7795,3.7795"
       style="fill:none;stroke:#000000"
       id="path944" />
    <path
       style="fill:none;stroke:#000000"
       d="m -4777.21,-4242.07 v 5.67"
       id="path946" />
    <path
       d="m -4777.2136,-4236.3988 a 3.779528,3.779528 0 0 0 3.7795,3.7795"
       style="fill:none;stroke:#000000"
       id="path948" />
    <path
       style="fill:none;stroke:#000000"
       d="m -4773.43,-4232.62 h 39.68"
       id="path950" />
    <path
       d="m -4731.8593,-4230.7295 a 1.889764,1.889764 0 0 0 -1.8898,-1.8898"
       style="fill:none;stroke:#000000"
       id="path952" />
    <path
       style="fill:none;stroke:#000000"
       d="m -4731.86,-4230.73 v 1.89"
       id="path954" />
    <path
       d="m -4733.7491,-4226.9533 a 1.889764,1.889764 0 0 0 1.8898,-1.8898"
       style="fill:none;stroke:#000000"
       id="path956" />
    <path
       style="fill:none;stroke:#000000"
       d="m -4733.75,-4226.95 h -84.96"
       id="path958" />
    <path
       d="m -4820.5986,-4228.8431 a 1.889764,1.889764 0 0 0 1.8898,1.8898"
       style="fill:none;stroke:#000000"
       id="path960" />
    <path
       style="fill:none;stroke:#000000"
       d="m -4820.6,-4228.84 v -10.48"
       id="path962" />
    <path
       d="m -4820.5986,-4239.3161 a 7.559045,7.559045 0 1 0 -15.1179,0.051"
       style="fill:none;stroke:#000000"
       id="path964" />
    <path
       style="fill:none;stroke:#000000"
       d="m -4835.72,-4239.26 v 10.42"
       id="path966" />
    <path
       d="m -4837.6063,-4226.9533 a 1.889764,1.889764 0 0 0 1.8898,-1.8898"
       style="fill:none;stroke:#000000"
       id="path968" />
    <path
       style="fill:none;stroke:#000000"
       d="m -4837.61,-4226.95 h -147.01"
       id="path970" />
    <path
       d="m -4986.5088,-4228.8431 a 1.889764,1.889764 0 0 0 1.8898,1.8898"
       style="fill:none;stroke:#000000"
       id="path972" />
    <path
       style="fill:none;stroke:#000000"
       d="m -4986.51,-4228.84 v -1.89"
       id="path974" />
    <path
       d="m -4984.619,-4232.6193 a 1.889764,1.889764 0 0 0 -1.8898,1.8898"
       style="fill:none;stroke:#000000"
       id="path976" />
    <path
       style="fill:none;stroke:#000000"
       d="m -4984.62,-4232.62 h 39.69"
       id="path978" />
    <path
       d="m -4944.934,-4232.6193 a 3.779528,3.779528 0 0 0 3.7796,-3.7795"
       style="fill:none;stroke:#000000"
       id="path980" />
    <path
       style="fill:none;stroke:#000000"
       d="m -4941.15,-4236.4 v -5.67"
       id="path982" />
    <path
       d="m -4941.1544,-4242.0681 a 3.779528,3.779528 0 0 0 -3.7796,-3.7795"
       style="fill:none;stroke:#000000"
       id="path984" />
    <path
       style="fill:none;stroke:#000000"
       d="m -4944.93,-4245.85 h -71.81"
       id="path986" />
    <path
       style="fill:none;stroke:#000000"
       d="m -5016.74,-4245.85 v 18.9"
       id="path988" />
    <path
       d="m -5020.5245,-4226.95 a 1.889764,1.889764 0 0 0 3.7795,0"
       style="fill:none;stroke:#000000"
       id="path990" />
    <path
       style="fill:none;stroke:#000000"
       d="m -5020.52,-4226.95 v -13.23"
       id="path992" />
    <path
       d="m -5020.5245,-4240.1784 a 7.559055,7.559055 0 0 0 -15.1181,0"
       style="fill:none;stroke:#000000"
       id="path994" />
    <path
       style="fill:none;stroke:#000000"
       d="m -5035.64,-4240.18 v 13.23"
       id="path996" />
    <path
       d="m -5039.4222,-4226.95 a 1.8898,1.8898 0 0 0 3.7796,0"
       style="fill:none;stroke:#000000"
       id="path998" />
    <path
       style="fill:none;stroke:#000000"
       d="m -5039.42,-4226.95 v -18.9"
       id="path1000" />
    <path
       style="fill:none;stroke:#000000"
       d="m -5039.42,-4245.85 h -71.81"
       id="path1002" />
    <path
       d="m -5111.2332,-4245.8476 a 3.779528,3.779528 0 0 0 -3.7795,3.7795"
       style="fill:none;stroke:#000000"
       id="path1004" />
    <path
       style="fill:none;stroke:#000000"
       d="m -5115.01,-4242.07 v 5.67"
       id="path1006" />
    <path
       d="m -5115.0127,-4236.3988 a 3.779528,3.779528 0 0 0 3.7795,3.7795"
       style="fill:none;stroke:#000000"
       id="path1008" />
    <path
       style="fill:none;stroke:#000000"
       d="m -5111.23,-4232.62 h 39.68"
       id="path1010" />
    <path
       d="m -5069.6584,-4230.7295 a 1.889764,1.889764 0 0 0 -1.8897,-1.8898"
       style="fill:none;stroke:#000000"
       id="path1012" />
    <path
       style="fill:none;stroke:#000000"
       d="m -5069.66,-4230.73 v 1.89"
       id="path1014" />
    <path
       d="m -5071.5481,-4226.9533 a 1.889764,1.889764 0 0 0 1.8897,-1.8898"
       style="fill:none;stroke:#000000"
       id="path1016" />
    <path
       style="fill:none;stroke:#000000"
       d="m -5071.55,-4226.95 h -107.16"
       id="path1018" />
    <path
       d="m -5178.7088,-4226.9533 a 7.559055,7.559055 0 0 0 -7.5591,7.559"
       style="fill:none;stroke:#000000"
       id="path1020" />
    <path
       style="fill:none;stroke:#000000"
       d="m -5186.27,-4219.39 v 344.2"
       id="path1022" />
    <path
       d="m -5186.2679,-3875.1911 a 7.559055,7.559055 0 0 0 7.5591,7.5591"
       style="fill:none;stroke:#000000"
       id="path1024" />
    <path
       style="fill:none;stroke:#000000"
       d="m -5178.71,-3867.63 h 103.03"
       id="path1026" />
    <path
       d="m -5073.7943,-3865.7422 a 1.889764,1.889764 0 0 0 -1.8897,-1.8898"
       style="fill:none;stroke:#000000"
       id="path1028" />
    <path
       style="fill:none;stroke:#000000"
       d="m -5073.79,-3865.74 v 0.53"
       id="path1030" />
    <path
       d="m -5075.684,-3863.3233 a 1.889764,1.889764 0 0 0 1.8897,-1.8898"
       style="fill:none;stroke:#000000"
       id="path1032" />
    <path
       style="fill:none;stroke:#000000"
       d="m -5075.68,-3863.32 h -39.69"
       id="path1034" />
    <path
       d="m -5115.3691,-3863.3233 a 3.779528,3.779528 0 0 0 -3.7795,3.7795"
       style="fill:none;stroke:#000000"
       id="path1036" />
    <path
       style="fill:none;stroke:#000000"
       d="m -5119.15,-3859.54 v 5.85"
       id="path1038" />
    <path
       d="m -5119.1486,-3853.6855 a 3.779528,3.779528 0 0 0 3.7795,3.7795"
       style="fill:none;stroke:#000000"
       id="path1040" />
    <path
       style="fill:none;stroke:#000000"
       d="m -5115.37,-3849.91 h 71.81"
       id="path1042" />
    <path
       style="fill:none;stroke:#000000"
       d="m -5043.56,-3849.91 v -17.76"
       id="path1044" />
    <path
       d="m -5039.7785,-3867.6697 a 1.889764,1.889764 0 0 0 -3.7795,0"
       style="fill:none;stroke:#000000"
       id="path1046" />
    <path
       style="fill:none;stroke:#000000"
       d="m -5039.78,-3867.67 v 13.23"
       id="path1048" />
    <path
       d="m -5039.7785,-3854.4414 a 7.5590555,7.5590555 0 0 0 15.1181,0"
       style="fill:none;stroke:#000000"
       id="path1050" />
    <path
       style="fill:none;stroke:#000000"
       d="m -5024.66,-3854.44 v -13.23"
       id="path1052" />
    <path
       d="m -5020.8809,-3867.6697 a 1.889764,1.889764 0 0 0 -3.7795,0"
       style="fill:none;stroke:#000000"
       id="path1054" />
    <path
       style="fill:none;stroke:#000000"
       d="m -5020.88,-3867.67 v 17.76"
       id="path1056" />
    <path
       style="fill:none;stroke:#000000"
       d="m -5020.88,-3849.91 h 71.81"
       id="path1058" />
    <path
       d="m -4949.0698,-3849.906 a 3.779528,3.779528 0 0 0 3.7795,-3.7795"
       style="fill:none;stroke:#000000"
       id="path1060" />
    <path
       style="fill:none;stroke:#000000"
       d="m -4945.29,-3853.69 v -5.85"
       id="path1062" />
    <path
       d="m -4945.2903,-3859.5438 a 3.779528,3.779528 0 0 0 -3.7795,-3.7795"
       style="fill:none;stroke:#000000"
       id="path1064" />
    <path
       style="fill:none;stroke:#000000"
       d="m -4949.07,-3863.32 h -39.68"
       id="path1066" />
    <path
       d="m -4990.6446,-3865.2131 a 1.889764,1.889764 0 0 0 1.8897,1.8898"
       style="fill:none;stroke:#000000"
       id="path1068" />
    <path
       style="fill:none;stroke:#000000"
       d="m -4990.64,-3865.21 v -0.53"
       id="path1070" />
    <path
       d="m -4988.7549,-3867.632 a 1.889764,1.889764 0 0 0 -1.8897,1.8898"
       style="fill:none;stroke:#000000"
       id="path1072" />
    <path
       style="fill:none;stroke:#000000"
       d="m -4988.75,-3867.63 h 151.14"
       id="path1074" />
    <path
       d="m -4835.7165,-3865.7422 a 1.889764,1.889764 0 0 0 -1.8898,-1.8898"
       style="fill:none;stroke:#000000"
       id="path1076" />
    <path
       style="fill:none;stroke:#000000"
       d="m -4835.72,-3865.74 v 11.23"
       id="path1078" />
    <path
       d="m -4835.7165,-3854.5114 a 7.559055,7.559055 0 1 0 15.1176,-0.016"
       style="fill:none;stroke:#000000"
       id="path1080" />
    <path
       style="fill:none;stroke:#000000"
       d="m -4820.6,-3854.53 v -11.21"
       id="path1082" />
    <path
       d="m -4818.7091,-3867.632 a 1.889764,1.889764 0 0 0 -1.8898,1.8898"
       style="fill:none;stroke:#000000"
       id="path1084" />
    <path
       style="fill:none;stroke:#000000"
       d="m -4818.71,-3867.63 h 84.98"
       id="path1086" />
    <path
       d="m -4731.8377,-3865.7422 a 1.889764,1.889764 0 0 0 -1.8898,-1.8898"
       style="fill:none;stroke:#000000"
       id="path1088" />
    <path
       style="fill:none;stroke:#000000"
       d="m -4731.84,-3865.74 v 0.53"
       id="path1090" />
    <path
       d="m -4733.7275,-3863.3233 a 1.889764,1.889764 0 0 0 1.8898,-1.8898"
       style="fill:none;stroke:#000000"
       id="path1092" />
    <path
       style="fill:none;stroke:#000000"
       d="m -4733.73,-3863.32 h -39.68"
       id="path1094" />
    <path
       d="m -4773.4125,-3863.3233 a 3.779528,3.779528 0 0 0 -3.7795,3.7795"
       style="fill:none;stroke:#000000"
       id="path1096" />
    <path
       style="fill:none;stroke:#000000"
       d="m -4777.19,-3859.54 v 5.85"
       id="path1098" />
    <path
       d="m -4777.192,-3853.6855 a 3.779528,3.779528 0 0 0 3.7795,3.7795"
       style="fill:none;stroke:#000000"
       id="path1100" />
    <path
       style="fill:none;stroke:#000000"
       d="m -4773.41,-3849.91 h 106.2"
       id="path1102" />
    <path
       style="fill:none;stroke:#000000"
       d="m -4667.21,-3849.91 v -17.76"
       id="path1104" />
    <path
       d="m -4663.432,-3867.6697 a 1.8898,1.8898 0 0 0 -3.7796,0"
       style="fill:none;stroke:#000000"
       id="path1106" />
    <path
       style="fill:none;stroke:#000000"
       d="m -4663.43,-3867.67 v 13.23"
       id="path1108" />
    <path
       d="m -4663.432,-3854.4414 a 7.559055,7.559055 0 0 0 15.1181,0"
       style="fill:none;stroke:#000000"
       id="path1110" />
    <path
       style="fill:none;stroke:#000000"
       d="m -4648.31,-3854.44 v -13.23"
       id="path1112" />
    <path
       d="m -4644.5344,-3867.6697 a 1.889764,1.889764 0 0 0 -3.7795,0"
       style="fill:none;stroke:#000000"
       id="path1114" />
    <path
       style="fill:none;stroke:#000000"
       d="m -4644.53,-3867.67 v 17.76"
       id="path1116" />
    <path
       style="fill:none;stroke:#000000"
       d="m -4644.53,-3849.91 h 106.2"
       id="path1118" />
    <path
       d="m -4538.3335,-3849.906 a 3.779528,3.779528 0 0 0 3.7796,-3.7795"
       style="fill:none;stroke:#000000"
       id="path1120" />
    <path
       style="fill:none;stroke:#000000"
       d="m -4534.55,-3853.69 v -5.85"
       id="path1122" />
    <path
       d="m -4534.5539,-3859.5438 a 3.779528,3.779528 0 0 0 -3.7796,-3.7795"
       style="fill:none;stroke:#000000"
       id="path1124" />
    <path
       style="fill:none;stroke:#000000"
       d="m -4538.33,-3863.32 h -39.69"
       id="path1126" />
    <path
       d="m -4579.9083,-3865.2131 a 1.889764,1.889764 0 0 0 1.8898,1.8898"
       style="fill:none;stroke:#000000"
       id="path1128" />
    <path
       style="fill:none;stroke:#000000"
       d="m -4579.91,-3865.21 v -0.53"
       id="path1130" />
    <path
       d="m -4578.0185,-3867.632 a 1.889764,1.889764 0 0 0 -1.8898,1.8898"
       style="fill:none;stroke:#000000"
       id="path1132" />
    <path
       style="fill:none;stroke:#000000"
       d="m -4578.02,-3867.63 h 100.41"
       id="path1134" />
    <path
       d="m -4475.7169,-3865.7422 a 1.889764,1.889764 0 0 0 -1.8897,-1.8898"
       style="fill:none;stroke:#000000"
       id="path1136" />
    <path
       style="fill:none;stroke:#000000"
       d="m -4475.72,-3865.74 v 11.28"
       id="path1138" />
    <path
       style="fill:none;stroke:#000000"
       d="m -4475.72,-3854.46 v 0"
       id="path1140" />
    <path
       d="m -4475.7167,-3854.4601 a 7.559055,7.559055 0 1 0 15.1177,-0.073"
       style="fill:none;stroke:#000000"
       id="path1142" />
    <path
       style="fill:none;stroke:#000000"
       d="m -4460.6,-3854.53 v -11.21"
       id="path1144" />
    <path
       d="m -4458.7092,-3867.632 a 1.889764,1.889764 0 0 0 -1.8898,1.8898"
       style="fill:none;stroke:#000000"
       id="path1146" />
    <path
       style="fill:none;stroke:#000000"
       d="m -4458.71,-3867.63 h 196.41"
       id="path1148" />
    <path
       d="m -4260.4097,-3865.7422 a 1.889764,1.889764 0 0 0 -1.8897,-1.8898"
       style="fill:none;stroke:#000000"
       id="path1150" />
    <path
       style="fill:none;stroke:#000000"
       d="m -4260.41,-3865.74 v 0.53"
       id="path1152" />
    <path
       d="m -4262.2994,-3863.3233 a 1.889764,1.889764 0 0 0 1.8897,-1.8898"
       style="fill:none;stroke:#000000"
       id="path1154" />
    <path
       style="fill:none;stroke:#000000"
       d="m -4262.3,-3863.32 h -39.68"
       id="path1156" />
    <path
       d="m -4301.9845,-3863.3233 a 3.779528,3.779528 0 0 0 -3.7795,3.7795"
       style="fill:none;stroke:#000000"
       id="path1158" />
    <path
       style="fill:none;stroke:#000000"
       d="m -4305.76,-3859.54 v 5.85"
       id="path1160" />
    <path
       d="m -4305.764,-3853.6855 a 3.779528,3.779528 0 0 0 3.7795,3.7795"
       style="fill:none;stroke:#000000"
       id="path1162" />
    <path
       style="fill:none;stroke:#000000"
       d="m -4301.98,-3849.91 h 71.81"
       id="path1164" />
    <path
       style="fill:none;stroke:#000000"
       d="m -4230.17,-3849.91 v -17.76"
       id="path1166" />
    <path
       d="m -4226.3939,-3867.6697 a 1.8898,1.8898 0 0 0 -3.7796,0"
       style="fill:none;stroke:#000000"
       id="path1168" />
    <path
       style="fill:none;stroke:#000000"
       d="m -4226.39,-3867.67 v 13.23"
       id="path1170" />
    <path
       d="m -4226.3939,-3854.4414 a 7.5590555,7.5590555 0 0 0 15.1181,0"
       style="fill:none;stroke:#000000"
       id="path1172" />
    <path
       style="fill:none;stroke:#000000"
       d="m -4211.28,-3854.44 v -13.23"
       id="path1174" />
    <path
       d="m -4207.4963,-3867.6697 a 1.889764,1.889764 0 0 0 -3.7795,0"
       style="fill:none;stroke:#000000"
       id="path1176" />
    <path
       style="fill:none;stroke:#000000"
       d="m -4207.5,-3867.67 v 17.76"
       id="path1178" />
    <path
       style="fill:none;stroke:#000000"
       d="m -4207.5,-3849.91 h 71.81"
       id="path1180" />
    <path
       d="m -4135.6853,-3849.906 a 3.779528,3.779528 0 0 0 3.7796,-3.7795"
       style="fill:none;stroke:#000000"
       id="path1182" />
    <path
       style="fill:none;stroke:#000000"
       d="m -4131.91,-3853.69 v -5.85"
       id="path1184" />
    <path
       d="m -4131.9057,-3859.5438 a 3.779528,3.779528 0 0 0 -3.7796,-3.7795"
       style="fill:none;stroke:#000000"
       id="path1186" />
    <path
       style="fill:none;stroke:#000000"
       d="m -4135.69,-3863.32 h -39.68"
       id="path1188" />
    <path
       d="m -4177.2601,-3865.2131 a 1.889764,1.889764 0 0 0 1.8898,1.8898"
       style="fill:none;stroke:#000000"
       id="path1190" />
    <path
       style="fill:none;stroke:#000000"
       d="m -4177.26,-3865.21 v -0.53"
       id="path1192" />
    <path
       d="m -4175.3703,-3867.632 a 1.889764,1.889764 0 0 0 -1.8898,1.8898"
       style="fill:none;stroke:#000000"
       id="path1194" />
    <path
       style="fill:none;stroke:#000000"
       d="m -4175.37,-3867.63 h 57.76"
       id="path1196" />
    <path
       d="m -4479.5907,-3877.3234 a 1.889764,1.889764 0 0 0 1.8897,-1.8897 v -49.1339 a 1.889764,1.889764 0 0 0 -1.8897,-1.8898 h -49.1339 a 1.889764,1.889764 0 0 0 -1.8898,1.8898 v 49.1339 a 1.889764,1.889764 0 0 0 1.8898,1.8897 z"
       style="fill:none;stroke:#000000"
       id="path1198" />
    <path
       d="m -4458.6144,-3879.2131 v -49.1339 a 1.889764,1.889764 0 0 1 1.8898,-1.8898 h 49.1339 a 1.889764,1.889764 0 0 1 1.8897,1.8898 v 49.1339 a 1.889764,1.889764 0 0 1 -1.8897,1.8897 h -49.1339 a 1.889764,1.889764 0 0 1 -1.8898,-1.8897 z"
       style="fill:none;stroke:#000000"
       id="path1200" />
    <path
       d="m -5010.638,-4093.3234 h -7.6535 a 1.889764,1.889764 0 0 1 -1.8898,-1.8897 v -49.1339 a 1.889764,1.889764 0 0 1 1.8898,-1.8898 h 7.6535 a 1.889764,1.889764 0 0 1 1.8898,1.8898 v 49.1339 a 1.889764,1.889764 0 0 1 -1.8898,1.8897 z"
       style="fill:none;stroke:#000000"
       id="path1202" />
    <path
       d="m -4400.9529,-4212.5675 v 52.9134 a 1.889764,1.889764 0 0 1 -1.8898,1.8898 h -40.6535 a 1.889764,1.889764 0 0 1 -1.8898,-1.8898 v -52.9134 a 1.889764,1.889764 0 0 1 1.8898,-1.8897 h 40.6535 a 1.889764,1.889764 0 0 1 1.8898,1.8897 z"
       style="fill:none;stroke:#000000"
       id="path1204" />
    <path
       d="m -4778.9057,-4212.5675 v 52.9134 a 1.889764,1.889764 0 0 1 -1.8898,1.8898 h -22.6771 a 1.889764,1.889764 0 0 1 -1.8898,-1.8898 v -52.9134 a 1.889764,1.889764 0 0 1 1.8898,-1.8897 h 22.6771 a 1.889764,1.889764 0 0 1 1.8898,1.8897 z"
       style="fill:none;stroke:#000000"
       id="path1206" />
    <path
       d="m -4897.7246,-4218.2368 h 49.1339 a 1.889764,1.889764 0 0 1 1.8897,1.8898 v 49.1339 a 1.889764,1.889764 0 0 1 -1.8897,1.8897 h -2.3386 v 5.6694 a 1.889764,1.889764 0 0 1 -1.8898,1.8898 h -22.6771 a 1.889764,1.889764 0 0 1 -1.8898,-1.8898 v -5.6694 h -20.3386 a 1.889764,1.889764 0 0 1 -1.8898,-1.8897 v -49.1339 a 1.889764,1.889764 0 0 1 1.8898,-1.8898 z"
       style="fill:none;stroke:#000000"
       id="path1208" />
    <path
       d="m -5169.6144,-4167.2131 v -49.1339 a 1.889764,1.889764 0 0 1 1.8898,-1.8898 h 58.1339 a 1.889764,1.889764 0 0 1 1.8897,1.8898 v 49.1339 a 1.889764,1.889764 0 0 1 -1.8897,1.8897 h -58.1339 a 1.889764,1.889764 0 0 1 -1.8898,-1.8897 z"
       style="fill:none;stroke:#000000"
       id="path1210" />
    <path
       d="m -5097.3073,-4167.2131 v -49.1339 a 1.889764,1.889764 0 0 1 1.8898,-1.8898 h 3.7795 a 1.889764,1.889764 0 0 1 1.8898,1.8898 v 49.1339 a 1.889764,1.889764 0 0 1 -1.8898,1.8897 h -3.7795 a 1.889764,1.889764 0 0 1 -1.8898,-1.8897 z"
       style="fill:none;stroke:#000000"
       id="path1212" />
    <path
       d="m -5079.6144,-4167.2131 v -49.1339 a 1.889764,1.889764 0 0 1 1.8898,-1.8898 h 58.1339 a 1.889764,1.889764 0 0 1 1.8897,1.8898 v 49.1339 a 1.889764,1.889764 0 0 1 -1.8897,1.8897 h -58.1339 a 1.889764,1.889764 0 0 1 -1.8898,-1.8897 z"
       style="fill:none;stroke:#000000"
       id="path1214" />
    <path
       d="m -5007.26,-4167.2131 v -49.1339 a 1.889764,1.889764 0 0 1 1.8897,-1.8898 h 3.7796 a 1.889764,1.889764 0 0 1 1.8897,1.8898 v 49.1339 a 1.889764,1.889764 0 0 1 -1.8897,1.8897 h -3.7796 a 1.889764,1.889764 0 0 1 -1.8897,-1.8897 z"
       style="fill:none;stroke:#000000"
       id="path1216" />
    <path
       d="m -4989.6144,-4167.2131 v -49.1339 a 1.889764,1.889764 0 0 1 1.8898,-1.8898 h 58.1339 a 1.889764,1.889764 0 0 1 1.8897,1.8898 v 49.1339 a 1.889764,1.889764 0 0 1 -1.8897,1.8897 h -58.1339 a 1.889764,1.889764 0 0 1 -1.8898,-1.8897 z"
       style="fill:none;stroke:#000000"
       id="path1218" />
    <path
       d="m -4917.3073,-4167.2131 v -49.1339 a 1.889764,1.889764 0 0 1 1.8898,-1.8898 h 3.7795 a 1.889764,1.889764 0 0 1 1.8898,1.8898 v 49.1339 a 1.889764,1.889764 0 0 1 -1.8898,1.8897 h -3.7795 a 1.889764,1.889764 0 0 1 -1.8898,-1.8897 z"
       style="fill:none;stroke:#000000"
       id="path1220" />
    <path
       d="m -4576.701,-4216.347 v 49.1339 a 1.889764,1.889764 0 0 1 -1.8897,1.8897 h -94.1339 a 1.889764,1.889764 0 0 1 -1.8898,-1.8897 v -49.1339 a 1.889764,1.889764 0 0 1 1.8898,-1.8898 h 94.1339 a 1.889764,1.889764 0 0 1 1.8897,1.8898 z"
       style="fill:none;stroke:#000000"
       id="path1222" />
    <path
       d="m -4314.6144,-3879.2131 v -49.1339 a 1.889764,1.889764 0 0 1 1.8898,-1.8898 h 49.1339 a 1.889764,1.889764 0 0 1 1.8897,1.8898 v 49.1339 a 1.889764,1.889764 0 0 1 -1.8897,1.8897 h -49.1339 a 1.889764,1.889764 0 0 1 -1.8898,-1.8897 z"
       style="fill:none;stroke:#000000"
       id="path1224" />
    <path
       d="m -4170.6144,-3879.2131 v -49.1339 a 1.889764,1.889764 0 0 1 1.8898,-1.8898 h 49.1339 a 1.889764,1.889764 0 0 1 1.8897,1.8898 v 49.1339 a 1.889764,1.889764 0 0 1 -1.8897,1.8897 h -49.1339 a 1.889764,1.889764 0 0 1 -1.8898,-1.8897 z"
       style="fill:none;stroke:#000000"
       id="path1226" />
    <path
       d="m -4191.5907,-3877.3234 a 1.889764,1.889764 0 0 0 1.8897,-1.8897 v -49.1339 a 1.889764,1.889764 0 0 0 -1.8897,-1.8898 h -49.1339 a 1.889764,1.889764 0 0 0 -1.8898,1.8898 v 49.1339 a 1.889764,1.889764 0 0 0 1.8898,1.8897 z"
       style="fill:none;stroke:#000000"
       id="path1228" />
    <path
       d="m -4551.5907,-3877.3234 h -49.1339 a 1.889764,1.889764 0 0 1 -1.8898,-1.8897 v -49.1339 a 1.889764,1.889764 0 0 1 1.8898,-1.8898 h 49.1339 a 1.889764,1.889764 0 0 1 1.8897,1.8898 v 49.1339 a 1.889764,1.889764 0 0 1 -1.8897,1.8897 z"
       style="fill:none;stroke:#000000"
       id="path1230" />
    <path
       d="m -4335.5907,-3877.3234 h -49.1339 a 1.889764,1.889764 0 0 1 -1.8898,-1.8897 v -49.1339 a 1.889764,1.889764 0 0 1 1.8898,-1.8898 h 49.1339 a 1.889764,1.889764 0 0 1 1.8897,1.8898 v 49.1339 a 1.889764,1.889764 0 0 1 -1.8897,1.8897 z"
       style="fill:none;stroke:#000000"
       id="path1232" />
    <path
       d="m -4623.5907,-3877.3234 h -49.1339 a 1.889764,1.889764 0 0 1 -1.8898,-1.8897 v -49.1339 a 1.889764,1.889764 0 0 1 1.8898,-1.8898 h 49.1339 a 1.889764,1.889764 0 0 1 1.8897,1.8898 v 49.1339 a 1.889764,1.889764 0 0 1 -1.8897,1.8897 z"
       style="fill:none;stroke:#000000"
       id="path1234" />
    <path
       d="m -5034.6144,-3879.2131 v -49.1339 a 1.889764,1.889764 0 0 1 1.8898,-1.8898 h 49.1339 a 1.889764,1.889764 0 0 1 1.8897,1.8898 v 49.1339 a 1.889764,1.889764 0 0 1 -1.8897,1.8897 h -49.1339 a 1.889764,1.889764 0 0 1 -1.8898,-1.8897 z"
       style="fill:none;stroke:#000000"
       id="path1236" />
    <path
       d="m -4746.6144,-3879.2131 v -49.1339 a 1.889764,1.889764 0 0 1 1.8898,-1.8898 h 49.1339 a 1.889764,1.889764 0 0 1 1.8897,1.8898 v 49.1339 a 1.889764,1.889764 0 0 1 -1.8897,1.8897 h -49.1339 a 1.889764,1.889764 0 0 1 -1.8898,-1.8897 z"
       style="fill:none;stroke:#000000"
       id="path1238" />
    <path
       d="m -4962.6144,-3879.2131 v -49.1339 a 1.889764,1.889764 0 0 1 1.8898,-1.8898 h 49.1339 a 1.889764,1.889764 0 0 1 1.8897,1.8898 v 49.1339 a 1.889764,1.889764 0 0 1 -1.8897,1.8897 h -49.1339 a 1.889764,1.889764 0 0 1 -1.8898,-1.8897 z"
       style="fill:none;stroke:#000000"
       id="path1240" />
    <path
       d="m -4137.5907,-3949.3234 h -49.1339 a 1.889764,1.889764 0 0 1 -1.8898,-1.8897 v -49.1339 a 1.889764,1.889764 0 0 1 1.8898,-1.8898 h 49.1339 a 1.889764,1.889764 0 0 1 1.8897,1.8898 v 49.1339 a 1.889764,1.889764 0 0 1 -1.8897,1.8897 z"
       style="fill:none;stroke:#000000"
       id="path1242" />
    <path
       d="m -4119.638,-3949.3234 h -3.7795 a 1.889764,1.889764 0 0 1 -1.8898,-1.8897 v -49.1339 a 1.889764,1.889764 0 0 1 1.8898,-1.8898 h 3.7795 a 1.889764,1.889764 0 0 1 1.8898,1.8898 v 49.1339 a 1.889764,1.889764 0 0 1 -1.8898,1.8897 z"
       style="fill:none;stroke:#000000"
       id="path1244" />
    <path
       d="m -5148.0493,-3930.2368 h 63.7833 v -5.6693 a 1.889764,1.889764 0 0 1 1.8898,-1.8897 h 22.6771 a 1.889764,1.889764 0 0 1 1.8898,1.8897 v 5.6693 h 2.2186 a 1.889764,1.889764 0 0 1 1.8897,1.8898 v 49.1339 a 1.889764,1.889764 0 0 1 -1.8897,1.8897 h -121.1339 a 1.889764,1.889764 0 0 1 -1.8898,-1.8897 v -49.1339 a 1.889764,1.889764 0 0 1 1.8898,-1.8898 h 2.2186 v -5.6693 a 1.889764,1.889764 0 0 1 1.8898,-1.8897 h 22.6771 a 1.889764,1.889764 0 0 1 1.8898,1.8897 z"
       style="fill:none;stroke:#000000"
       id="path1246" />
    <path
       d="m -4200.8978,-3949.3234 h -3.7795 a 1.889764,1.889764 0 0 1 -1.8898,-1.8897 v -49.1339 a 1.889764,1.889764 0 0 1 1.8898,-1.8898 h 3.7795 a 1.889764,1.889764 0 0 1 1.8897,1.8898 v 49.1339 a 1.889764,1.889764 0 0 1 -1.8897,1.8897 z"
       style="fill:none;stroke:#000000"
       id="path1248" />
    <path
       d="m -4515.5907,-3949.3234 h -49.1339 a 1.889764,1.889764 0 0 1 -1.8898,-1.8897 v -49.1339 a 1.889764,1.889764 0 0 1 1.8898,-1.8898 h 49.1339 a 1.889764,1.889764 0 0 1 1.8897,1.8898 v 49.1339 a 1.889764,1.889764 0 0 1 -1.8897,1.8897 z"
       style="fill:none;stroke:#000000"
       id="path1250" />
    <path
       d="m -4443.5907,-3949.3234 h -49.1339 a 1.889764,1.889764 0 0 1 -1.8898,-1.8897 v -49.1339 a 1.889764,1.889764 0 0 1 1.8898,-1.8898 h 49.1339 a 1.889764,1.889764 0 0 1 1.8897,1.8898 v 49.1339 a 1.889764,1.889764 0 0 1 -1.8897,1.8897 z"
       style="fill:none;stroke:#000000"
       id="path1252" />
    <path
       d="m -4587.5907,-3949.3234 h -49.1339 a 1.889764,1.889764 0 0 1 -1.8898,-1.8897 v -49.1339 a 1.889764,1.889764 0 0 1 1.8898,-1.8898 h 49.1339 a 1.889764,1.889764 0 0 1 1.8897,1.8898 v 49.1339 a 1.889764,1.889764 0 0 1 -1.8897,1.8897 z"
       style="fill:none;stroke:#000000"
       id="path1254" />
    <path
       d="m -4371.5907,-3949.3234 h -49.1339 a 1.889764,1.889764 0 0 1 -1.8898,-1.8897 v -49.1339 a 1.889764,1.889764 0 0 1 1.8898,-1.8898 h 49.1339 a 1.889764,1.889764 0 0 1 1.8897,1.8898 v 49.1339 a 1.889764,1.889764 0 0 1 -1.8897,1.8897 z"
       style="fill:none;stroke:#000000"
       id="path1256" />
    <path
       d="m -4227.5907,-3949.3234 a 1.889764,1.889764 0 0 0 1.8897,-1.8897 v -49.1339 a 1.889764,1.889764 0 0 0 -1.8897,-1.8898 h -49.1339 a 1.889764,1.889764 0 0 0 -1.8898,1.8898 v 49.1339 a 1.889764,1.889764 0 0 0 1.8898,1.8897 z"
       style="fill:none;stroke:#000000"
       id="path1258" />
    <path
       d="m -4659.5907,-3949.3234 h -49.1339 a 1.889764,1.889764 0 0 1 -1.8898,-1.8897 v -49.1339 a 1.889764,1.889764 0 0 1 1.8898,-1.8898 h 49.1339 a 1.889764,1.889764 0 0 1 1.8897,1.8898 v 49.1339 a 1.889764,1.889764 0 0 1 -1.8897,1.8897 z"
       style="fill:none;stroke:#000000"
       id="path1260" />
    <path
       d="m -4299.5907,-3949.3234 h -49.1339 a 1.889764,1.889764 0 0 1 -1.8898,-1.8897 v -49.1339 a 1.889764,1.889764 0 0 1 1.8898,-1.8898 h 49.1339 a 1.889764,1.889764 0 0 1 1.8897,1.8898 v 49.1339 a 1.889764,1.889764 0 0 1 -1.8897,1.8897 z"
       style="fill:none;stroke:#000000"
       id="path1262" />
    <path
       d="m -4731.5907,-3949.3234 h -49.1339 a 1.889764,1.889764 0 0 1 -1.8898,-1.8897 v -49.1339 a 1.889764,1.889764 0 0 1 1.8898,-1.8898 h 49.1339 a 1.889764,1.889764 0 0 1 1.8897,1.8898 v 49.1339 a 1.889764,1.889764 0 0 1 -1.8897,1.8897 z"
       style="fill:none;stroke:#000000"
       id="path1264" />
    <path
       d="m -4947.5907,-3949.3234 a 1.889764,1.889764 0 0 0 1.8897,-1.8897 v -49.1339 a 1.889764,1.889764 0 0 0 -1.8897,-1.8898 h -49.1339 a 1.889764,1.889764 0 0 0 -1.8898,1.8898 v 49.1339 a 1.889764,1.889764 0 0 0 1.8898,1.8897 z"
       style="fill:none;stroke:#000000"
       id="path1266" />
    <path
       d="m -4803.5907,-3949.3234 h -49.1339 a 1.889764,1.889764 0 0 1 -1.8898,-1.8897 v -49.1339 a 1.889764,1.889764 0 0 1 1.8898,-1.8898 h 49.1339 a 1.889764,1.889764 0 0 1 1.8897,1.8898 v 49.1339 a 1.889764,1.889764 0 0 1 -1.8897,1.8897 z"
       style="fill:none;stroke:#000000"
       id="path1268" />
    <path
       d="m -5091.638,-3949.3234 h -3.7795 a 1.889764,1.889764 0 0 1 -1.8898,-1.8897 v -49.1339 a 1.889764,1.889764 0 0 1 1.8898,-1.8898 h 3.7795 a 1.889764,1.889764 0 0 1 1.8898,1.8898 v 49.1339 a 1.889764,1.889764 0 0 1 -1.8898,1.8897 z"
       style="fill:none;stroke:#000000"
       id="path1270" />
    <path
       d="m -5172.8978,-3949.3234 h -3.7795 a 1.889764,1.889764 0 0 1 -1.8898,-1.8897 v -49.1339 a 1.889764,1.889764 0 0 1 1.8898,-1.8898 h 3.7795 a 1.889764,1.889764 0 0 1 1.8897,1.8898 v 49.1339 a 1.889764,1.889764 0 0 1 -1.8897,1.8897 z"
       style="fill:none;stroke:#000000"
       id="path1272" />
    <path
       d="m -5109.5907,-3949.3234 h -49.1339 a 1.889764,1.889764 0 0 1 -1.8898,-1.8897 v -49.1339 a 1.889764,1.889764 0 0 1 1.8898,-1.8898 h 49.1339 a 1.889764,1.889764 0 0 1 1.8897,1.8898 v 49.1339 a 1.889764,1.889764 0 0 1 -1.8897,1.8897 z"
       style="fill:none;stroke:#000000"
       id="path1274" />
    <path
       d="m -4875.5907,-3949.3234 h -49.1339 a 1.889764,1.889764 0 0 1 -1.8898,-1.8897 v -49.1339 a 1.889764,1.889764 0 0 1 1.8898,-1.8898 h 49.1339 a 1.889764,1.889764 0 0 1 1.8897,1.8898 v 49.1339 a 1.889764,1.889764 0 0 1 -1.8897,1.8897 z"
       style="fill:none;stroke:#000000"
       id="path1276" />
    <path
       d="m -5019.5907,-3949.3234 h -49.1339 a 1.889764,1.889764 0 0 1 -1.8898,-1.8897 v -49.1339 a 1.889764,1.889764 0 0 1 1.8898,-1.8898 h 49.1339 a 1.889764,1.889764 0 0 1 1.8897,1.8898 v 49.1339 a 1.889764,1.889764 0 0 1 -1.8897,1.8897 z"
       style="fill:none;stroke:#000000"
       id="path1278" />
    <path
       d="m -4215.5671,-4023.2131 v -49.1339 a 1.889764,1.889764 0 0 1 1.8898,-1.8898 h 3.7795 a 1.889764,1.889764 0 0 1 1.8897,1.8898 v 49.1339 a 1.889764,1.889764 0 0 1 -1.8897,1.8897 h -3.7795 a 1.889764,1.889764 0 0 1 -1.8898,-1.8897 z"
       style="fill:none;stroke:#000000"
       id="path1280" />
    <path
       d="m -4317.5907,-4021.3234 a 1.889764,1.889764 0 0 0 1.8897,-1.8897 v -49.1339 a 1.889764,1.889764 0 0 0 -1.8897,-1.8898 h -49.1339 a 1.889764,1.889764 0 0 0 -1.8898,1.8898 v 49.1339 a 1.889764,1.889764 0 0 0 1.8898,1.8897 z"
       style="fill:none;stroke:#000000"
       id="path1282" />
    <path
       d="m -4461.5907,-4021.3234 h -49.1339 a 1.889764,1.889764 0 0 1 -1.8898,-1.8897 v -49.1339 a 1.889764,1.889764 0 0 1 1.8898,-1.8898 h 49.1339 a 1.889764,1.889764 0 0 1 1.8897,1.8898 v 49.1339 a 1.889764,1.889764 0 0 1 -1.8897,1.8897 z"
       style="fill:none;stroke:#000000"
       id="path1284" />
    <path
       d="m -4245.5907,-4021.3234 a 1.889764,1.889764 0 0 0 1.8897,-1.8897 v -49.1339 a 1.889764,1.889764 0 0 0 -1.8897,-1.8898 h -49.1339 a 1.889764,1.889764 0 0 0 -1.8898,1.8898 v 49.1339 a 1.889764,1.889764 0 0 0 1.8898,1.8897 z"
       style="fill:none;stroke:#000000"
       id="path1286" />
    <path
       d="m -4389.5907,-4021.3234 h -49.1339 a 1.889764,1.889764 0 0 1 -1.8898,-1.8897 v -49.1339 a 1.889764,1.889764 0 0 1 1.8898,-1.8898 h 49.1339 a 1.889764,1.889764 0 0 1 1.8897,1.8898 v 49.1339 a 1.889764,1.889764 0 0 1 -1.8897,1.8897 z"
       style="fill:none;stroke:#000000"
       id="path1288" />
    <path
       d="m -4128.5907,-4021.3234 h -67.1339 a 1.889764,1.889764 0 0 1 -1.8898,-1.8897 v -49.1339 a 1.889764,1.889764 0 0 1 1.8898,-1.8898 h 67.1339 a 1.889764,1.889764 0 0 1 1.8897,1.8898 v 49.1339 a 1.889764,1.889764 0 0 1 -1.8897,1.8897 z"
       style="fill:none;stroke:#000000"
       id="path1290" />
    <path
       d="m -4965.5907,-4021.3234 h -49.1339 a 1.889764,1.889764 0 0 1 -1.8898,-1.8897 v -49.1339 a 1.889764,1.889764 0 0 1 1.8898,-1.8898 h 49.1339 a 1.889764,1.889764 0 0 1 1.8897,1.8898 v 49.1339 a 1.889764,1.889764 0 0 1 -1.8897,1.8897 z"
       style="fill:none;stroke:#000000"
       id="path1292" />
    <path
       d="m -4749.5907,-4021.3234 h -49.1339 a 1.889764,1.889764 0 0 1 -1.8898,-1.8897 v -49.1339 a 1.889764,1.889764 0 0 1 1.8898,-1.8898 h 49.1339 a 1.889764,1.889764 0 0 1 1.8897,1.8898 v 49.1339 a 1.889764,1.889764 0 0 1 -1.8897,1.8897 z"
       style="fill:none;stroke:#000000"
       id="path1294" />
    <path
       d="m -4944.6144,-4023.2131 v -49.1339 a 1.889764,1.889764 0 0 1 1.8898,-1.8898 h 49.1339 a 1.889764,1.889764 0 0 1 1.8897,1.8898 v 49.1339 a 1.889764,1.889764 0 0 1 -1.8897,1.8897 h -49.1339 a 1.889764,1.889764 0 0 1 -1.8898,-1.8897 z"
       style="fill:none;stroke:#000000"
       id="path1296" />
    <path
       d="m -4821.5907,-4021.3234 h -49.1339 a 1.889764,1.889764 0 0 1 -1.8898,-1.8897 v -49.1339 a 1.889764,1.889764 0 0 1 1.8898,-1.8898 h 49.1339 a 1.889764,1.889764 0 0 1 1.8897,1.8898 v 49.1339 a 1.889764,1.889764 0 0 1 -1.8897,1.8897 z"
       style="fill:none;stroke:#000000"
       id="path1298" />
    <path
       d="m -4728.6144,-4023.2131 v -49.1339 a 1.889764,1.889764 0 0 1 1.8898,-1.8898 h 49.1339 a 1.889764,1.889764 0 0 1 1.8897,1.8898 v 49.1339 a 1.889764,1.889764 0 0 1 -1.8897,1.8897 h -49.1339 a 1.889764,1.889764 0 0 1 -1.8898,-1.8897 z"
       style="fill:none;stroke:#000000"
       id="path1300" />
    <path
       d="m -4605.5907,-4021.3234 h -49.1339 a 1.889764,1.889764 0 0 1 -1.8898,-1.8897 v -49.1339 a 1.889764,1.889764 0 0 1 1.8898,-1.8898 h 49.1339 a 1.889764,1.889764 0 0 1 1.8897,1.8898 v 49.1339 a 1.889764,1.889764 0 0 1 -1.8897,1.8897 z"
       style="fill:none;stroke:#000000"
       id="path1302" />
    <path
       d="m -5082.5907,-4021.3234 h -49.1339 a 1.889764,1.889764 0 0 1 -1.8898,-1.8897 v -49.1339 a 1.889764,1.889764 0 0 1 1.8898,-1.8898 h 49.1339 a 1.889764,1.889764 0 0 1 1.8897,1.8898 v 49.1339 a 1.889764,1.889764 0 0 1 -1.8897,1.8897 z"
       style="fill:none;stroke:#000000"
       id="path1304" />
    <path
       d="m -4533.5907,-4021.3234 a 1.889764,1.889764 0 0 0 1.8897,-1.8897 v -49.1339 a 1.889764,1.889764 0 0 0 -1.8897,-1.8898 h -49.1339 a 1.889764,1.889764 0 0 0 -1.8898,1.8898 v 49.1339 a 1.889764,1.889764 0 0 0 1.8898,1.8897 z"
       style="fill:none;stroke:#000000"
       id="path1306" />
    <path
       d="m -5140.9391,-4025.1029 h -22.6771 a 1.889764,1.889764 0 0 1 -1.8898,-1.8898 v -52.9134 a 1.889764,1.889764 0 0 1 1.8898,-1.8897 h 22.6771 a 1.889764,1.889764 0 0 1 1.8898,1.8897 v 52.9134 a 1.889764,1.889764 0 0 1 -1.8898,1.8898 z"
       style="fill:none;stroke:#000000"
       id="path1308" />
    <path
       d="m -4132.6991,-4097.1029 h -22.6771 a 1.889764,1.889764 0 0 1 -1.8898,-1.8898 v -52.9134 a 1.889764,1.889764 0 0 1 1.8898,-1.8897 h 22.6771 a 1.889764,1.889764 0 0 1 1.8898,1.8897 v 52.9134 a 1.889764,1.889764 0 0 1 -1.8898,1.8898 z"
       style="fill:none;stroke:#000000"
       id="path1310" />
    <path
       d="m -5174.2443,-4021.3234 h -3.7795 a 1.889764,1.889764 0 0 1 -1.8898,-1.8897 v -49.1339 a 1.889764,1.889764 0 0 1 1.8898,-1.8898 h 3.7795 a 1.889764,1.889764 0 0 1 1.8898,1.8898 v 49.1339 a 1.889764,1.889764 0 0 1 -1.8898,1.8897 z"
       style="fill:none;stroke:#000000"
       id="path1312" />
    <path
       d="m -5075.266,-4026.9927 v -52.9134 a 1.889764,1.889764 0 0 1 1.8898,-1.8897 h 22.6771 a 1.889764,1.889764 0 0 1 1.8898,1.8897 v 52.9134 a 1.889764,1.889764 0 0 1 -1.8898,1.8898 h -22.6771 a 1.889764,1.889764 0 0 1 -1.8898,-1.8898 z"
       style="fill:none;stroke:#000000"
       id="path1314" />
    <path
       d="m -5036.2915,-4021.3234 h -3.7795 a 1.889764,1.889764 0 0 1 -1.8898,-1.8897 v -49.1339 a 1.889764,1.889764 0 0 1 1.8898,-1.8898 h 3.7795 a 1.889764,1.889764 0 0 1 1.8897,1.8898 v 49.1339 a 1.889764,1.889764 0 0 1 -1.8897,1.8897 z"
       style="fill:none;stroke:#000000"
       id="path1316" />
    <path
       d="m -4164.5907,-4093.3234 h -49.1339 a 1.889764,1.889764 0 0 1 -1.8898,-1.8897 v -49.1339 a 1.889764,1.889764 0 0 1 1.8898,-1.8898 h 49.1339 a 1.889764,1.889764 0 0 1 1.8897,1.8898 v 49.1339 a 1.889764,1.889764 0 0 1 -1.8897,1.8897 z"
       style="fill:none;stroke:#000000"
       id="path1318" />
    <path
       d="m -4497.5907,-4093.3234 h -49.1339 a 1.889764,1.889764 0 0 1 -1.8898,-1.8897 v -49.1339 a 1.889764,1.889764 0 0 1 1.8898,-1.8898 h 49.1339 a 1.889764,1.889764 0 0 1 1.8897,1.8898 v 49.1339 a 1.889764,1.889764 0 0 1 -1.8897,1.8897 z"
       style="fill:none;stroke:#000000"
       id="path1320" />
    <path
       d="m -4256.2443,-4093.3234 a 1.889764,1.889764 0 0 0 1.8898,-1.8897 v -49.1339 a 1.889764,1.889764 0 0 0 -1.8898,-1.8898 h -3.7795 a 1.889764,1.889764 0 0 0 -1.8898,1.8898 v 49.1339 a 1.889764,1.889764 0 0 0 1.8898,1.8897 z"
       style="fill:none;stroke:#000000"
       id="path1322" />
    <path
       d="m -4569.5907,-4093.3234 h -49.1339 a 1.889764,1.889764 0 0 1 -1.8898,-1.8897 v -49.1339 a 1.889764,1.889764 0 0 1 1.8898,-1.8898 h 49.1339 a 1.889764,1.889764 0 0 1 1.8897,1.8898 v 49.1339 a 1.889764,1.889764 0 0 1 -1.8897,1.8897 z"
       style="fill:none;stroke:#000000"
       id="path1324" />
    <path
       d="m -4222.9391,-4097.1029 h -22.6771 a 1.889764,1.889764 0 0 1 -1.8898,-1.8898 v -52.9134 a 1.889764,1.889764 0 0 1 1.8898,-1.8897 h 22.6771 a 1.889764,1.889764 0 0 1 1.8898,1.8897 v 52.9134 a 1.889764,1.889764 0 0 1 -1.8898,1.8898 z"
       style="fill:none;stroke:#000000"
       id="path1326" />
    <path
       d="m -4353.5907,-4093.3234 a 1.889764,1.889764 0 0 0 1.8897,-1.8897 v -49.1339 a 1.889764,1.889764 0 0 0 -1.8897,-1.8898 h -49.1339 a 1.889764,1.889764 0 0 0 -1.8898,1.8898 v 49.1339 a 1.889764,1.889764 0 0 0 1.8898,1.8897 z"
       style="fill:none;stroke:#000000"
       id="path1328" />
    <path
       d="m -4332.6144,-4095.2131 v -49.1339 a 1.889764,1.889764 0 0 1 1.8898,-1.8898 h 49.1339 a 1.889764,1.889764 0 0 1 1.8897,1.8898 v 49.1339 a 1.889764,1.889764 0 0 1 -1.8897,1.8897 h -49.1339 a 1.889764,1.889764 0 0 1 -1.8898,-1.8897 z"
       style="fill:none;stroke:#000000"
       id="path1330" />
    <path
       d="m -4476.6144,-4095.2131 v -49.1339 a 1.889764,1.889764 0 0 1 1.8898,-1.8898 h 49.1339 a 1.889764,1.889764 0 0 1 1.8897,1.8898 v 49.1339 a 1.889764,1.889764 0 0 1 -1.8897,1.8897 h -49.1339 a 1.889764,1.889764 0 0 1 -1.8898,-1.8897 z"
       style="fill:none;stroke:#000000"
       id="path1332" />
    <path
       d="m -4118.2915,-4093.3234 a 1.889764,1.889764 0 0 0 1.8897,-1.8897 v -49.1339 a 1.889764,1.889764 0 0 0 -1.8897,-1.8898 h -3.7795 a 1.889764,1.889764 0 0 0 -1.8898,1.8898 v 49.1339 a 1.889764,1.889764 0 0 0 1.8898,1.8897 z"
       style="fill:none;stroke:#000000"
       id="path1334" />
    <path
       d="m -4929.5907,-4093.3234 h -49.1339 a 1.889764,1.889764 0 0 1 -1.8898,-1.8897 v -49.1339 a 1.889764,1.889764 0 0 1 1.8898,-1.8898 h 49.1339 a 1.889764,1.889764 0 0 1 1.8897,1.8898 v 49.1339 a 1.889764,1.889764 0 0 1 -1.8897,1.8897 z"
       style="fill:none;stroke:#000000"
       id="path1336" />
    <path
       d="m -4785.5907,-4093.3234 h -49.1339 a 1.889764,1.889764 0 0 1 -1.8898,-1.8897 v -49.1339 a 1.889764,1.889764 0 0 1 1.8898,-1.8898 h 49.1339 a 1.889764,1.889764 0 0 1 1.8897,1.8898 v 49.1339 a 1.889764,1.889764 0 0 1 -1.8897,1.8897 z"
       style="fill:none;stroke:#000000"
       id="path1338" />
    <path
       d="m -4713.5907,-4093.3234 h -49.1339 a 1.889764,1.889764 0 0 1 -1.8898,-1.8897 v -49.1339 a 1.889764,1.889764 0 0 1 1.8898,-1.8898 h 49.1339 a 1.889764,1.889764 0 0 1 1.8897,1.8898 v 49.1339 a 1.889764,1.889764 0 0 1 -1.8897,1.8897 z"
       style="fill:none;stroke:#000000"
       id="path1340" />
    <path
       d="m -4641.5907,-4093.3234 h -49.1339 a 1.889764,1.889764 0 0 1 -1.8898,-1.8897 v -49.1339 a 1.889764,1.889764 0 0 1 1.8898,-1.8898 h 49.1339 a 1.889764,1.889764 0 0 1 1.8897,1.8898 v 49.1339 a 1.889764,1.889764 0 0 1 -1.8897,1.8897 z"
       style="fill:none;stroke:#000000"
       id="path1342" />
    <path
       d="m -4857.5907,-4093.3234 h -49.1339 a 1.889764,1.889764 0 0 1 -1.8898,-1.8897 v -49.1339 a 1.889764,1.889764 0 0 1 1.8898,-1.8898 h 49.1339 a 1.889764,1.889764 0 0 1 1.8897,1.8898 v 49.1339 a 1.889764,1.889764 0 0 1 -1.8897,1.8897 z"
       style="fill:none;stroke:#000000"
       id="path1344" />
    <path
       d="m -5113.7246,-4146.2368 h 56.4586 v -5.6693 a 1.889764,1.889764 0 0 1 1.8898,-1.8897 h 22.6771 a 1.889764,1.889764 0 0 1 1.8898,1.8897 v 5.6693 h 2.2186 a 1.889764,1.889764 0 0 1 1.8897,1.8898 v 49.1339 a 1.889764,1.889764 0 0 1 -1.8897,1.8897 h -85.1339 a 1.889764,1.889764 0 0 1 -1.8898,-1.8897 v -49.1339 a 1.889764,1.889764 0 0 1 1.8898,-1.8898 z"
       style="fill:none;stroke:#000000"
       id="path1346" />
    <path
       d="m -5176.7246,-4146.2368 h 29.2186 v -5.6693 a 1.889764,1.889764 0 0 1 1.8898,-1.8897 h 22.6771 a 1.889764,1.889764 0 0 1 1.8898,1.8897 v 52.9134 a 1.889764,1.889764 0 0 1 -1.8898,1.8898 h -2.7619 v 1.8898 a 1.889764,1.889764 0 0 1 -1.8897,1.8897 h -49.1339 a 1.889764,1.889764 0 0 1 -1.8898,-1.8897 v -49.1339 a 1.889764,1.889764 0 0 1 1.8898,-1.8898 z"
       style="fill:none;stroke:#000000"
       id="path1348" />
    <path
       d="m -4188.6144,-4167.2131 v -49.1339 a 1.889764,1.889764 0 0 1 1.8898,-1.8898 h 58.1339 a 1.889764,1.889764 0 0 1 1.8897,1.8898 v 49.1339 a 1.889764,1.889764 0 0 1 -1.8897,1.8897 h -58.1339 a 1.889764,1.889764 0 0 1 -1.8898,-1.8897 z"
       style="fill:none;stroke:#000000"
       id="path1350" />
    <path
       d="m -4218.5907,-4165.3234 h -58.1339 a 1.889764,1.889764 0 0 1 -1.8898,-1.8897 v -49.1339 a 1.889764,1.889764 0 0 1 1.8898,-1.8898 h 58.1339 a 1.889764,1.889764 0 0 1 1.8897,1.8898 v 49.1339 a 1.889764,1.889764 0 0 1 -1.8897,1.8897 z"
       style="fill:none;stroke:#000000"
       id="path1352" />
    <path
       d="m -4290.9451,-4165.3234 h -3.7795 a 1.889764,1.889764 0 0 1 -1.8898,-1.8897 v -49.1339 a 1.889764,1.889764 0 0 1 1.8898,-1.8898 h 3.7795 a 1.889764,1.889764 0 0 1 1.8898,1.8898 v 49.1339 a 1.889764,1.889764 0 0 1 -1.8898,1.8897 z"
       style="fill:none;stroke:#000000"
       id="path1354" />
    <path
       d="m -4366.7246,-4218.2368 h 58.1339 a 1.889764,1.889764 0 0 1 1.8897,1.8898 v 49.1339 a 1.889764,1.889764 0 0 1 -1.8897,1.8897 h -58.1339 a 1.889764,1.889764 0 0 1 -1.8898,-1.8897 v -49.1339 a 1.889764,1.889764 0 0 1 1.8898,-1.8898 z"
       style="fill:none;stroke:#000000"
       id="path1356" />
    <path
       d="m -4200.8978,-4165.3234 h -3.7795 a 1.889764,1.889764 0 0 1 -1.8898,-1.8897 v -49.1339 a 1.889764,1.889764 0 0 1 1.8898,-1.8898 h 3.7795 a 1.889764,1.889764 0 0 1 1.8897,1.8898 v 49.1339 a 1.889764,1.889764 0 0 1 -1.8897,1.8897 z"
       style="fill:none;stroke:#000000"
       id="path1358" />
    <path
       d="m -4380.8978,-4165.3234 a 1.889764,1.889764 0 0 0 1.8897,-1.8897 v -49.1339 a 1.889764,1.889764 0 0 0 -1.8897,-1.8898 h -3.7795 a 1.889764,1.889764 0 0 0 -1.8898,1.8898 v 49.1339 a 1.889764,1.889764 0 0 0 1.8898,1.8897 z"
       style="fill:none;stroke:#000000"
       id="path1360" />
    <path
       d="m -4818.6144,-3879.2131 v -49.1339 a 1.889764,1.889764 0 0 1 1.8898,-1.8898 h 49.1339 a 1.889764,1.889764 0 0 1 1.8897,1.8898 v 49.1339 a 1.889764,1.889764 0 0 1 -1.8897,1.8897 h -49.1339 a 1.889764,1.889764 0 0 1 -1.8898,-1.8897 z"
       style="fill:none;stroke:#000000"
       id="path1362" />
    <path
       d="m -4839.5907,-3877.3234 a 1.889764,1.889764 0 0 0 1.8897,-1.8897 v -49.1339 a 1.889764,1.889764 0 0 0 -1.8897,-1.8898 h -49.1339 a 1.889764,1.889764 0 0 0 -1.8898,1.8898 v 49.1339 a 1.889764,1.889764 0 0 0 1.8898,1.8897 z"
       style="fill:none;stroke:#000000"
       id="path1364" />
    <path
       d="m -4119.638,-4165.3234 h -1.8897 a 1.889764,1.889764 0 0 1 -1.8898,-1.8897 v -49.1339 a 1.889764,1.889764 0 0 1 1.8898,-1.8898 h 1.8897 a 1.889764,1.889764 0 0 1 1.8898,1.8898 v 49.1339 a 1.889764,1.889764 0 0 1 -1.8898,1.8897 z"
       style="fill:none;stroke:#000000"
       id="path1366" />
    <path
       d="m -4651.7155,-3854.4414 a 4.1575,4.1575 0 1 0 -8.315,0 4.1575,4.1575 0 1 0 8.315,0 z"
       style="fill:none;stroke:#000000"
       id="path1368" />
    <path
       d="m -5028.062,-3854.4414 a 4.1574805,4.1574805 0 1 0 -8.3149,0 4.1574805,4.1574805 0 1 0 8.3149,0 z"
       style="fill:none;stroke:#000000"
       id="path1370" />
    <path
       d="m -4464.0002,-3854.4601 a 4.1574805,4.1574805 0 1 0 -8.3149,0 4.1574805,4.1574805 0 1 0 8.3149,0 z"
       style="fill:none;stroke:#000000"
       id="path1372" />
    <path
       d="m -4214.6774,-3854.4414 a 4.1575,4.1575 0 1 0 -8.315,0 4.1575,4.1575 0 1 0 8.315,0 z"
       style="fill:none;stroke:#000000"
       id="path1374" />
    <path
       d="m -5023.9261,-4240.1783 a 4.15748,4.15748 0 1 0 -8.3149,0 4.15748,4.15748 0 1 0 8.3149,0 z"
       style="fill:none;stroke:#000000"
       id="path1376" />
    <path
       d="m -4244.6631,-4240.1783 a 4.1575,4.1575 0 1 0 -8.315,0 4.1575,4.1575 0 1 0 8.315,0 z"
       style="fill:none;stroke:#000000"
       id="path1378" />
    <path
       d="m -4651.7371,-4240.1783 a 4.1575,4.1575 0 1 0 -8.315,0 4.1575,4.1575 0 1 0 8.315,0 z"
       style="fill:none;stroke:#000000"
       id="path1380" />
    <path
       d="m -4464.0002,-4239.3161 a 4.1574805,4.1574805 0 1 0 -8.3149,0 4.1574805,4.1574805 0 1 0 8.3149,0 z"
       style="fill:none;stroke:#000000"
       id="path1382" />
    <path
       d="m -4824.0002,-4239.3161 a 4.1574805,4.1574805 0 1 0 -8.3149,0 4.1574805,4.1574805 0 1 0 8.3149,0 z"
       style="fill:none;stroke:#000000"
       id="path1384" />
    <path
       d="m -4824.0002,-3854.4601 a 4.1574805,4.1574805 0 1 0 -8.3149,0 4.1574805,4.1574805 0 1 0 8.3149,0 z"
       style="fill:none;stroke:#000000"
       id="path1386" />
    <path
       d="m -4117.6065,-3867.632 a 7.559055,7.559055 0 0 0 7.5591,-7.5591 v -344.2032 a 7.559055,7.559055 0 0 0 -7.5591,-7.559 h -91.529 a 1.889764,1.889764 0 0 1 -1.8898,-1.8898 v -1.8864 a 1.889764,1.889764 0 0 1 1.8898,-1.8898 h 39.685 a 3.779528,3.779528 0 0 0 3.7795,-3.7795 v -5.6693 a 3.779528,3.779528 0 0 0 -3.7795,-3.7795 h -68.0315 v 18.8976 a 1.889764,1.889764 0 0 1 -3.7795,0 v -13.2284 a 7.559055,7.559055 0 0 0 -15.1181,0 v 13.2284 a 1.8898,1.8898 0 0 1 -3.7796,0 v -18.8976 h -68.0315 a 3.779528,3.779528 0 0 0 -3.7795,3.7795 v 5.6693 a 3.779528,3.779528 0 0 0 3.7795,3.7795 h 39.6851 a 1.889764,1.889764 0 0 1 1.8898,1.8898 v 1.8864 a 1.889764,1.889764 0 0 1 -1.8898,1.8898 h -170.2035 a 1.889764,1.889764 0 0 1 -1.8897,-1.8898 v -10.4126 a 7.559055,7.559055 0 1 0 -15.1179,-0.06 h -3e-4 v 10.473 a 1.889764,1.889764 0 0 1 -1.8898,1.8898 h -100.4333 a 1.889764,1.889764 0 0 1 -1.8898,-1.8898 v -1.8864 a 1.889764,1.889764 0 0 1 1.531,-1.8554 1.889764,1.889764 0 0 1 0.3588,-0.034 h 39.685 a 3.779528,3.779528 0 0 0 3.7796,-3.7795 v -5.6693 a 3.779528,3.779528 0 0 0 -3.7796,-3.7795 h -106.2009 v 18.8976 a 1.889764,1.889764 0 0 1 -3.7795,0 v -13.2284 a 7.5590555,7.5590555 0 0 0 -15.1181,0 v 13.2284 a 1.8898,1.8898 0 0 1 -3.7796,0 v -18.8976 h -106.2009 a 3.779528,3.779528 0 0 0 -3.7795,3.7795 v 5.6693 a 3.779528,3.779528 0 0 0 3.7795,3.7795 h 39.685 a 1.889764,1.889764 0 0 1 1.8898,1.8898 v 1.8864 a 1.889764,1.889764 0 0 1 -1.8898,1.8898 h -84.9597 a 1.889764,1.889764 0 0 1 -1.8898,-1.8898 v -10.473 a 7.559055,7.559055 0 1 0 -15.1179,0.051 v 10.4217 a 1.889764,1.889764 0 0 1 -1.8898,1.8898 h -147.0127 a 1.889764,1.889764 0 0 1 -1.8898,-1.8898 v -1.8864 a 1.889764,1.889764 0 0 1 1.8898,-1.8898 h 39.685 a 3.779528,3.779528 0 0 0 3.7796,-3.7795 v -5.6693 a 3.779528,3.779528 0 0 0 -3.7796,-3.7795 h -71.811 v 18.8976 a 1.889764,1.889764 0 0 1 -3.7795,0 v -13.2284 a 7.559055,7.559055 0 0 0 -15.1181,0 v 13.2284 a 1.8898,1.8898 0 0 1 -3.7796,0 v -18.8976 h -71.811 a 3.779528,3.779528 0 0 0 -3.7795,3.7795 v 5.6693 a 3.779528,3.779528 0 0 0 3.7795,3.7795 h 39.6851 a 1.889764,1.889764 0 0 1 1.8897,1.8898 v 1.8864 a 1.889764,1.889764 0 0 1 -1.8897,1.8898 h -107.1607 a 7.559055,7.559055 0 0 0 -7.5591,7.559 v 344.2032 a 7.559055,7.559055 0 0 0 7.5591,7.5591 h 103.0248 a 1.889764,1.889764 0 0 1 1.8897,1.8898 v 0.5291 a 1.889764,1.889764 0 0 1 -1.8897,1.8898 h -39.6851 a 3.779528,3.779528 0 0 0 -3.7795,3.7795 v 5.8583 a 3.779528,3.779528 0 0 0 3.7795,3.7795 h 71.8111 v -17.7637 a 1.889764,1.889764 0 0 1 3.7795,0 v 13.2283 a 7.5590555,7.5590555 0 0 0 15.1181,0 v -13.2283 a 1.889764,1.889764 0 0 1 3.7795,0 v 17.7637 h 71.8111 a 3.779528,3.779528 0 0 0 3.7795,-3.7795 v -5.8583 a 3.779528,3.779528 0 0 0 -3.7795,-3.7795 h -39.6851 a 1.889764,1.889764 0 0 1 -1.8897,-1.8898 v -0.5291 a 1.889764,1.889764 0 0 1 1.8897,-1.8898 h 151.1486 a 1.889764,1.889764 0 0 1 1.8898,1.8898 v 11.2308 a 7.559055,7.559055 0 1 0 15.1176,-0.016 v -11.2149 a 1.889764,1.889764 0 0 1 1.8898,-1.8898 h 84.9816 a 1.889764,1.889764 0 0 1 1.8898,1.8898 v 0.5291 a 1.889764,1.889764 0 0 1 -1.8898,1.8898 h -39.685 a 3.779528,3.779528 0 0 0 -3.7795,3.7795 v 5.8583 a 3.779528,3.779528 0 0 0 3.7795,3.7795 h 106.2009 v -17.7637 a 1.8898,1.8898 0 0 1 3.7796,0 v 13.2283 a 7.559055,7.559055 0 0 0 15.1181,0 v -13.2283 a 1.889764,1.889764 0 0 1 3.7795,0 v 17.7637 h 106.2009 a 3.779528,3.779528 0 0 0 3.7796,-3.7795 v -5.8583 a 3.779528,3.779528 0 0 0 -3.7796,-3.7795 h -39.685 a 1.889764,1.889764 0 0 1 -1.8898,-1.8898 v -0.5291 a 1.889764,1.889764 0 0 1 1.8898,-1.8898 h 100.4119 a 1.889764,1.889764 0 0 1 1.8897,1.8898 v 11.2821 h 2e-4 a 7.559055,7.559055 0 1 0 15.1177,-0.073 v -11.2087 a 1.889764,1.889764 0 0 1 1.8898,-1.8898 h 196.4098 a 1.889764,1.889764 0 0 1 1.8897,1.8898 v 0.5291 a 1.889764,1.889764 0 0 1 -1.8897,1.8898 h -39.6851 a 3.779528,3.779528 0 0 0 -3.7795,3.7795 v 5.8583 a 3.779528,3.779528 0 0 0 3.7795,3.7795 h 71.811 v -17.7637 a 1.8898,1.8898 0 0 1 3.7796,0 v 13.2283 a 7.5590555,7.5590555 0 0 0 15.1181,0 v -13.2283 a 1.889764,1.889764 0 0 1 3.7795,0 v 17.7637 h 71.811 a 3.779528,3.779528 0 0 0 3.7796,-3.7795 v -5.8583 a 3.779528,3.779528 0 0 0 -3.7796,-3.7795 h -39.685 a 1.889764,1.889764 0 0 1 -1.8898,-1.8898 v -0.5291 a 1.889764,1.889764 0 0 1 1.8898,-1.8898 z"
       style="fill:none;stroke:#000000"
       id="path1388" />
    <path
       d="m -4214.6774,-3854.4414 a 4.1575,4.1575 0 1 0 -8.315,0 4.1575,4.1575 0 1 0 8.315,0 z"
       style="fill:none;stroke:#000000"
       id="path1390" />
    <path
       d="m -4464.0002,-3854.4601 a 4.1574805,4.1574805 0 1 0 -8.3149,0 4.1574805,4.1574805 0 1 0 8.3149,0 z"
       style="fill:none;stroke:#000000"
       id="path1392" />
    <path
       d="m -4824.0002,-4239.3161 a 4.1574805,4.1574805 0 1 0 -8.3149,0 4.1574805,4.1574805 0 1 0 8.3149,0 z"
       style="fill:none;stroke:#000000"
       id="path1394" />
    <path
       d="m -4464.0002,-4239.3161 a 4.1574805,4.1574805 0 1 0 -8.3149,0 4.1574805,4.1574805 0 1 0 8.3149,0 z"
       style="fill:none;stroke:#000000"
       id="path1396" />
    <path
       d="m -4244.6631,-4240.1783 a 4.1575,4.1575 0 1 0 -8.315,0 4.1575,4.1575 0 1 0 8.315,0 z"
       style="fill:none;stroke:#000000"
       id="path1398" />
    <path
       d="m -4119.638,-4165.3234 h -1.8897 a 1.889764,1.889764 0 0 1 -1.8898,-1.8897 v -49.1339 a 1.889764,1.889764 0 0 1 1.8898,-1.8898 h 1.8897 a 1.889764,1.889764 0 0 1 1.8898,1.8898 v 49.1339 a 1.889764,1.889764 0 0 1 -1.8898,1.8897 z"
       style="fill:none;stroke:#000000"
       id="path1400" />
    <path
       d="m -4780.7955,-4214.4572 h -22.6771 a 1.889764,1.889764 0 0 0 -1.8898,1.8897 v 52.9134 a 1.889764,1.889764 0 0 0 1.8898,1.8898 h 22.6771 a 1.889764,1.889764 0 0 0 1.8898,-1.8898 v -52.9134 a 1.889764,1.889764 0 0 0 -1.8898,-1.8897 z"
       style="fill:none;stroke:#000000"
       id="path1402" />
    <path
       d="m -4402.8427,-4214.4572 h -40.6535 a 1.889764,1.889764 0 0 0 -1.8898,1.8897 v 52.9134 a 1.889764,1.889764 0 0 0 1.8898,1.8898 h 40.6535 a 1.889764,1.889764 0 0 0 1.8898,-1.8898 v -52.9134 a 1.889764,1.889764 0 0 0 -1.8898,-1.8897 z"
       style="fill:none;stroke:#000000"
       id="path1404" />
    <path
       d="m -4877.386,-4165.3234 v 5.6694 a 1.889764,1.889764 0 0 0 1.8898,1.8898 h 22.6771 a 1.889764,1.889764 0 0 0 1.8898,-1.8898 v -5.6694 h 2.3386 a 1.889764,1.889764 0 0 0 1.8897,-1.8897 v -49.1339 a 1.889764,1.889764 0 0 0 -1.8897,-1.8898 h -49.1339 a 1.889764,1.889764 0 0 0 -1.8898,1.8898 v 49.1339 a 1.889764,1.889764 0 0 0 1.8898,1.8897 z"
       style="fill:none;stroke:#000000"
       id="path1406" />
    <path
       d="m -5109.5907,-4165.3234 a 1.889764,1.889764 0 0 0 1.8897,-1.8897 v -49.1339 a 1.889764,1.889764 0 0 0 -1.8897,-1.8898 h -58.1339 a 1.889764,1.889764 0 0 0 -1.8898,1.8898 v 49.1339 a 1.889764,1.889764 0 0 0 1.8898,1.8897 z"
       style="fill:none;stroke:#000000"
       id="path1408" />
    <path
       d="m -5091.638,-4165.3234 a 1.889764,1.889764 0 0 0 1.8898,-1.8897 v -49.1339 a 1.889764,1.889764 0 0 0 -1.8898,-1.8898 h -3.7795 a 1.889764,1.889764 0 0 0 -1.8898,1.8898 v 49.1339 a 1.889764,1.889764 0 0 0 1.8898,1.8897 z"
       style="fill:none;stroke:#000000"
       id="path1410" />
    <path
       d="m -5019.5907,-4165.3234 a 1.889764,1.889764 0 0 0 1.8897,-1.8897 v -49.1339 a 1.889764,1.889764 0 0 0 -1.8897,-1.8898 h -58.1339 a 1.889764,1.889764 0 0 0 -1.8898,1.8898 v 49.1339 a 1.889764,1.889764 0 0 0 1.8898,1.8897 z"
       style="fill:none;stroke:#000000"
       id="path1412" />
    <path
       d="m -5001.5907,-4165.3234 a 1.889764,1.889764 0 0 0 1.8897,-1.8897 v -49.1339 a 1.889764,1.889764 0 0 0 -1.8897,-1.8898 h -3.7796 a 1.889764,1.889764 0 0 0 -1.8897,1.8898 v 49.1339 a 1.889764,1.889764 0 0 0 1.8897,1.8897 z"
       style="fill:none;stroke:#000000"
       id="path1414" />
    <path
       d="m -4929.5907,-4165.3234 a 1.889764,1.889764 0 0 0 1.8897,-1.8897 v -49.1339 a 1.889764,1.889764 0 0 0 -1.8897,-1.8898 h -58.1339 a 1.889764,1.889764 0 0 0 -1.8898,1.8898 v 49.1339 a 1.889764,1.889764 0 0 0 1.8898,1.8897 z"
       style="fill:none;stroke:#000000"
       id="path1416" />
    <path
       d="m -4911.638,-4165.3234 a 1.889764,1.889764 0 0 0 1.8898,-1.8897 v -49.1339 a 1.889764,1.889764 0 0 0 -1.8898,-1.8898 h -3.7795 a 1.889764,1.889764 0 0 0 -1.8898,1.8898 v 49.1339 a 1.889764,1.889764 0 0 0 1.8898,1.8897 z"
       style="fill:none;stroke:#000000"
       id="path1418" />
    <path
       d="m -4578.5907,-4165.3234 a 1.889764,1.889764 0 0 0 1.8897,-1.8897 v -49.1339 a 1.889764,1.889764 0 0 0 -1.8897,-1.8898 h -94.1339 a 1.889764,1.889764 0 0 0 -1.8898,1.8898 v 49.1339 a 1.889764,1.889764 0 0 0 1.8898,1.8897 z"
       style="fill:none;stroke:#000000"
       id="path1420" />
    <path
       d="m -4263.5907,-3877.3234 a 1.889764,1.889764 0 0 0 1.8897,-1.8897 v -49.1339 a 1.889764,1.889764 0 0 0 -1.8897,-1.8898 h -49.1339 a 1.889764,1.889764 0 0 0 -1.8898,1.8898 v 49.1339 a 1.889764,1.889764 0 0 0 1.8898,1.8897 z"
       style="fill:none;stroke:#000000"
       id="path1422" />
    <path
       d="m -4119.5907,-3877.3234 a 1.889764,1.889764 0 0 0 1.8897,-1.8897 v -49.1339 a 1.889764,1.889764 0 0 0 -1.8897,-1.8898 h -49.1339 a 1.889764,1.889764 0 0 0 -1.8898,1.8898 v 49.1339 a 1.889764,1.889764 0 0 0 1.8898,1.8897 z"
       style="fill:none;stroke:#000000"
       id="path1424" />
    <path
       d="m -4242.6144,-3879.2131 a 1.889764,1.889764 0 0 0 1.8898,1.8897 h 49.1339 a 1.889764,1.889764 0 0 0 1.8897,-1.8897 v -49.1339 a 1.889764,1.889764 0 0 0 -1.8897,-1.8898 h -49.1339 a 1.889764,1.889764 0 0 0 -1.8898,1.8898 z"
       style="fill:none;stroke:#000000"
       id="path1426" />
    <path
       d="m -4602.6144,-3879.2131 a 1.889764,1.889764 0 0 0 1.8898,1.8897 h 49.1339 a 1.889764,1.889764 0 0 0 1.8897,-1.8897 v -49.1339 a 1.889764,1.889764 0 0 0 -1.8897,-1.8898 h -49.1339 a 1.889764,1.889764 0 0 0 -1.8898,1.8898 z"
       style="fill:none;stroke:#000000"
       id="path1428" />
    <path
       d="m -4386.6144,-3879.2131 a 1.889764,1.889764 0 0 0 1.8898,1.8897 h 49.1339 a 1.889764,1.889764 0 0 0 1.8897,-1.8897 v -49.1339 a 1.889764,1.889764 0 0 0 -1.8897,-1.8898 h -49.1339 a 1.889764,1.889764 0 0 0 -1.8898,1.8898 z"
       style="fill:none;stroke:#000000"
       id="path1430" />
    <path
       d="m -4674.6144,-3879.2131 a 1.889764,1.889764 0 0 0 1.8898,1.8897 h 49.1339 a 1.889764,1.889764 0 0 0 1.8897,-1.8897 v -49.1339 a 1.889764,1.889764 0 0 0 -1.8897,-1.8898 h -49.1339 a 1.889764,1.889764 0 0 0 -1.8898,1.8898 z"
       style="fill:none;stroke:#000000"
       id="path1432" />
    <path
       d="m -4983.5907,-3877.3234 a 1.889764,1.889764 0 0 0 1.8897,-1.8897 v -49.1339 a 1.889764,1.889764 0 0 0 -1.8897,-1.8898 h -49.1339 a 1.889764,1.889764 0 0 0 -1.8898,1.8898 v 49.1339 a 1.889764,1.889764 0 0 0 1.8898,1.8897 z"
       style="fill:none;stroke:#000000"
       id="path1434" />
    <path
       d="m -4695.5907,-3877.3234 a 1.889764,1.889764 0 0 0 1.8897,-1.8897 v -49.1339 a 1.889764,1.889764 0 0 0 -1.8897,-1.8898 h -49.1339 a 1.889764,1.889764 0 0 0 -1.8898,1.8898 v 49.1339 a 1.889764,1.889764 0 0 0 1.8898,1.8897 z"
       style="fill:none;stroke:#000000"
       id="path1436" />
    <path
       d="m -4911.5907,-3877.3234 a 1.889764,1.889764 0 0 0 1.8897,-1.8897 v -49.1339 a 1.889764,1.889764 0 0 0 -1.8897,-1.8898 h -49.1339 a 1.889764,1.889764 0 0 0 -1.8898,1.8898 v 49.1339 a 1.889764,1.889764 0 0 0 1.8898,1.8897 z"
       style="fill:none;stroke:#000000"
       id="path1438" />
    <path
       d="m -4188.6144,-3951.2131 a 1.889764,1.889764 0 0 0 1.8898,1.8897 h 49.1339 a 1.889764,1.889764 0 0 0 1.8897,-1.8897 v -49.1339 a 1.889764,1.889764 0 0 0 -1.8897,-1.8898 h -49.1339 a 1.889764,1.889764 0 0 0 -1.8898,1.8898 z"
       style="fill:none;stroke:#000000"
       id="path1440" />
    <path
       d="m -4125.3073,-3951.2131 a 1.889764,1.889764 0 0 0 1.8898,1.8897 h 3.7795 a 1.889764,1.889764 0 0 0 1.8898,-1.8897 v -49.1339 a 1.889764,1.889764 0 0 0 -1.8898,-1.8898 h -3.7795 a 1.889764,1.889764 0 0 0 -1.8898,1.8898 z"
       style="fill:none;stroke:#000000"
       id="path1442" />
    <path
       d="m -5055.5907,-3877.3234 a 1.889764,1.889764 0 0 0 1.8897,-1.8897 v -49.1339 a 1.889764,1.889764 0 0 0 -1.8897,-1.8898 h -2.2186 v -5.6693 a 1.889764,1.889764 0 0 0 -1.8898,-1.8897 h -22.6771 a 1.889764,1.889764 0 0 0 -1.8898,1.8897 v 5.6693 h -63.7833 v -5.6693 a 1.889764,1.889764 0 0 0 -1.8898,-1.8897 h -22.6771 a 1.889764,1.889764 0 0 0 -1.8898,1.8897 v 5.6693 h -2.2186 a 1.889764,1.889764 0 0 0 -1.8898,1.8898 v 49.1339 a 1.889764,1.889764 0 0 0 1.8898,1.8897 z"
       style="fill:none;stroke:#000000"
       id="path1444" />
    <path
       d="m -4206.5671,-3951.2131 a 1.889764,1.889764 0 0 0 1.8898,1.8897 h 3.7795 a 1.889764,1.889764 0 0 0 1.8897,-1.8897 v -49.1339 a 1.889764,1.889764 0 0 0 -1.8897,-1.8898 h -3.7795 a 1.889764,1.889764 0 0 0 -1.8898,1.8898 z"
       style="fill:none;stroke:#000000"
       id="path1446" />
    <path
       d="m -4566.6144,-3951.2131 a 1.889764,1.889764 0 0 0 1.8898,1.8897 h 49.1339 a 1.889764,1.889764 0 0 0 1.8897,-1.8897 v -49.1339 a 1.889764,1.889764 0 0 0 -1.8897,-1.8898 h -49.1339 a 1.889764,1.889764 0 0 0 -1.8898,1.8898 z"
       style="fill:none;stroke:#000000"
       id="path1448" />
    <path
       d="m -4494.6144,-3951.2131 a 1.889764,1.889764 0 0 0 1.8898,1.8897 h 49.1339 a 1.889764,1.889764 0 0 0 1.8897,-1.8897 v -49.1339 a 1.889764,1.889764 0 0 0 -1.8897,-1.8898 h -49.1339 a 1.889764,1.889764 0 0 0 -1.8898,1.8898 z"
       style="fill:none;stroke:#000000"
       id="path1450" />
    <path
       d="m -4638.6144,-3951.2131 a 1.889764,1.889764 0 0 0 1.8898,1.8897 h 49.1339 a 1.889764,1.889764 0 0 0 1.8897,-1.8897 v -49.1339 a 1.889764,1.889764 0 0 0 -1.8897,-1.8898 h -49.1339 a 1.889764,1.889764 0 0 0 -1.8898,1.8898 z"
       style="fill:none;stroke:#000000"
       id="path1452" />
    <path
       d="m -4422.6144,-3951.2131 a 1.889764,1.889764 0 0 0 1.8898,1.8897 h 49.1339 a 1.889764,1.889764 0 0 0 1.8897,-1.8897 v -49.1339 a 1.889764,1.889764 0 0 0 -1.8897,-1.8898 h -49.1339 a 1.889764,1.889764 0 0 0 -1.8898,1.8898 z"
       style="fill:none;stroke:#000000"
       id="path1454" />
    <path
       d="m -4278.6144,-3951.2131 a 1.889764,1.889764 0 0 0 1.8898,1.8897 h 49.1339 a 1.889764,1.889764 0 0 0 1.8897,-1.8897 v -49.1339 a 1.889764,1.889764 0 0 0 -1.8897,-1.8898 h -49.1339 a 1.889764,1.889764 0 0 0 -1.8898,1.8898 z"
       style="fill:none;stroke:#000000"
       id="path1456" />
    <path
       d="m -4710.6144,-3951.2131 a 1.889764,1.889764 0 0 0 1.8898,1.8897 h 49.1339 a 1.889764,1.889764 0 0 0 1.8897,-1.8897 v -49.1339 a 1.889764,1.889764 0 0 0 -1.8897,-1.8898 h -49.1339 a 1.889764,1.889764 0 0 0 -1.8898,1.8898 z"
       style="fill:none;stroke:#000000"
       id="path1458" />
    <path
       d="m -4350.6144,-3951.2131 a 1.889764,1.889764 0 0 0 1.8898,1.8897 h 49.1339 a 1.889764,1.889764 0 0 0 1.8897,-1.8897 v -49.1339 a 1.889764,1.889764 0 0 0 -1.8897,-1.8898 h -49.1339 a 1.889764,1.889764 0 0 0 -1.8898,1.8898 z"
       style="fill:none;stroke:#000000"
       id="path1460" />
    <path
       d="m -4782.6144,-3951.2131 a 1.889764,1.889764 0 0 0 1.8898,1.8897 h 49.1339 a 1.889764,1.889764 0 0 0 1.8897,-1.8897 v -49.1339 a 1.889764,1.889764 0 0 0 -1.8897,-1.8898 h -49.1339 a 1.889764,1.889764 0 0 0 -1.8898,1.8898 z"
       style="fill:none;stroke:#000000"
       id="path1462" />
    <path
       d="m -4998.6144,-3951.2131 a 1.889764,1.889764 0 0 0 1.8898,1.8897 h 49.1339 a 1.889764,1.889764 0 0 0 1.8897,-1.8897 v -49.1339 a 1.889764,1.889764 0 0 0 -1.8897,-1.8898 h -49.1339 a 1.889764,1.889764 0 0 0 -1.8898,1.8898 z"
       style="fill:none;stroke:#000000"
       id="path1464" />
    <path
       d="m -4854.6144,-3951.2131 a 1.889764,1.889764 0 0 0 1.8898,1.8897 h 49.1339 a 1.889764,1.889764 0 0 0 1.8897,-1.8897 v -49.1339 a 1.889764,1.889764 0 0 0 -1.8897,-1.8898 h -49.1339 a 1.889764,1.889764 0 0 0 -1.8898,1.8898 z"
       style="fill:none;stroke:#000000"
       id="path1466" />
    <path
       d="m -5097.3073,-3951.2131 a 1.889764,1.889764 0 0 0 1.8898,1.8897 h 3.7795 a 1.889764,1.889764 0 0 0 1.8898,-1.8897 v -49.1339 a 1.889764,1.889764 0 0 0 -1.8898,-1.8898 h -3.7795 a 1.889764,1.889764 0 0 0 -1.8898,1.8898 z"
       style="fill:none;stroke:#000000"
       id="path1468" />
    <path
       d="m -5178.5671,-3951.2131 a 1.889764,1.889764 0 0 0 1.8898,1.8897 h 3.7795 a 1.889764,1.889764 0 0 0 1.8897,-1.8897 v -49.1339 a 1.889764,1.889764 0 0 0 -1.8897,-1.8898 h -3.7795 a 1.889764,1.889764 0 0 0 -1.8898,1.8898 z"
       style="fill:none;stroke:#000000"
       id="path1470" />
    <path
       d="m -5160.6144,-3951.2131 a 1.889764,1.889764 0 0 0 1.8898,1.8897 h 49.1339 a 1.889764,1.889764 0 0 0 1.8897,-1.8897 v -49.1339 a 1.889764,1.889764 0 0 0 -1.8897,-1.8898 h -49.1339 a 1.889764,1.889764 0 0 0 -1.8898,1.8898 z"
       style="fill:none;stroke:#000000"
       id="path1472" />
    <path
       d="m -4926.6144,-3951.2131 a 1.889764,1.889764 0 0 0 1.8898,1.8897 h 49.1339 a 1.889764,1.889764 0 0 0 1.8897,-1.8897 v -49.1339 a 1.889764,1.889764 0 0 0 -1.8897,-1.8898 h -49.1339 a 1.889764,1.889764 0 0 0 -1.8898,1.8898 z"
       style="fill:none;stroke:#000000"
       id="path1474" />
    <path
       d="m -5070.6144,-3951.2131 a 1.889764,1.889764 0 0 0 1.8898,1.8897 h 49.1339 a 1.889764,1.889764 0 0 0 1.8897,-1.8897 v -49.1339 a 1.889764,1.889764 0 0 0 -1.8897,-1.8898 h -49.1339 a 1.889764,1.889764 0 0 0 -1.8898,1.8898 z"
       style="fill:none;stroke:#000000"
       id="path1476" />
    <path
       d="m -4209.8978,-4021.3234 a 1.889764,1.889764 0 0 0 1.8897,-1.8897 v -49.1339 a 1.889764,1.889764 0 0 0 -1.8897,-1.8898 h -3.7795 a 1.889764,1.889764 0 0 0 -1.8898,1.8898 v 49.1339 a 1.889764,1.889764 0 0 0 1.8898,1.8897 z"
       style="fill:none;stroke:#000000"
       id="path1478" />
    <path
       d="m -4368.6144,-4023.2131 a 1.889764,1.889764 0 0 0 1.8898,1.8897 h 49.1339 a 1.889764,1.889764 0 0 0 1.8897,-1.8897 v -49.1339 a 1.889764,1.889764 0 0 0 -1.8897,-1.8898 h -49.1339 a 1.889764,1.889764 0 0 0 -1.8898,1.8898 z"
       style="fill:none;stroke:#000000"
       id="path1480" />
    <path
       d="m -4512.6144,-4023.2131 a 1.889764,1.889764 0 0 0 1.8898,1.8897 h 49.1339 a 1.889764,1.889764 0 0 0 1.8897,-1.8897 v -49.1339 a 1.889764,1.889764 0 0 0 -1.8897,-1.8898 h -49.1339 a 1.889764,1.889764 0 0 0 -1.8898,1.8898 z"
       style="fill:none;stroke:#000000"
       id="path1482" />
    <path
       d="m -4296.6144,-4023.2131 a 1.889764,1.889764 0 0 0 1.8898,1.8897 h 49.1339 a 1.889764,1.889764 0 0 0 1.8897,-1.8897 v -49.1339 a 1.889764,1.889764 0 0 0 -1.8897,-1.8898 h -49.1339 a 1.889764,1.889764 0 0 0 -1.8898,1.8898 z"
       style="fill:none;stroke:#000000"
       id="path1484" />
    <path
       d="m -4440.6144,-4023.2131 a 1.889764,1.889764 0 0 0 1.8898,1.8897 h 49.1339 a 1.889764,1.889764 0 0 0 1.8897,-1.8897 v -49.1339 a 1.889764,1.889764 0 0 0 -1.8897,-1.8898 h -49.1339 a 1.889764,1.889764 0 0 0 -1.8898,1.8898 z"
       style="fill:none;stroke:#000000"
       id="path1486" />
    <path
       d="m -4197.6144,-4023.2131 a 1.889764,1.889764 0 0 0 1.8898,1.8897 h 67.1339 a 1.889764,1.889764 0 0 0 1.8897,-1.8897 v -49.1339 a 1.889764,1.889764 0 0 0 -1.8897,-1.8898 h -67.1339 a 1.889764,1.889764 0 0 0 -1.8898,1.8898 z"
       style="fill:none;stroke:#000000"
       id="path1488" />
    <path
       d="m -5016.6144,-4023.2131 a 1.889764,1.889764 0 0 0 1.8898,1.8897 h 49.1339 a 1.889764,1.889764 0 0 0 1.8897,-1.8897 v -49.1339 a 1.889764,1.889764 0 0 0 -1.8897,-1.8898 h -49.1339 a 1.889764,1.889764 0 0 0 -1.8898,1.8898 z"
       style="fill:none;stroke:#000000"
       id="path1490" />
    <path
       d="m -4800.6144,-4023.2131 a 1.889764,1.889764 0 0 0 1.8898,1.8897 h 49.1339 a 1.889764,1.889764 0 0 0 1.8897,-1.8897 v -49.1339 a 1.889764,1.889764 0 0 0 -1.8897,-1.8898 h -49.1339 a 1.889764,1.889764 0 0 0 -1.8898,1.8898 z"
       style="fill:none;stroke:#000000"
       id="path1492" />
    <path
       d="m -4893.5907,-4021.3234 a 1.889764,1.889764 0 0 0 1.8897,-1.8897 v -49.1339 a 1.889764,1.889764 0 0 0 -1.8897,-1.8898 h -49.1339 a 1.889764,1.889764 0 0 0 -1.8898,1.8898 v 49.1339 a 1.889764,1.889764 0 0 0 1.8898,1.8897 z"
       style="fill:none;stroke:#000000"
       id="path1494" />
    <path
       d="m -4872.6144,-4023.2131 a 1.889764,1.889764 0 0 0 1.8898,1.8897 h 49.1339 a 1.889764,1.889764 0 0 0 1.8897,-1.8897 v -49.1339 a 1.889764,1.889764 0 0 0 -1.8897,-1.8898 h -49.1339 a 1.889764,1.889764 0 0 0 -1.8898,1.8898 z"
       style="fill:none;stroke:#000000"
       id="path1496" />
    <path
       d="m -4677.5907,-4021.3234 a 1.889764,1.889764 0 0 0 1.8897,-1.8897 v -49.1339 a 1.889764,1.889764 0 0 0 -1.8897,-1.8898 h -49.1339 a 1.889764,1.889764 0 0 0 -1.8898,1.8898 v 49.1339 a 1.889764,1.889764 0 0 0 1.8898,1.8897 z"
       style="fill:none;stroke:#000000"
       id="path1498" />
    <path
       d="m -4656.6144,-4023.2131 a 1.889764,1.889764 0 0 0 1.8898,1.8897 h 49.1339 a 1.889764,1.889764 0 0 0 1.8897,-1.8897 v -49.1339 a 1.889764,1.889764 0 0 0 -1.8897,-1.8898 h -49.1339 a 1.889764,1.889764 0 0 0 -1.8898,1.8898 z"
       style="fill:none;stroke:#000000"
       id="path1500" />
    <path
       d="m -5133.6144,-4023.2131 a 1.889764,1.889764 0 0 0 1.8898,1.8897 h 49.1339 a 1.889764,1.889764 0 0 0 1.8897,-1.8897 v -49.1339 a 1.889764,1.889764 0 0 0 -1.8897,-1.8898 h -49.1339 a 1.889764,1.889764 0 0 0 -1.8898,1.8898 z"
       style="fill:none;stroke:#000000"
       id="path1502" />
    <path
       d="m -4584.6144,-4023.2131 a 1.889764,1.889764 0 0 0 1.8898,1.8897 h 49.1339 a 1.889764,1.889764 0 0 0 1.8897,-1.8897 v -49.1339 a 1.889764,1.889764 0 0 0 -1.8897,-1.8898 h -49.1339 a 1.889764,1.889764 0 0 0 -1.8898,1.8898 z"
       style="fill:none;stroke:#000000"
       id="path1504" />
    <path
       d="m -5165.506,-4026.9927 a 1.889764,1.889764 0 0 0 1.8898,1.8898 h 22.6771 a 1.889764,1.889764 0 0 0 1.8898,-1.8898 v -52.9134 a 1.889764,1.889764 0 0 0 -1.8898,-1.8897 h -22.6771 a 1.889764,1.889764 0 0 0 -1.8898,1.8897 z"
       style="fill:none;stroke:#000000"
       id="path1506" />
    <path
       d="m -4157.266,-4098.9927 a 1.889764,1.889764 0 0 0 1.8898,1.8898 h 22.6771 a 1.889764,1.889764 0 0 0 1.8898,-1.8898 v -52.9134 a 1.889764,1.889764 0 0 0 -1.8898,-1.8897 h -22.6771 a 1.889764,1.889764 0 0 0 -1.8898,1.8897 z"
       style="fill:none;stroke:#000000"
       id="path1508" />
    <path
       d="m -5179.9136,-4023.2131 a 1.889764,1.889764 0 0 0 1.8898,1.8897 h 3.7795 a 1.889764,1.889764 0 0 0 1.8898,-1.8897 v -49.1339 a 1.889764,1.889764 0 0 0 -1.8898,-1.8898 h -3.7795 a 1.889764,1.889764 0 0 0 -1.8898,1.8898 z"
       style="fill:none;stroke:#000000"
       id="path1510" />
    <path
       d="m -5050.6991,-4025.1029 a 1.889764,1.889764 0 0 0 1.8898,-1.8898 v -52.9134 a 1.889764,1.889764 0 0 0 -1.8898,-1.8897 h -22.6771 a 1.889764,1.889764 0 0 0 -1.8898,1.8897 v 52.9134 a 1.889764,1.889764 0 0 0 1.8898,1.8898 z"
       style="fill:none;stroke:#000000"
       id="path1512" />
    <path
       d="m -5041.9608,-4023.2131 a 1.889764,1.889764 0 0 0 1.8898,1.8897 h 3.7795 a 1.889764,1.889764 0 0 0 1.8897,-1.8897 v -49.1339 a 1.889764,1.889764 0 0 0 -1.8897,-1.8898 h -3.7795 a 1.889764,1.889764 0 0 0 -1.8898,1.8898 z"
       style="fill:none;stroke:#000000"
       id="path1514" />
    <path
       d="m -4215.6144,-4095.2131 a 1.889764,1.889764 0 0 0 1.8898,1.8897 h 49.1339 a 1.889764,1.889764 0 0 0 1.8897,-1.8897 v -49.1339 a 1.889764,1.889764 0 0 0 -1.8897,-1.8898 h -49.1339 a 1.889764,1.889764 0 0 0 -1.8898,1.8898 z"
       style="fill:none;stroke:#000000"
       id="path1516" />
    <path
       d="m -4548.6144,-4095.2131 a 1.889764,1.889764 0 0 0 1.8898,1.8897 h 49.1339 a 1.889764,1.889764 0 0 0 1.8897,-1.8897 v -49.1339 a 1.889764,1.889764 0 0 0 -1.8897,-1.8898 h -49.1339 a 1.889764,1.889764 0 0 0 -1.8898,1.8898 z"
       style="fill:none;stroke:#000000"
       id="path1518" />
    <path
       d="m -4261.9136,-4095.2131 a 1.889764,1.889764 0 0 0 1.8898,1.8897 h 3.7795 a 1.889764,1.889764 0 0 0 1.8898,-1.8897 v -49.1339 a 1.889764,1.889764 0 0 0 -1.8898,-1.8898 h -3.7795 a 1.889764,1.889764 0 0 0 -1.8898,1.8898 z"
       style="fill:none;stroke:#000000"
       id="path1520" />
    <path
       d="m -4620.6144,-4095.2131 a 1.889764,1.889764 0 0 0 1.8898,1.8897 h 49.1339 a 1.889764,1.889764 0 0 0 1.8897,-1.8897 v -49.1339 a 1.889764,1.889764 0 0 0 -1.8897,-1.8898 h -49.1339 a 1.889764,1.889764 0 0 0 -1.8898,1.8898 z"
       style="fill:none;stroke:#000000"
       id="path1522" />
    <path
       d="m -4247.506,-4098.9927 a 1.889764,1.889764 0 0 0 1.8898,1.8898 h 22.6771 a 1.889764,1.889764 0 0 0 1.8898,-1.8898 v -52.9134 a 1.889764,1.889764 0 0 0 -1.8898,-1.8897 h -22.6771 a 1.889764,1.889764 0 0 0 -1.8898,1.8897 z"
       style="fill:none;stroke:#000000"
       id="path1524" />
    <path
       d="m -4404.6144,-4095.2131 a 1.889764,1.889764 0 0 0 1.8898,1.8897 h 49.1339 a 1.889764,1.889764 0 0 0 1.8897,-1.8897 v -49.1339 a 1.889764,1.889764 0 0 0 -1.8897,-1.8898 h -49.1339 a 1.889764,1.889764 0 0 0 -1.8898,1.8898 z"
       style="fill:none;stroke:#000000"
       id="path1526" />
    <path
       d="m -4281.5907,-4093.3234 a 1.889764,1.889764 0 0 0 1.8897,-1.8897 v -49.1339 a 1.889764,1.889764 0 0 0 -1.8897,-1.8898 h -49.1339 a 1.889764,1.889764 0 0 0 -1.8898,1.8898 v 49.1339 a 1.889764,1.889764 0 0 0 1.8898,1.8897 z"
       style="fill:none;stroke:#000000"
       id="path1528" />
    <path
       d="m -4425.5907,-4093.3234 a 1.889764,1.889764 0 0 0 1.8897,-1.8897 v -49.1339 a 1.889764,1.889764 0 0 0 -1.8897,-1.8898 h -49.1339 a 1.889764,1.889764 0 0 0 -1.8898,1.8898 v 49.1339 a 1.889764,1.889764 0 0 0 1.8898,1.8897 z"
       style="fill:none;stroke:#000000"
       id="path1530" />
    <path
       d="m -4123.9608,-4095.2131 a 1.889764,1.889764 0 0 0 1.8898,1.8897 h 3.7795 a 1.889764,1.889764 0 0 0 1.8897,-1.8897 v -49.1339 a 1.889764,1.889764 0 0 0 -1.8897,-1.8898 h -3.7795 a 1.889764,1.889764 0 0 0 -1.8898,1.8898 z"
       style="fill:none;stroke:#000000"
       id="path1532" />
    <path
       d="m -4980.6144,-4095.2131 a 1.889764,1.889764 0 0 0 1.8898,1.8897 h 49.1339 a 1.889764,1.889764 0 0 0 1.8897,-1.8897 v -49.1339 a 1.889764,1.889764 0 0 0 -1.8897,-1.8898 h -49.1339 a 1.889764,1.889764 0 0 0 -1.8898,1.8898 z"
       style="fill:none;stroke:#000000"
       id="path1534" />
    <path
       d="m -4836.6144,-4095.2131 a 1.889764,1.889764 0 0 0 1.8898,1.8897 h 49.1339 a 1.889764,1.889764 0 0 0 1.8897,-1.8897 v -49.1339 a 1.889764,1.889764 0 0 0 -1.8897,-1.8898 h -49.1339 a 1.889764,1.889764 0 0 0 -1.8898,1.8898 z"
       style="fill:none;stroke:#000000"
       id="path1536" />
    <path
       d="m -4764.6144,-4095.2131 a 1.889764,1.889764 0 0 0 1.8898,1.8897 h 49.1339 a 1.889764,1.889764 0 0 0 1.8897,-1.8897 v -49.1339 a 1.889764,1.889764 0 0 0 -1.8897,-1.8898 h -49.1339 a 1.889764,1.889764 0 0 0 -1.8898,1.8898 z"
       style="fill:none;stroke:#000000"
       id="path1538" />
    <path
       d="m -4692.6144,-4095.2131 a 1.889764,1.889764 0 0 0 1.8898,1.8897 h 49.1339 a 1.889764,1.889764 0 0 0 1.8897,-1.8897 v -49.1339 a 1.889764,1.889764 0 0 0 -1.8897,-1.8898 h -49.1339 a 1.889764,1.889764 0 0 0 -1.8898,1.8898 z"
       style="fill:none;stroke:#000000"
       id="path1540" />
    <path
       d="m -4908.6144,-4095.2131 a 1.889764,1.889764 0 0 0 1.8898,1.8897 h 49.1339 a 1.889764,1.889764 0 0 0 1.8897,-1.8897 v -49.1339 a 1.889764,1.889764 0 0 0 -1.8897,-1.8898 h -49.1339 a 1.889764,1.889764 0 0 0 -1.8898,1.8898 z"
       style="fill:none;stroke:#000000"
       id="path1542" />
    <path
       d="m -5057.266,-4146.2368 h -56.4586 a 1.889764,1.889764 0 0 0 -1.8898,1.8898 v 49.1339 a 1.889764,1.889764 0 0 0 1.8898,1.8897 h 85.1339 a 1.889764,1.889764 0 0 0 1.8897,-1.8897 v -49.1339 a 1.889764,1.889764 0 0 0 -1.8897,-1.8898 h -2.2186 v -5.6693 a 1.889764,1.889764 0 0 0 -1.8898,-1.8897 h -22.6771 a 1.889764,1.889764 0 0 0 -1.8898,1.8897 z"
       style="fill:none;stroke:#000000"
       id="path1544" />
    <path
       d="m -5122.9391,-4097.1029 a 1.889764,1.889764 0 0 0 1.8898,-1.8898 v -52.9134 a 1.889764,1.889764 0 0 0 -1.8898,-1.8897 h -22.6771 a 1.889764,1.889764 0 0 0 -1.8898,1.8897 v 5.6693 h -29.2186 a 1.889764,1.889764 0 0 0 -1.8898,1.8898 v 49.1339 a 1.889764,1.889764 0 0 0 1.8898,1.8897 h 49.1339 a 1.889764,1.889764 0 0 0 1.8897,-1.8897 v -1.8898 z"
       style="fill:none;stroke:#000000"
       id="path1546" />
    <path
       d="m -4128.5907,-4165.3234 a 1.889764,1.889764 0 0 0 1.8897,-1.8897 v -49.1339 a 1.889764,1.889764 0 0 0 -1.8897,-1.8898 h -58.1339 a 1.889764,1.889764 0 0 0 -1.8898,1.8898 v 49.1339 a 1.889764,1.889764 0 0 0 1.8898,1.8897 z"
       style="fill:none;stroke:#000000"
       id="path1548" />
    <path
       d="m -4278.6144,-4167.2131 a 1.889764,1.889764 0 0 0 1.8898,1.8897 h 58.1339 a 1.889764,1.889764 0 0 0 1.8897,-1.8897 v -49.1339 a 1.889764,1.889764 0 0 0 -1.8897,-1.8898 h -58.1339 a 1.889764,1.889764 0 0 0 -1.8898,1.8898 z"
       style="fill:none;stroke:#000000"
       id="path1550" />
    <path
       d="m -4296.6144,-4167.2131 a 1.889764,1.889764 0 0 0 1.8898,1.8897 h 3.7795 a 1.889764,1.889764 0 0 0 1.8898,-1.8897 v -49.1339 a 1.889764,1.889764 0 0 0 -1.8898,-1.8898 h -3.7795 a 1.889764,1.889764 0 0 0 -1.8898,1.8898 z"
       style="fill:none;stroke:#000000"
       id="path1552" />
    <path
       d="m -4308.5907,-4165.3234 a 1.889764,1.889764 0 0 0 1.8897,-1.8897 v -49.1339 a 1.889764,1.889764 0 0 0 -1.8897,-1.8898 h -58.1339 a 1.889764,1.889764 0 0 0 -1.8898,1.8898 v 49.1339 a 1.889764,1.889764 0 0 0 1.8898,1.8897 z"
       style="fill:none;stroke:#000000"
       id="path1554" />
    <path
       d="m -4206.5671,-4167.2131 a 1.889764,1.889764 0 0 0 1.8898,1.8897 h 3.7795 a 1.889764,1.889764 0 0 0 1.8897,-1.8897 v -49.1339 a 1.889764,1.889764 0 0 0 -1.8897,-1.8898 h -3.7795 a 1.889764,1.889764 0 0 0 -1.8898,1.8898 z"
       style="fill:none;stroke:#000000"
       id="path1556" />
    <path
       d="m -4386.5671,-4167.2131 a 1.889764,1.889764 0 0 0 1.8898,1.8897 h 3.7795 a 1.889764,1.889764 0 0 0 1.8897,-1.8897 v -49.1339 a 1.889764,1.889764 0 0 0 -1.8897,-1.8898 h -3.7795 a 1.889764,1.889764 0 0 0 -1.8898,1.8898 z"
       style="fill:none;stroke:#000000"
       id="path1558" />
    <path
       d="m -5010.638,-4093.3234 h -7.6535 a 1.889764,1.889764 0 0 1 -1.8898,-1.8897 v -49.1339 a 1.889764,1.889764 0 0 1 1.8898,-1.8898 h 7.6535 a 1.889764,1.889764 0 0 1 1.8898,1.8898 v 49.1339 a 1.889764,1.889764 0 0 1 -1.8898,1.8897 z"
       style="fill:none;stroke:#000000"
       id="path1560" />
    <path
       d="m -4767.5907,-3877.3234 a 1.889764,1.889764 0 0 0 1.8897,-1.8897 v -49.1339 a 1.889764,1.889764 0 0 0 -1.8897,-1.8898 h -49.1339 a 1.889764,1.889764 0 0 0 -1.8898,1.8898 v 49.1339 a 1.889764,1.889764 0 0 0 1.8898,1.8897 z"
       style="fill:none;stroke:#000000"
       id="path1562" />
    <path
       d="m -4839.5907,-3877.3234 a 1.889764,1.889764 0 0 0 1.8897,-1.8897 v -49.1339 a 1.889764,1.889764 0 0 0 -1.8897,-1.8898 h -49.1339 a 1.889764,1.889764 0 0 0 -1.8898,1.8898 v 49.1339 a 1.889764,1.889764 0 0 0 1.8898,1.8897 z"
       style="fill:none;stroke:#000000"
       id="path1564" />
    <path
       d="m -4407.5907,-3877.3234 a 1.889764,1.889764 0 0 0 1.8897,-1.8897 v -49.1339 a 1.889764,1.889764 0 0 0 -1.8897,-1.8898 h -49.1339 a 1.889764,1.889764 0 0 0 -1.8898,1.8898 v 49.1339 a 1.889764,1.889764 0 0 0 1.8898,1.8897 z"
       style="fill:none;stroke:#000000"
       id="path1566" />
    <path
       d="m -4479.5907,-3877.3234 a 1.889764,1.889764 0 0 0 1.8897,-1.8897 v -49.1339 a 1.889764,1.889764 0 0 0 -1.8897,-1.8898 h -49.1339 a 1.889764,1.889764 0 0 0 -1.8898,1.8898 v 49.1339 a 1.889764,1.889764 0 0 0 1.8898,1.8897 z"
       style="fill:none;stroke:#000000"
       id="path1568" />
    <path
       d="m -4651.7371,-4240.1783 a 4.1575,4.1575 0 1 0 -8.315,0 4.1575,4.1575 0 1 0 8.315,0 z"
       style="fill:none;stroke:#000000"
       id="path1570" />
    <path
       d="m -4651.7155,-3854.4414 a 4.1575,4.1575 0 1 0 -8.315,0 4.1575,4.1575 0 1 0 8.315,0 z"
       style="fill:none;stroke:#000000"
       id="path1572" />
    <path
       d="m -5023.9261,-4240.1783 a 4.15748,4.15748 0 1 0 -8.3149,0 4.15748,4.15748 0 1 0 8.3149,0 z"
       style="fill:none;stroke:#000000"
       id="path1574" />
    <path
       d="m -5028.062,-3854.4414 a 4.1574805,4.1574805 0 1 0 -8.3149,0 4.1574805,4.1574805 0 1 0 8.3149,0 z"
       style="fill:none;stroke:#000000"
       id="path1576" />
    <path
       d="m -4824.0002,-3854.4601 a 4.1574805,4.1574805 0 1 0 -8.3149,0 4.1574805,4.1574805 0 1 0 8.3149,0 z"
       style="fill:none;stroke:#000000"
       id="path1578" />
  </g>
</svg>
